<svg xmlns="http://www.w3.org/2000/svg" xmlns:xlink="http://www.w3.org/1999/xlink" width="119" height="354" viewBox="0 0 119 354"><defs><path id="a" d="M7.73 352.72a.4.4 0 0 1-.11.31.34.34 0 0 1-.3.1.35.35 0 0 1-.39-.28l-.54-1.75h-3l-.58 1.75a.37.37 0 0 1-.39.28.36.36 0 0 1-.41-.41.29.29 0 0 1 0-.13l2.42-7.26c.03-.19.21-.33.41-.33a.4.4 0 0 1 .4.31l2.47 7.27.02.14zm-2.84-6l-1.2 3.57h2.39z"/><path id="b" d="M13.83 352.52c.02.06.02.12 0 .18a.4.4 0 0 1-.41.41.38.38 0 0 1-.37-.23l-1.51-3H9.82v2.84a.35.35 0 0 1-.1.31.35.35 0 0 1-.31.1.34.34 0 0 1-.3-.1.36.36 0 0 1-.11-.31v-7.31a.35.35 0 0 1 .11-.3.35.35 0 0 1 .3-.11h2a2.45 2.45 0 0 1 2.44 2.44 2.2 2.2 0 0 1-1.44 2.21zm-4.02-6.76v3.25h1.63a1.62 1.62 0 1 0 0-3.25z"/><path id="c" d="M15.01 352.78v-7.31a.38.38 0 0 1 .18-.4.4.4 0 0 1 .44 0 .4.4 0 0 1 .19.4v2.84h3.25v-2.84a.38.38 0 0 1 .18-.4.4.4 0 0 1 .44 0 .4.4 0 0 1 .19.4v7.31a.42.42 0 0 1-.19.41.4.4 0 0 1-.44 0 .4.4 0 0 1-.18-.41v-3.65h-3.25v3.65a.42.42 0 0 1-.19.41.4.4 0 0 1-.44 0 .4.4 0 0 1-.18-.41z"/><path id="d" d="M22.42 353.19a.35.35 0 0 1-.31-.1.35.35 0 0 1-.1-.31v-7.31a.38.38 0 0 1 .18-.4.4.4 0 0 1 .44 0 .4.4 0 0 1 .19.4v7.31a.38.38 0 0 1-.1.31.34.34 0 0 1-.3.1z"/><path id="e" d="M24 345.41a.35.35 0 0 1 .11-.3.35.35 0 0 1 .3-.11h4.06c.2.04.35.21.35.41a.4.4 0 0 1-.35.4h-1.63v6.9a.4.4 0 0 1-.18.41.4.4 0 0 1-.44 0 .42.42 0 0 1-.19-.41v-6.9h-1.62a.36.36 0 0 1-.3-.09.39.39 0 0 1-.11-.31z"/><path id="f" d="M31 352.72v-7.31a.35.35 0 0 1 .11-.3.35.35 0 0 1 .3-.11h3.25c.2.04.35.21.35.41a.4.4 0 0 1-.35.4h-2.85v2.44h2c.16-.02.32.05.41.19a.4.4 0 0 1 0 .44.4.4 0 0 1-.41.18h-2v3.25h2.84c.16-.02.32.05.41.19a.4.4 0 0 1 0 .44.4.4 0 0 1-.41.18H31.4a.32.32 0 0 1-.29-.1.38.38 0 0 1-.11-.3z"/><path id="g" d="M40.63 345c.2.03.35.2.35.41a.4.4 0 0 1-.35.4H39c-.32 0-.64.12-.87.35-.23.23-.35.55-.35.87v4.06c0 .67.55 1.22 1.22 1.22h1.62c.16-.03.32.05.41.18a.4.4 0 0 1 0 .45.42.42 0 0 1-.41.18H39a2 2 0 0 1-2-2v-4.06c0-1.1.9-2 2-2z"/><path id="h" d="M42 345.41a.35.35 0 0 1 .11-.3.35.35 0 0 1 .3-.11h4.06c.2.04.35.21.35.41a.4.4 0 0 1-.35.4h-1.63v6.9a.4.4 0 0 1-.18.41.4.4 0 0 1-.44 0 .42.42 0 0 1-.19-.41v-6.9H42.4a.32.32 0 0 1-.29-.1.38.38 0 0 1-.11-.3z"/><path id="i" d="M53.87 345.47v5.28a2.44 2.44 0 0 1-4.87 0v-5.28a.4.4 0 0 1 .4-.34.4.4 0 0 1 .41.34v5.28a1.63 1.63 0 1 0 3.25 0v-5.28a.4.4 0 0 1 .18-.4.4.4 0 0 1 .45 0 .4.4 0 0 1 .18.4z"/><path id="j" d="M59.83 352.52v.18a.42.42 0 0 1-.41.41.37.37 0 0 1-.37-.23l-1.51-3h-1.72v2.84a.42.42 0 0 1-.19.41.4.4 0 0 1-.44 0 .4.4 0 0 1-.18-.41v-7.31a.34.34 0 0 1 .1-.3.36.36 0 0 1 .31-.11h2c.64 0 1.27.26 1.72.72.46.45.72 1.08.72 1.72.05.98-.54 1.88-1.45 2.21zm-4.02-6.76v3.25h1.62a1.63 1.63 0 0 0 0-3.25z"/><path id="k" d="M62 352.73v-7.31a.36.36 0 0 1 .11-.31.34.34 0 0 1 .3-.1h3.25a.4.4 0 0 1 .41.18.4.4 0 0 1 0 .44.42.42 0 0 1-.41.19h-2.85v2.44h2a.4.4 0 0 1 .41.18.4.4 0 0 1 0 .44.42.42 0 0 1-.41.19h-2v3.25h2.85a.4.4 0 0 1 .41.18.4.4 0 0 1 0 .44.42.42 0 0 1-.41.19h-3.25a.37.37 0 0 1-.3-.1.38.38 0 0 1-.11-.3z"/><path id="l" d="M76.28 351.58l.58.92a.4.4 0 0 1-.23.6.42.42 0 0 1-.46-.16l-.55-.87-1 .74c-.29.21-.64.32-1 .31a1.63 1.63 0 0 1-1.34-2.54l1.22-1.77-.74-1.3a1.63 1.63 0 0 1 1.37-2.51 1.63 1.63 0 0 1 1.34 2.55l-.89 1.29 1.31 2.06 1.24-.94a.38.38 0 0 1 .25-.09.36.36 0 0 1 .41.41.38.38 0 0 1-.15.32zm-1.09-.2l-1.16-1.8-1 1.49a.82.82 0 0 0-.04.83c.14.27.42.43.72.44.17 0 .34-.05.48-.15zm-1.13-3.29l.69-1a.81.81 0 1 0-1.36-.04z"/><path id="m" d="M84.01 345.41a.35.35 0 0 1 .11-.3.35.35 0 0 1 .3-.11h2.44a2 2 0 0 1 2 2v4.06a2 2 0 0 1-2 2h-2.45a.34.34 0 0 1-.3-.1.36.36 0 0 1-.11-.31zm.81.41v6.5h2c.68 0 1.22-.54 1.22-1.22v-4.06c0-.67-.54-1.22-1.22-1.22z"/><path id="n" d="M91 352.73v-7.31a.36.36 0 0 1 .11-.31.34.34 0 0 1 .3-.1h3.25a.4.4 0 0 1 .41.18.4.4 0 0 1 0 .44.42.42 0 0 1-.41.19h-2.87v2.44h2a.4.4 0 0 1 .41.18.4.4 0 0 1 0 .44.42.42 0 0 1-.41.19h-2v3.25h2.84a.4.4 0 0 1 .41.18.4.4 0 0 1 0 .44.42.42 0 0 1-.41.19h-3.25a.38.38 0 0 1-.38-.4z"/><path id="o" d="M101.84 351.11a2 2 0 0 1-2 2c-.96.01-1.9-.3-2.66-.89a.41.41 0 0 1-.18-.33c0-.23.19-.41.41-.41.08 0 .16.03.23.07.37.21.74.4 1.12.57.35.11.71.17 1.08.17a1.22 1.22 0 0 0 1.22-1.22c.02-.47-.25-.9-.68-1.09l-2.28-1.17a1.9 1.9 0 0 1-1.1-1.8 2 2 0 0 1 2-2c.76-.05 1.52.1 2.2.44a.4.4 0 0 1 .24.37.4.4 0 0 1-.12.29.45.45 0 0 1-.29.12.48.48 0 0 1-.17 0 4.93 4.93 0 0 0-1.86-.36 1.22 1.22 0 0 0-1.22 1.22c-.02.46.24.89.66 1.08l2.28 1.17c.7.31 1.14 1.01 1.12 1.77z"/><path id="p" d="M103.42 353.19a.35.35 0 0 1-.31-.1.35.35 0 0 1-.1-.31v-7.31a.38.38 0 0 1 .18-.4.4.4 0 0 1 .44 0 .4.4 0 0 1 .19.4v7.31a.38.38 0 0 1-.1.31.34.34 0 0 1-.3.1z"/><path id="q" d="M108.03 353.24h2v-3.25h-.81a.42.42 0 0 1-.41-.18.4.4 0 0 1 0-.45.42.42 0 0 1 .41-.18h1.22a.36.36 0 0 1 .41.41v4.06a.36.36 0 0 1-.41.41H108a2 2 0 0 1-2-2V348c0-1.1.9-2 2-2h2.44c.2.03.35.2.35.41a.4.4 0 0 1-.35.4H108c-.32 0-.64.12-.87.35-.23.23-.35.55-.35.87v4.06c0 .32.12.64.35.87.23.23.55.35.87.35z"/><path id="r" d="M116.08 351.21v-5.74a.38.38 0 0 1 .18-.4.4.4 0 0 1 .44 0 .4.4 0 0 1 .19.4v7.31a.39.39 0 0 1-.11.31.34.34 0 0 1-.3.1.36.36 0 0 1-.36-.2l-3.3-5.95v5.75a.42.42 0 0 1-.19.41.4.4 0 0 1-.44 0 .4.4 0 0 1-.18-.41v-7.31a.34.34 0 0 1 .1-.3.36.36 0 0 1 .31-.11c.16 0 .31.1.38.24z"/><path id="s" d="M76.16 1v247.78c0 .33-.28.67-.83 1H67.9c-.33 0-.67-.33-1-1v-50.71H1.66c-.44 0-.66-.27-.66-.83L75.5 1zm-9.91 49.89c-32.6 85.67-49.89 131.65-51.87 137.93h52.53V50.89z"/><path id="t" d="M108.56 26.59l7.7 15.4c.17.31.26.65.27 1a2.28 2.28 0 0 1-2.21 2.21 2.06 2.06 0 0 1-2-1.24l-8.24-16.48c-.26.02-.53.02-.8 0h-8.85v15.53a2.21 2.21 0 0 1-4.42 0V3.22c-.07-.6.15-1.2.58-1.63a1.99 1.99 0 0 1 1.63-.58h11.05a12.76 12.76 0 0 1 9.34 3.87 12.8 12.8 0 0 1 3.87 9.39c.04 6.1-2.6 10.2-7.92 12.32zM94.43 5.43v17.68h8.84a8.74 8.74 0 0 0 8.84-8.84 8.76 8.76 0 0 0-8.84-8.84z"/><path id="u" d="M18.54 321.42l6.44 12.88c.13.26.21.54.22.84a1.93 1.93 0 0 1-1.87 1.85 1.73 1.73 0 0 1-1.68-1l-6.89-13.78H6.72v12.94c.07.51-.1 1.02-.46 1.39-.37.36-.88.53-1.39.46-.51.07-1.03-.1-1.39-.46a1.6 1.6 0 0 1-.46-1.39v-33.28a1.6 1.6 0 0 1 .46-1.39 1.6 1.6 0 0 1 1.39-.46h9.24c2.95-.05 5.8 1.12 7.86 3.24a10.73 10.73 0 0 1 3.23 7.86c0 5.09-2.22 8.52-6.66 10.3zM6.72 303.71v14.79h7.39a7.4 7.4 0 0 0 0-14.79z"/><path id="v" d="M54.18 325.88a11.09 11.09 0 0 1-22.18 0v-14.79A11.1 11.1 0 0 1 43.09 300a11.05 11.05 0 0 1 7.87 3.22 11.05 11.05 0 0 1 3.22 7.87zm-3.7 0v-14.79a7.42 7.42 0 0 0-12.65-5.25 7.17 7.17 0 0 0-2.1 5.25v14.79a7.45 7.45 0 0 0 4.58 6.83 7.45 7.45 0 0 0 8.07-1.58 7.11 7.11 0 0 0 2.11-5.25z"/><path id="w" d="M84.18 325.89a11.09 11.09 0 0 1-18.93 7.84 10.7 10.7 0 0 1-3.25-7.84V311.1a11.12 11.12 0 0 1 18.95-7.86 10.65 10.65 0 0 1 3.23 7.86zm-3.7-14.79a7.4 7.4 0 1 0-14.79 0v14.79a7.4 7.4 0 0 0 14.79 0z"/><path id="x" d="M115.06 300.02a1.6 1.6 0 0 1 1.39.46c.36.36.53.88.46 1.39v33.28a1.85 1.85 0 0 1-3.7 0v-27.2l-7.53 11.29a1.88 1.88 0 1 1-3.45 0l-7.51-11.29v27.2a1.85 1.85 0 0 1-3.7 0v-33.28a1.6 1.6 0 0 1 .46-1.39 1.6 1.6 0 0 1 1.39-.46c.67-.01 1.29.34 1.63.92l9.47 14.2 9.52-14.31c.34-.54.94-.85 1.57-.81z"/><path id="y" d="M14.06 286.29a6.98 6.98 0 0 1-5.6 2.54 7.18 7.18 0 0 1-5.28-2.19A7.2 7.2 0 0 1 1 281.37v-9.95a7.18 7.18 0 0 1 2.19-5.28A7.18 7.18 0 0 1 8.46 264a7.2 7.2 0 0 1 5.28 2.18 7.24 7.24 0 0 1 2.18 5.28v9.95a7.96 7.96 0 0 1-.51 2.73l2.59 2.54c.26.24.41.57.41.92.05.34-.07.68-.32.92-.24.24-.58.35-.92.3-.35.01-.69-.13-.94-.38zm-1.74-1.76l.01.01zm-.88-.82a1.62 1.62 0 0 1-.47-1.06c-.05-.34.07-.68.31-.93.25-.24.59-.36.93-.31.46.06.88.3 1.17.66.04-.23.06-.46.06-.7v-9.95a4.94 4.94 0 0 0-5-5 4.94 4.94 0 0 0-5 5v9.95a4.94 4.94 0 0 0 5 5 4.8 4.8 0 0 0 3.88-1.84z"/><path id="z" d="M35.93 265.25v16.17a7.46 7.46 0 0 1-14.92 0v-16.17c-.04-.34.08-.67.33-.91.24-.23.57-.34.91-.29.34-.05.68.06.92.31.25.24.36.58.32.93v16.17a5 5 0 0 0 8.51 3.53 4.87 4.87 0 0 0 1.44-3.53v-16.21a1.24 1.24 0 1 1 2.49 0z"/><path id="A" d="M58.42 287.59c.04.33-.07.67-.3.91-.23.24-.57.36-.9.33a1.15 1.15 0 0 1-1.19-.85l-1.81-5.37h-9L43.44 288c-.14.53-.64.89-1.19.85-.34.05-.68-.07-.93-.31a1.11 1.11 0 0 1-.31-.93c0-.14.02-.27.06-.4l7.4-22.21c.12-.59.64-1 1.24-1 .6-.01 1.11.41 1.22 1l7.42 22.27c.04.1.06.21.07.32zm-8.7-18.43l-3.66 11h7.31z"/><path id="B" d="M63.01 265.21c-.04-.34.08-.67.33-.9.24-.24.58-.35.92-.3h7.46a6.13 6.13 0 0 1 6.22 6.22v12.43a6.24 6.24 0 0 1-6.22 6.22h-7.46a1.1 1.1 0 0 1-1.24-1.24zm2.49 1.24v19.9h6.22a3.73 3.73 0 0 0 3.73-3.73v-12.43a3.74 3.74 0 0 0-3.73-3.73z"/><path id="C" d="M93.46 278.36l4.33 8.65c.09.18.14.37.15.57a1.3 1.3 0 0 1-1.24 1.24c-.49.03-.94-.25-1.13-.7l-4.62-9.25H85.5v8.7a1.24 1.24 0 1 1-2.49 0v-22.36c-.04-.34.08-.67.33-.9.24-.24.58-.35.92-.3h6.22a7.44 7.44 0 0 1 7.47 7.42c0 3.43-1.5 5.74-4.49 6.93zm-8-11.91v9.95h5a5 5 0 1 0 0-9.95z"/><path id="D" d="M117.92 281.41a7.46 7.46 0 0 1-14.92 0v-9.95a7.46 7.46 0 0 1 14.92 0zm-2.49 0v-9.95a4.98 4.98 0 0 0-7.62-4.74 4.98 4.98 0 0 0-2.33 4.74v9.95a4.98 4.98 0 0 0 7.62 4.74 4.98 4.98 0 0 0 2.33-4.74z"/><path id="E" d="M111.57 241a6.57 6.57 0 1 1 0 13.14 6.57 6.57 0 0 1 0-13.14zm-.85 4.03a.29.29 0 0 0-.28-.28h-2.82a.29.29 0 0 0-.28.28c0 .15.13.28.28.28h1.13v4.8c0 .15.13.28.28.28.15 0 .28-.13.28-.28v-4.8h1.13c.15 0 .28-.13.28-.28zm5.07-.02a.27.27 0 0 0-.07-.21.27.27 0 0 0-.21-.07.25.25 0 0 0-.24.12l-1.45 2.18-1.44-2.17a.29.29 0 0 0-.25-.14.27.27 0 0 0-.21.07.27.27 0 0 0-.07.21v5.08c0 .15.13.28.28.28.15 0 .28-.13.28-.28v-4.15l1.15 1.72c.05.1.15.17.27.17a.3.3 0 0 0 .26-.17l1.15-1.69v4.15c0 .15.13.28.28.28.15 0 .28-.13.28-.28z"/></defs><desc>Generated with Avocode.</desc><g><use fill="#fff" xlink:href="#a"/><use fill="#fff" xlink:href="#b"/><use fill="#fff" xlink:href="#c"/><use fill="#fff" xlink:href="#d"/><use fill="#fff" xlink:href="#e"/><use fill="#fff" xlink:href="#f"/><use fill="#fff" xlink:href="#g"/><use fill="#fff" xlink:href="#h"/><use fill="#fff" xlink:href="#i"/><use fill="#fff" xlink:href="#j"/><use fill="#fff" xlink:href="#k"/><use fill="#fff" xlink:href="#l"/><use fill="#fff" xlink:href="#m"/><use fill="#fff" xlink:href="#n"/><use fill="#fff" xlink:href="#o"/><use fill="#fff" xlink:href="#p"/><g><use fill="#fff" xlink:href="#q"/></g><g><use fill="#fff" xlink:href="#r"/></g><g><use fill="#fff" xlink:href="#s"/></g><g><use fill="#fff" xlink:href="#t"/></g><g><use fill="#fff" xlink:href="#u"/></g><g><use fill="#fff" xlink:href="#v"/></g><g><use fill="#fff" xlink:href="#w"/></g><g><use fill="#fff" xlink:href="#x"/></g><g><use fill="#fff" xlink:href="#y"/></g><g><use fill="#fff" xlink:href="#z"/></g><g><use fill="#fff" xlink:href="#A"/></g><g><use fill="#fff" xlink:href="#B"/></g><g><use fill="#fff" xlink:href="#C"/></g><g><use fill="#fff" xlink:href="#D"/></g><g><use fill="#fff" xlink:href="#E"/></g></g></svg>