<svg xmlns="http://www.w3.org/2000/svg" xmlns:xlink="http://www.w3.org/1999/xlink" width="21" height="46" viewBox="0 0 21 46"><defs><path id="a" d="M13.85 0v45.65c0 .06-.05.12-.16.18h-1.37c-.06 0-.12-.06-.18-.18v-9.34H.12c-.08 0-.12-.05-.12-.16L13.72 0zm-1.83 9.19c-6 15.78-9.19 24.25-9.56 25.41h9.68V9.19z"/><path id="b" d="M19.42 4.71l1.42 2.84c.03.06.05.12.05.19a.42.42 0 0 1-.41.4.38.38 0 0 1-.37-.23l-1.52-3.03h-1.77v2.86c0 .22-.19.41-.41.41a.41.41 0 0 1-.41-.41V.41a.38.38 0 0 1 .11-.3.38.38 0 0 1 .3-.11h2.04c.64-.01 1.26.25 1.72.72.46.45.72 1.07.71 1.73 0 1.12-.48 1.87-1.46 2.26zM16.82.82v3.25h1.63c.43.01.85-.16 1.15-.47.31-.3.48-.72.47-1.15.01-.44-.16-.85-.47-1.16-.3-.31-.72-.48-1.15-.47z"/></defs><desc>Generated with Avocode.</desc><g><use fill="#9b9b9b" xlink:href="#a"/></g><g><use fill="#9b9b9b" xlink:href="#b"/></g></svg>