<svg xmlns="http://www.w3.org/2000/svg" width="109.52mm" height="87.88mm" viewBox="0 0 310.46 249.1"><defs><style>.cls-1{fill:#1a1a18;}.cls-2{isolation:isolate;}.cls-3{fill:#cbc9cb;fill-rule:evenodd;}</style></defs><title>Ресурс 1</title><g id="Слой_2" data-name="Слой 2"><g id="Слой_1-2" data-name="Слой 1"><path class="cls-1" d="M65.25,50.21Q16.35,178.72,13.38,188.14H65.91V50.21ZM75.16.32V248.1q0,.5-.83,1H66.9q-.5,0-1-1V197.39H.66c-.44,0-.66-.27-.66-.83L74.5.32Z"/><path class="cls-1" d="M93.48,4.43V22.11h8.84a8.75,8.75,0,0,0,8.84-8.84,8.75,8.75,0,0,0-8.84-8.84Zm14.13,21.16,7.7,15.4a2.26,2.26,0,0,1,.27,1,2.29,2.29,0,0,1-2.21,2.21,2.07,2.07,0,0,1-2-1.24l-8.24-16.48a7.63,7.63,0,0,1-.8,0H93.48V42a2.21,2.21,0,0,1-4.42,0V2.22A2,2,0,0,1,91.27,0h11.05a12.79,12.79,0,0,1,9.34,3.87,12.79,12.79,0,0,1,3.87,9.39Q115.58,22.41,107.61,25.59Z"/><g class="cls-2"><path class="cls-3" d="M175.37,9.27q19.8,0,30.11,23.29a63.07,63.07,0,0,1,2.95,19.68V206.38q0,30-22.91,40.67a47.29,47.29,0,0,1-10.8,2q-19.14,0-29.78-22.3A63.06,63.06,0,0,1,141.66,206V51.9q0-30,22.91-40.67,7.52-2,10.8-2m-23.89,41v157.1q0,22.3,14.4,29.84a23.05,23.05,0,0,0,9.49,2q15.87,0,22.25-20.66a62.58,62.58,0,0,0,1-10.5V50.92q0-22.3-14.4-29.84a23.06,23.06,0,0,0-9.49-2q-15.87,0-22.25,20.66a62.73,62.73,0,0,0-1,10.5"/></g><g class="cls-2"><path class="cls-3" d="M310.46,1.31V248c0,.33-.27.66-.82,1h-7.39q-.49,0-1-1V197.53h-64.9c-.44,0-.66-.27-.66-.82l74.1-195.4ZM300.61,51Q252,178.95,249,188.32h52.25V51Z"/></g><path class="cls-1" d="M65.25,50.21Q16.35,178.72,13.38,188.14H65.91V50.21ZM75.16.32V248.1q0,.5-.83,1H66.9q-.5,0-1-1V197.39H.66c-.44,0-.66-.27-.66-.83L74.5.32Z"/><path class="cls-1" d="M93.48,4.43V22.11h8.84a8.75,8.75,0,0,0,8.84-8.84,8.75,8.75,0,0,0-8.84-8.84Zm14.13,21.16,7.7,15.4a2.26,2.26,0,0,1,.27,1,2.29,2.29,0,0,1-2.21,2.21,2.07,2.07,0,0,1-2-1.24l-8.24-16.48a7.63,7.63,0,0,1-.8,0H93.48V42a2.21,2.21,0,0,1-4.42,0V2.22A2,2,0,0,1,91.27,0h11.05a12.79,12.79,0,0,1,9.34,3.87,12.79,12.79,0,0,1,3.87,9.39Q115.58,22.41,107.61,25.59Z"/><g class="cls-2"><path class="cls-3" d="M310.46,1.31V248c0,.33-.27.66-.82,1h-7.39q-.49,0-1-1V197.53h-64.9c-.44,0-.66-.27-.66-.82l74.1-195.4ZM300.61,51Q252,178.95,249,188.32h52.25V51Z"/></g></g></g></svg>