<svg width="118" height="353" viewBox="0 0 118 353" xmlns="http://www.w3.org/2000/svg"><title>Logo</title><g fill-rule="nonzero" fill="#000"><path d="M6.34 352.14c.018.113-.02.228-.1.31-.08.08-.196.117-.31.1-.18.015-.346-.104-.39-.28L5 350.52H2l-.58 1.75c-.043.176-.208.295-.39.28-.112.017-.227-.02-.308-.1-.08-.082-.118-.197-.1-.31-.008-.043-.008-.087 0-.13l2.42-7.26c.038-.195.21-.334.41-.33.19-.005.356.125.4.31L6.32 352c.014.045.02.093.02.14zm-2.84-6l-1.2 3.57h2.39l-1.19-3.57zM11.37 349.13l1.42 2.87c.014.06.014.12 0 .18-.004.224-.185.405-.41.41-.16.01-.306-.083-.37-.23l-1.51-3H8.78v2.84c.018.113-.02.228-.1.31-.08.08-.196.117-.31.1-.112.017-.227-.02-.308-.1-.08-.082-.118-.197-.1-.31v-7.31c-.018-.113.02-.228.1-.31.08-.08.196-.117.31-.1h2c.647-.003 1.27.254 1.727.712.457.458.714 1.08.71 1.728.058.973-.526 1.87-1.44 2.21zm-2.6-3.89v3.25h1.63c.898 0 1.626-.728 1.626-1.625s-.728-1.625-1.625-1.625H8.77zM14.46 352.14v-7.31c-.024-.16.047-.32.183-.408.135-.088.31-.088.446 0 .135.088.206.248.18.408v2.84h3.25v-2.84c-.024-.16.047-.32.183-.408.135-.088.31-.088.446 0 .135.088.206.248.18.408v7.31c.026.16-.045.32-.18.408-.137.088-.312.088-.447 0-.136-.088-.207-.248-.182-.408v-3.65h-3.25v3.65c.026.16-.045.32-.18.408-.137.088-.312.088-.447 0-.136-.088-.207-.248-.182-.408zM21.36 352.55c-.112.017-.227-.02-.308-.1-.08-.082-.118-.197-.1-.31v-7.31c-.026-.16.045-.32.18-.408.136-.088.31-.088.447 0 .135.088.206.248.18.408v7.31c.017.11-.02.224-.098.304-.078.08-.19.12-.3.106zM23.39 344.84c-.016-.113.02-.228.102-.31.08-.08.196-.117.31-.1h4.06c.198.03.345.203.345.405s-.147.374-.346.405h-1.63v6.9c.026.16-.045.32-.18.408-.137.088-.312.088-.447 0-.136-.088-.207-.248-.182-.408v-6.9H23.8c-.11.016-.223-.02-.303-.098-.08-.08-.12-.19-.106-.302zM29.89 352.14v-7.31c-.016-.113.02-.228.102-.31.08-.08.196-.117.31-.1h3.25c.198.03.345.203.345.405s-.147.374-.346.405H30.7v2.44h2c.16-.025.32.046.41.182.087.136.087.31 0 .446-.09.136-.25.207-.41.182h-2v3.25h2.84c.16-.025.32.046.41.182.087.136.087.31 0 .446-.09.136-.25.207-.41.182h-3.25c-.11.013-.218-.025-.296-.103-.078-.078-.116-.187-.103-.297zM39.23 344.43c.2.03.347.203.347.405s-.147.374-.346.405H37.6c-.324-.003-.635.125-.865.354-.23.23-.357.542-.354.866v4.06c0 .674.547 1.22 1.22 1.22h1.62c.16-.025.32.046.41.182.087.136.087.31 0 .446-.09.136-.25.207-.41.182H37.6c-1.104 0-2-.895-2-2v-4.06c0-1.105.896-2 2-2l1.63-.06zM41.26 344.84c-.016-.113.02-.228.102-.31.08-.08.196-.117.31-.1h4.06c.198.03.345.203.345.405s-.147.374-.346.405H44.1v6.9c.026.16-.045.32-.18.408-.137.088-.312.088-.447 0-.136-.088-.207-.248-.182-.408v-6.9h-1.63c-.11.013-.218-.025-.296-.103-.078-.078-.116-.187-.103-.297zM52.62 344.84v5.28c-.08 1.284-1.147 2.284-2.434 2.284-1.287 0-2.353-1-2.435-2.284v-5.28c.032-.2.204-.346.406-.346.202 0 .373.147.405.346v5.28c0 .897.728 1.625 1.626 1.625.897 0 1.625-.728 1.625-1.625v-5.28c-.024-.16.047-.32.183-.408.135-.088.31-.088.446 0 .135.088.206.248.18.408zM57.65 349.13l1.42 2.87c.014.06.014.12 0 .18-.004.224-.185.405-.41.41-.16.01-.306-.083-.37-.23l-1.51-3h-1.72v2.84c.026.16-.045.32-.18.408-.137.088-.312.088-.447 0-.136-.088-.207-.248-.182-.408v-7.31c-.016-.113.02-.228.102-.31.08-.08.196-.117.31-.1h2c.647-.003 1.27.254 1.727.712.457.458.714 1.08.71 1.728.057.975-.532 1.873-1.45 2.21zm-2.6-3.89v3.25h1.62c.898 0 1.626-.728 1.626-1.625s-.728-1.625-1.625-1.625h-1.62zM60.74 352.14v-7.31c-.016-.113.02-.228.102-.31.08-.08.196-.117.31-.1h3.25c.16-.025.32.046.407.182.087.136.087.31 0 .446-.09.136-.25.207-.41.182h-2.85v2.44h2c.16-.025.32.046.41.182.087.136.087.31 0 .446-.09.136-.25.207-.41.182h-2v3.25h2.85c.16-.025.32.046.41.182.087.136.087.31 0 .446-.09.136-.25.207-.41.182h-3.25c-.11.016-.223-.02-.303-.098-.08-.08-.12-.19-.106-.302zM75.52 351l.58.92c.042.066.063.142.06.22-.003.18-.122.334-.294.384-.17.05-.355-.016-.455-.164l-.55-.87-1 .74c-.286.216-.64.326-1 .31-.894 0-1.62-.725-1.62-1.62-.004-.328.094-.65.28-.92l1.22-1.77-.74-1.3c-.17-.262-.26-.568-.26-.88 0-.897.728-1.625 1.626-1.625.897 0 1.625.728 1.625 1.625.005.328-.092.65-.28.92l-.89 1.29 1.31 2.06 1.24-.94c.072-.057.16-.09.25-.09.114-.017.23.02.31.1.08.082.118.197.1.31.007.125-.05.244-.15.32l-1.36.98zm-1.09-.2l-1.16-1.8-1 1.49c-.164.25-.178.572-.037.837.142.265.417.43.718.433.173.005.342-.048.48-.15l1-.81zm-1.13-3.29l.69-1c.196-.287.186-.667-.023-.944-.21-.277-.572-.39-.9-.28-.33.11-.554.417-.556.764 0 .15.04.295.12.42l.67 1.04zM83.48 344.84c-.016-.113.02-.228.102-.31.08-.08.196-.117.31-.1h2.44c1.103 0 2 .895 2 2v4.06c0 1.105-.897 2-2 2h-2.45c-.114.017-.23-.02-.31-.1-.08-.082-.118-.197-.1-.31l.01-7.24zm.81.41v6.5h2c.675 0 1.22-.546 1.22-1.22v-4.06c0-.674-.545-1.22-1.22-1.22h-2zM90 352.14v-7.31c-.016-.113.02-.228.102-.31.08-.08.196-.117.31-.1h3.25c.16-.025.32.046.407.182.087.136.087.31 0 .446-.09.136-.25.207-.41.182h-2.87v2.44h2c.16-.025.32.046.41.182.087.136.087.31 0 .446-.09.136-.25.207-.41.182h-2v3.25h2.84c.16-.025.32.046.41.182.087.136.087.31 0 .446-.09.136-.25.207-.41.182h-3.25c-.105.007-.21-.034-.282-.11-.074-.08-.11-.184-.097-.29zM100.53 350.52c0 1.105-.895 2-2 2-.96.01-1.898-.303-2.66-.89-.11-.073-.178-.197-.18-.33 0-.226.184-.41.41-.41.082.004.16.028.23.07.364.21.738.4 1.12.57.35.116.714.174 1.08.17.324 0 .635-.13.864-.357.228-.23.357-.54.357-.863.02-.47-.25-.9-.68-1.09l-2.28-1.17c-.698-.32-1.133-1.032-1.1-1.8 0-1.105.896-2 2-2 .76-.046 1.518.106 2.2.44.144.068.237.21.24.37 0 .11-.042.213-.12.29-.076.077-.18.12-.29.12-.055.01-.113.01-.17 0-.59-.235-1.222-.357-1.86-.36-.323 0-.633.13-.862.357-.23.23-.357.54-.357.863-.02.46.24.89.66 1.08l2.28 1.17c.695.312 1.136 1.01 1.12 1.77zM102.56 352.55c-.112.017-.227-.02-.308-.1-.08-.082-.118-.197-.1-.31v-7.31c-.026-.16.045-.32.18-.408.136-.088.31-.088.447 0 .135.088.206.248.18.408v7.31c.017.11-.02.224-.098.304-.078.08-.19.12-.3.106zM106.62 351.74h2v-3.25h-.81c-.16.025-.32-.046-.407-.182-.088-.136-.088-.31 0-.446s.248-.207.408-.182h1.22c.114-.017.23.02.31.1.08.082.118.197.1.31v4.06c.018.113-.02.228-.1.31-.08.08-.196.117-.31.1h-2.44c-1.104 0-2-.895-2-2v-4.06c0-1.105.896-2 2-2h2.44c.2.03.347.203.347.405s-.147.374-.346.405h-2.44c-.324-.003-.635.125-.865.354-.23.23-.357.542-.354.866v4.06c-.002.324.126.636.355.866.23.23.54.357.866.354l.03-.07zM115.15 350.58v-5.74c-.024-.16.047-.32.183-.408.135-.088.31-.088.446 0 .135.088.206.248.18.408v7.31c.018.113-.02.228-.1.31-.08.08-.196.117-.31.1-.148.01-.29-.068-.36-.2l-3.3-5.95v5.75c.026.16-.045.32-.18.408-.137.088-.312.088-.447 0-.136-.088-.207-.248-.182-.408v-7.31c-.016-.113.02-.228.102-.31.08-.08.196-.117.31-.1.16 0 .31.093.38.24l3.28 5.9zM75.5.31v247.78c0 .333-.276.667-.83 1h-7.43c-.332 0-.666-.333-1-1v-50.71H1c-.44 0-.66-.27-.66-.83L74.84.31h.66zM65.59 50.2c-32.6 85.673-49.89 131.65-51.87 137.93h52.53V50.2h-.66zM107.95 25.58l7.7 15.4c.167.308.26.65.27 1-.04 1.203-1.006 2.17-2.21 2.21-.86.043-1.655-.45-2-1.24l-8.24-16.48c-.266.014-.533.014-.8 0h-8.85V42c0 1.22-.99 2.21-2.21 2.21S89.4 43.22 89.4 42V2.21c-.067-.604.144-1.207.574-1.637.43-.43 1.033-.64 1.637-.573h11.05c3.514-.047 6.89 1.352 9.34 3.87 2.532 2.462 3.932 5.86 3.87 9.39.034 6.093-2.606 10.2-7.92 12.32zM93.82 4.42V22.1h8.84c2.353.024 4.615-.9 6.28-2.562 1.662-1.663 2.585-3.926 2.56-6.278.025-2.352-.898-4.615-2.56-6.278-1.665-1.663-3.927-2.586-6.28-2.562h-8.84zM17.21 320.86l6.44 12.88c.138.26.214.547.22.84-.036 1.014-.855 1.824-1.87 1.85-.712.045-1.38-.352-1.68-1l-6.89-13.78c-.222.012-.446.012-.67 0H5.39v12.94c.076.51-.095 1.025-.46 1.39-.364.364-.88.535-1.39.46-.51.075-1.025-.096-1.39-.46-.364-.365-.534-.88-.46-1.39v-33.28c-.074-.51.096-1.025.46-1.39.365-.364.88-.535 1.39-.46h9.24c2.956-.052 5.8 1.12 7.86 3.24 2.116 2.062 3.285 4.906 3.23 7.86 0 5.093-2.22 8.527-6.66 10.3zM5.39 303.15v14.79h7.39c4.085 0 7.396-3.31 7.396-7.395 0-4.084-3.31-7.395-7.395-7.395H5.39zM53.45 325.34c0 2.94-1.168 5.762-3.247 7.842-2.08 2.08-4.9 3.248-7.842 3.248-6.124 0-11.09-4.965-11.09-11.09v-14.79c0-6.125 4.966-11.09 11.09-11.09 2.95-.024 5.784 1.136 7.87 3.22 2.084 2.087 3.245 4.92 3.22 7.87v14.79zm-3.7 0v-14.79c-.014-2.99-1.82-5.68-4.58-6.825-2.762-1.146-5.942-.525-8.07 1.575-1.392 1.386-2.15 3.286-2.1 5.25v14.79c.016 2.99 1.82 5.68 4.583 6.825 2.76 1.146 5.94.525 8.068-1.575 1.397-1.385 2.16-3.284 2.11-5.25h-.01zM83 325.34c0 4.484-2.703 8.527-6.846 10.242-4.143 1.716-8.91.768-12.083-2.402-2.118-2.053-3.294-4.89-3.25-7.84v-14.79c.006-4.487 2.71-8.53 6.854-10.25 4.145-1.72 8.917-.777 12.097 2.39 2.116 2.062 3.285 4.906 3.23 7.86v14.79zm-3.7 0v-14.79c0-4.084-3.31-7.395-7.394-7.395s-7.395 3.31-7.395 7.395v14.79c0 4.084 3.312 7.395 7.396 7.395s7.395-3.31 7.395-7.395zM114.46 299.46c.51-.075 1.026.096 1.39.46.365.365.536.88.46 1.39v33.28c0 1.022-.827 1.85-1.85 1.85-1.02 0-1.85-.828-1.85-1.85v-27.2l-7.53 11.29c-.297.688-.975 1.132-1.724 1.132-.75 0-1.427-.444-1.725-1.132l-7.51-11.29v27.2c0 1.022-.827 1.85-1.85 1.85-1.02 0-1.85-.828-1.85-1.85v-33.28c-.074-.51.096-1.025.46-1.39.365-.364.88-.535 1.39-.46.67-.005 1.29.345 1.63.92l9.47 14.2 9.52-14.31c.34-.534.94-.843 1.57-.81zM13.06 285.29c-1.374 1.665-3.44 2.602-5.6 2.54-1.986.03-3.897-.762-5.28-2.19-1.42-1.38-2.21-3.288-2.18-5.27v-9.95c-.03-1.987.763-3.898 2.19-5.28 1.39-1.407 3.295-2.18 5.27-2.14 1.986-.034 3.897.755 5.28 2.18 1.425 1.384 2.213 3.295 2.18 5.28v9.95c-.005.933-.178 1.858-.51 2.73l2.59 2.54c.258.238.406.57.41.92.045.34-.072.68-.315.92-.244.238-.586.35-.924.3-.35.008-.69-.13-.94-.38l-2.17-2.15zm-1.73-1.75l-.89-.83c-.283-.282-.45-.66-.47-1.06-.046-.34.07-.685.313-.928.243-.244.587-.36.928-.312.463.057.883.294 1.17.66.04-.23.06-.465.06-.7v-9.95c.023-1.333-.497-2.617-1.44-3.56-.942-.942-2.226-1.462-3.56-1.44-1.332-.022-2.616.498-3.56 1.44-.94.943-1.46 2.227-1.44 3.56v9.95c-.02 1.333.5 2.617 1.44 3.56.944.942 2.228 1.462 3.56 1.44 1.512.032 2.95-.65 3.88-1.84l.01.01zM34.82 264.2v16.17c0 4.12-3.34 7.46-7.46 7.46s-7.46-3.34-7.46-7.46V264.2c-.033-.335.09-.666.33-.9.242-.234.578-.344.91-.3.342-.047.686.068.93.312.243.243.358.587.31.928v16.17c.013 2.01 1.228 3.817 3.085 4.588 1.857.77 3.994.353 5.426-1.058.948-.927 1.47-2.205 1.44-3.53V264.2c0-.688.558-1.245 1.246-1.245.687 0 1.245.557 1.245 1.245zM57.2 286.59c.045.333-.065.67-.3.91-.233.242-.564.364-.9.33-.55.042-1.05-.316-1.19-.85L53 281.61h-9L42.22 287c-.138.534-.64.892-1.19.85-.34.047-.684-.068-.927-.312-.244-.243-.36-.587-.312-.928 0-.136.02-.27.06-.4l7.4-22.21c.124-.585.643-1.003 1.24-1 .597-.01 1.113.413 1.22 1l7.42 22.27c.038.103.062.21.07.32zm-8.7-18.43l-3.66 11h7.31l-3.65-11zM62.17 264.2c-.033-.337.09-.67.333-.905.245-.234.583-.343.918-.295h7.46c1.656-.02 3.25.63 4.42 1.8s1.82 2.765 1.8 4.42v12.43c.004 1.65-.65 3.234-1.818 4.4-1.167 1.168-2.75 1.823-4.4 1.82h-7.46c-.342.047-.686-.068-.93-.312-.243-.243-.358-.587-.31-.928l-.01-22.43zm2.49 1.24v19.9h6.22c.99 0 1.94-.393 2.638-1.092.7-.7 1.093-1.65 1.093-2.638v-12.43c0-.99-.392-1.938-1.092-2.638-.7-.7-1.648-1.092-2.637-1.092l-6.22-.01zM92.51 277.35l4.33 8.65c.095.176.146.37.15.57-.025.674-.565 1.214-1.24 1.24-.485.027-.937-.253-1.13-.7L90 277.86h-5.45v8.7c0 .688-.557 1.245-1.244 1.245-.688 0-1.245-.557-1.245-1.245V264.2c-.033-.337.09-.67.333-.905.245-.234.583-.343.918-.295h6.22c1.977-.01 3.875.766 5.277 2.158 1.402 1.393 2.19 3.286 2.194 5.262 0 3.427-1.496 5.737-4.49 6.93zm-8-11.91v9.95h5c1.897.19 3.737-.714 4.745-2.332 1.007-1.618 1.007-3.668 0-5.286-1.008-1.618-2.848-2.522-4.744-2.332h-5zM116.89 280.37c0 4.12-3.34 7.46-7.46 7.46s-7.46-3.34-7.46-7.46v-9.95c0-4.12 3.34-7.46 7.46-7.46s7.46 3.34 7.46 7.46v9.95zm-2.49 0v-9.95c.19-1.896-.713-3.736-2.33-4.744-1.62-1.007-3.67-1.007-5.287 0-1.618 1.008-2.522 2.848-2.332 4.744v9.95c-.19 1.896.715 3.736 2.333 4.744 1.618 1.007 3.668 1.007 5.286 0 1.617-1.008 2.52-2.848 2.33-4.744zM110.87 240.35c-2.656 0-5.052 1.6-6.07 4.056-1.016 2.455-.454 5.28 1.425 7.16 1.88 1.88 4.705 2.44 7.16 1.424 2.455-1.017 4.056-3.413 4.056-6.07 0-3.63-2.94-6.57-6.57-6.57zm-1.13 4.31h-1.13v4.8c0 .155-.124.28-.28.28-.154 0-.28-.125-.28-.28v-4.8h-1.13c-.154 0-.28-.125-.28-.28 0-.155.126-.28.28-.28h2.82c.156 0 .28.125.28.28 0 .155-.124.28-.28.28zm5.36 4.8c0 .155-.124.28-.28.28-.154 0-.28-.125-.28-.28v-4.15l-1.15 1.69c-.046.105-.15.172-.264.172-.115 0-.22-.067-.265-.172l-1.15-1.72v4.15c0 .155-.124.28-.28.28-.154 0-.28-.125-.28-.28v-5.08c-.01-.077.017-.154.072-.21.055-.054.132-.08.21-.07.1 0 .196.053.25.14l1.44 2.17 1.45-2.18c.052-.08.143-.125.24-.12.076-.01.153.016.208.07.055.056.08.133.07.21l.01 5.1z"/></g></svg>