<?xml version="1.0" standalone="no"?>
<!DOCTYPE svg PUBLIC "-//W3C//DTD SVG 1.1//EN" "http://www.w3.org/Graphics/SVG/1.1/DTD/svg11.dtd" >
<svg xmlns="http://www.w3.org/2000/svg" xmlns:xlink="http://www.w3.org/1999/xlink" version="1.1">
<metadata></metadata>
<defs>
<font id="catamaranregular" horiz-adv-x="1083" >
<font-face units-per-em="2048" ascent="1577" descent="-471" />
<missing-glyph horiz-adv-x="477" />
<glyph horiz-adv-x="0" />
<glyph horiz-adv-x="0" />
<glyph unicode=" "  horiz-adv-x="477" />
<glyph unicode="&#x09;" horiz-adv-x="477" />
<glyph unicode="&#xa0;" horiz-adv-x="477" />
<glyph unicode="!" horiz-adv-x="346" d="M61 111q0 -45 34 -78t79 -33q47 0 79 33t32 78t-33 76.5t-78 31.5t-79 -31.5t-34 -76.5zM82 1438l35 -979l116 -58l33 1037h-184z" />
<glyph unicode="&#x22;" horiz-adv-x="671" d="M41 1067l43 -76q86 45 147.5 142.5t61.5 195.5q0 57 -34 93t-79 36t-78.5 -33.5t-33.5 -76.5q0 -41 27.5 -75t66.5 -36q-6 -53 -36 -92t-85 -78zM360 1067l43 -76q86 45 146.5 142.5t60.5 195.5q0 57 -32.5 93t-77.5 36t-78 -33.5t-33 -76.5q0 -41 27.5 -75t66.5 -36 q-8 -53 -37.5 -92t-85.5 -78z" />
<glyph unicode="#" horiz-adv-x="1062" d="M61 393l19 -125h119l-62 -264l133 -10l66 274h270l-61 -264l133 -10l63 274h260l-16 125h-215l61 260h170l-16 125h-123l62 258l-138 2l-59 -260h-272l63 258l-135 2l-61 -260h-261l19 -125h209l-60 -260h-168zM365 393l63 260h268l-61 -260h-270z" />
<glyph unicode="$" horiz-adv-x="1050" d="M88 1075q0 113 70.5 200t195.5 126v219l117 20v-217l61 2q25 0 70 -4v201l119 20v-241q86 -23 168 -62l-55 -125q-76 35 -138.5 53.5t-152.5 18.5q-135 0 -216 -55t-81 -154q0 -74 40 -126t113.5 -95t216.5 -108q129 -59 208 -114.5t120 -126.5t41 -169 q0 -115 -68.5 -202t-195.5 -130v-242h-119v218q-47 -8 -108 -9h-23v-209h-117v224q-74 12 -140.5 33.5t-102.5 46.5l39 127q66 -33 158.5 -58.5t183.5 -25.5q160 0 246.5 62.5t86.5 162.5q0 72 -41 126t-117.5 98t-209.5 102q-190 82 -279.5 178t-89.5 235z" />
<glyph unicode="%" horiz-adv-x="1765" d="M68 1090q0 -162 90 -254.5t235 -92.5q88 0 162 43t118 121t44 183q0 162 -91 255t-235 93q-88 0 -161.5 -43t-117.5 -122t-44 -183zM219 1092q0 109 51.5 164t120.5 55q74 0 123 -55.5t49 -165.5q0 -111 -50 -165.5t-120 -54.5q-76 0 -125 55.5t-49 166.5zM489 0l158 -8 l627 1454l-158 8zM1053 346q0 -162 91 -254t234 -92q88 0 162 43t117 121t43 182q0 162 -90 254t-232 92q-90 0 -164.5 -43t-117.5 -120.5t-43 -182.5zM1204 348q0 111 51.5 165t122.5 54q72 0 121 -56t49 -165t-50 -165t-120 -56q-74 0 -124 56.5t-50 166.5z" />
<glyph unicode="&#x26;" horiz-adv-x="1368" d="M88 430q0 -145 68.5 -247.5t188.5 -155t269 -54.5q279 0 437 170l166 -151l86 112l-168 154q88 166 100 410l-131 51q-16 -215 -88 -357l-404 379q-117 109 -161.5 173.5t-44.5 154.5q0 88 62 153.5t165 65.5q78 0 128 -15.5t89 -33.5t53 -25l58 125q-82 41 -158 63.5 t-170 22.5q-119 0 -207 -50t-134 -134t-46 -184q0 -117 63 -209q-98 -66 -158.5 -177.5t-62.5 -240.5zM252 434q2 102 42 183t109 126q20 -25 76 -75l459 -420q-117 -133 -324 -133q-150 0 -256 82t-106 237z" />
<glyph unicode="'" horiz-adv-x="354" d="M41 1067l43 -76q86 45 147.5 142.5t61.5 195.5q0 57 -34 93t-79 36t-78.5 -33.5t-33.5 -76.5q0 -41 27.5 -75t66.5 -36q-6 -53 -36 -92t-85 -78z" />
<glyph unicode="(" horiz-adv-x="542" d="M102 655q0 -182 63.5 -378.5t184.5 -354.5l131 47q-57 64 -108 188t-82 262t-31 238q0 98 31 233.5t82 259.5t108 189l-131 47q-123 -160 -185.5 -355t-62.5 -376z" />
<glyph unicode=")" horiz-adv-x="542" d="M61 -31l132 -47q121 166 184 360.5t63 372.5q0 182 -63.5 378t-183.5 353l-132 -47q56 -63 107 -187t83 -261t32 -236q0 -98 -32 -235t-83 -261t-107 -190z" />
<glyph unicode="*" horiz-adv-x="718" d="M20 1298l242 -47l-170 -239l96 -72l172 231l172 -231l95 72l-168 239l239 47l-34 107l-240 -51l-2 227h-125l-4 -227l-238 51z" />
<glyph unicode="+" horiz-adv-x="1097" d="M61 625l17 -129h397v-480l150 -8v488h411l-20 129h-391v462l-150 7v-469h-414z" />
<glyph unicode="," horiz-adv-x="354" d="M41 -170l43 -76q88 45 148.5 142.5t60.5 195.5q0 57 -32 92t-81 35q-45 0 -77.5 -32.5t-32.5 -75.5q0 -41 28.5 -74t65.5 -35q-4 -53 -35 -92t-88 -80z" />
<glyph unicode="-" horiz-adv-x="655" d="M61 625l19 -129h514l-16 129h-517z" />
<glyph unicode="." horiz-adv-x="344" d="M61 111q0 -47 33 -79t80 -32q45 0 77 33t32 78t-32 76.5t-77 31.5q-47 0 -80 -31.5t-33 -76.5z" />
<glyph unicode="/" horiz-adv-x="823" d="M20 0l156 -8l627 1454l-156 8z" />
<glyph unicode="0" horiz-adv-x="1214" d="M68 588q0 -176 69.5 -316.5t192.5 -219.5t278 -79q154 0 277 80t192.5 221.5t69.5 317.5q0 170 -69.5 305t-192.5 212t-277 77q-156 0 -278.5 -77t-192 -213t-69.5 -308zM227 594q0 131 49.5 234.5t136.5 162t195 58.5q109 0 196 -59.5t135 -166t48 -239.5 q0 -135 -48 -243t-135 -168t-196 -60t-195.5 62.5t-136 172t-49.5 246.5z" />
<glyph unicode="1" horiz-adv-x="638" d="M20 991l72 -131l236 111v-971h164v1159h-109z" />
<glyph unicode="2" horiz-adv-x="980" d="M51 0h889l-27 127h-647l305 256q166 139 236 247.5t70 225.5q0 152 -116 241t-312 89q-119 0 -206 -30t-165 -77l47 -131q88 49 155.5 77t165.5 28q127 0 200 -54.5t73 -158.5q0 -86 -53.5 -162t-180.5 -184l-434 -377v-117z" />
<glyph unicode="3" horiz-adv-x="948" d="M0 -45q88 -47 193.5 -79t209.5 -32q139 0 246 50.5t165 137.5t58 193q0 123 -68.5 212t-172.5 114q92 33 154.5 113.5t62.5 183.5q0 90 -47 168t-140.5 124t-226.5 46q-208 0 -407 -127l79 -107q61 43 143.5 73t178.5 30q117 0 187.5 -61.5t70.5 -147.5 q0 -109 -92 -173.5t-250 -64.5h-86l25 -121h49q195 0 287 -69.5t92 -196.5q0 -74 -43 -130t-112 -86t-146 -30q-100 0 -173 22.5t-153 72.5z" />
<glyph unicode="4" horiz-adv-x="1073" d="M20 276l23 -133h614v-284h162v284h195l18 133h-213v893h-112zM195 276l462 611v-611h-462z" />
<glyph unicode="5" horiz-adv-x="1015" d="M68 -45q88 -47 192.5 -79t206.5 -32q152 0 260.5 57.5t164.5 156t56 216.5q-2 182 -110.5 299t-323.5 117q-51 0 -107.5 -17.5t-105.5 -47.5l18 401h533l18 133h-698l-33 -700h156q37 37 97.5 68.5t131.5 31.5q119 0 190.5 -75.5t71.5 -209.5q0 -135 -85 -216t-226 -81 q-98 0 -171 23t-154 70z" />
<glyph unicode="6" horiz-adv-x="1046" d="M68 524q0 221 110.5 389t280.5 265.5t346 119.5l37 -127q-125 -14 -251 -74.5t-222.5 -168t-128.5 -250.5q137 115 303 115q133 0 232 -53.5t152.5 -145.5t53.5 -205q0 -117 -56.5 -212t-155.5 -149.5t-222 -54.5q-137 0 -245.5 63.5t-171 188.5t-62.5 299zM225 514 q8 -197 91 -300t225 -103q129 0 207.5 76.5t78.5 191.5q0 129 -77.5 207t-210.5 78q-84 0 -166 -42t-148 -108z" />
<glyph unicode="7" horiz-adv-x="901" d="M20 1159l21 -133h639l-426 -1120l154 -47l452 1228l-53 72h-787z" />
<glyph unicode="8" horiz-adv-x="1056" d="M68 354q0 -106 54 -192t158.5 -137.5t249.5 -51.5q143 0 248 52.5t159 139.5t54 189q0 80 -36.5 152t-98 121t-131.5 67q88 41 149.5 116t61.5 169q0 90 -48 167t-139.5 124t-218.5 47t-219 -47t-140 -124t-48 -167q0 -94 59.5 -170t151.5 -115q-70 -16 -131.5 -69.5 t-98 -126t-36.5 -144.5zM225 350q0 111 78 187.5t227 95.5q146 -19 225 -95.5t79 -187.5q0 -109 -89.5 -176.5t-214.5 -67.5q-131 0 -218 68t-87 176zM279 975q0 88 64.5 149.5t180.5 61.5q121 0 188.5 -60.5t67.5 -150.5q0 -82 -66.5 -144.5t-183.5 -80.5 q-119 18 -185 80.5t-66 144.5z" />
<glyph unicode="9" horiz-adv-x="1046" d="M68 770q0 119 56 213t155.5 148.5t222.5 54.5q137 0 245.5 -63.5t171 -188.5t62.5 -299q0 -221 -110.5 -389t-280.5 -265.5t-346 -119.5l-37 127q125 14 251 75.5t222 169t129 250.5q-143 -117 -303 -116q-135 0 -234.5 53t-151.5 145t-52 205zM221 780q0 -127 77 -204.5 t210 -77.5q86 0 168 42t147 107q-8 197 -91 300.5t-224 103.5q-129 0 -208 -78t-79 -193z" />
<glyph unicode=":" horiz-adv-x="344" d="M61 166q0 -45 33 -78t78 -33q47 0 79 33t32 78q0 47 -32 80t-79 33q-45 0 -78 -33t-33 -80zM61 823q0 -45 33 -77.5t78 -32.5t78 32.5t33 77.5t-33 79t-78 34t-78 -34t-33 -79z" />
<glyph unicode=";" horiz-adv-x="356" d="M41 -115l43 -75q88 45 148.5 142t60.5 193q0 59 -32 96.5t-81 37.5q-45 0 -77.5 -34t-32.5 -79q0 -43 27.5 -74t66.5 -35q-4 -53 -35 -92t-88 -80zM72 823q0 -45 32.5 -77.5t79.5 -32.5q45 0 78 32.5t33 77.5t-33 79t-78 34q-47 0 -79.5 -34t-32.5 -79z" />
<glyph unicode="&#x3c;" horiz-adv-x="673" d="M61 451l525 -412l47 125l-418 338l418 338l-47 123l-525 -410v-102z" />
<glyph unicode="=" horiz-adv-x="1028" d="M61 393l19 -125h887l-17 125h-889zM61 778l19 -125h887l-17 125h-889z" />
<glyph unicode="&#x3e;" horiz-adv-x="673" d="M41 164l47 -125l524 412v102l-524 410l-47 -123l418 -338z" />
<glyph unicode="?" horiz-adv-x="843" d="M20 1315l21 -141q92 63 171 93.5t173 30.5q117 0 176.5 -50t59.5 -156t-97.5 -196.5t-259.5 -141.5l17 -402l118 -47l21 367q164 76 263 191.5t99 230.5q0 158 -98 251t-293 93q-110 0 -191 -30t-180 -93zM225 111q0 -47 32 -79t77 -32q47 0 79.5 33t32.5 78t-32.5 76.5 t-79.5 31.5q-45 0 -77 -31.5t-32 -76.5z" />
<glyph unicode="@" horiz-adv-x="1564" d="M68 442q0 -190 93 -340.5t244.5 -233.5t321.5 -83q233 0 399 86l-41 121q-66 -35 -156.5 -53.5t-178.5 -18.5q-145 0 -266.5 63.5t-192 183.5t-70.5 277q0 193 88 341.5t234.5 228.5t316.5 80q150 0 263.5 -61.5t175 -171t61.5 -251.5q0 -162 -55.5 -258t-141.5 -96 q-43 0 -74.5 28.5t-25.5 90.5l49 413l-51 62h-150q-121 0 -226 -51t-169.5 -145.5t-64.5 -215.5q0 -141 86 -223t254 -82q49 0 100 18.5t92 45.5q59 -66 166 -66q162 0 256 127t94 367q0 170 -81 306t-225 213t-329 77q-240 0 -421 -104.5t-278 -283t-97 -391.5zM602 438 q0 92 42 160t112.5 103.5t154.5 35.5h64l-45 -350q-2 -10 -2 -29q0 -16 4 -36q-20 -31 -58 -48.5t-86 -17.5q-94 0 -140 54.5t-46 127.5z" />
<glyph unicode="A" horiz-adv-x="1247" d="M20 0h158l146 395h587l156 -409l160 26l-535 1381h-155zM369 526l243 654l252 -654h-495z" />
<glyph unicode="B" horiz-adv-x="1208" d="M190 0h437q233 0 374.5 94t141.5 297q0 135 -71 223t-198 131q86 49 139.5 118t53.5 161q0 199 -129 284t-360 85h-388v-1393zM352 135v520h293q158 0 246 -65.5t88 -202.5q0 -252 -354 -252h-273zM352 786v469h219q166 0 249 -49t83 -184q0 -125 -99 -179.5t-263 -56.5 h-189z" />
<glyph unicode="C" horiz-adv-x="1140" d="M88 688q0 -197 74 -360.5t219 -260t350 -96.5q88 0 193.5 23.5t169.5 56.5l-62 123q-63 -29 -136 -45t-171 -16q-143 0 -249.5 76.5t-162 208.5t-55.5 292q0 170 63.5 305t175 211t246.5 76q96 0 155.5 -13.5t141.5 -43.5l52 116q-60 37 -166.5 58.5t-182.5 21.5 q-197 0 -346 -96t-229 -263t-80 -374z" />
<glyph unicode="D" horiz-adv-x="1374" d="M190 0h476q198 0 338.5 92t212 251t71.5 362q0 307 -151.5 497.5t-458.5 190.5h-488v-1393zM352 135v1120h334q217 0 328.5 -151.5t111.5 -401.5q0 -174 -57 -302t-160.5 -196.5t-240.5 -68.5h-316z" />
<glyph unicode="E" horiz-adv-x="1071" d="M190 0h840l-20 129h-658v522h500l-18 121h-482v500h617l-19 121h-760v-1393z" />
<glyph unicode="F" horiz-adv-x="985" d="M190 0h162v643h479l-18 121h-461v508h592l-20 121h-734v-1393z" />
<glyph unicode="G" horiz-adv-x="1284" d="M88 688q0 -203 86 -365.5t245 -257t367 -94.5q102 0 213 28t177 69l2 649h-449l-14 -121h307v-442q-115 -41 -238 -41q-150 0 -269.5 70.5t-188 201.5t-68.5 305q0 182 77 316.5t203 205t271 70.5q94 0 153.5 -13.5t141.5 -43.5l51 116q-59 37 -166.5 58.5t-183.5 21.5 q-201 0 -365 -93t-258 -260t-94 -380z" />
<glyph unicode="H" horiz-adv-x="1357" d="M190 0h162v637h654v-637h161v1393h-161v-625h-654v635l-162 -10v-1393z" />
<glyph unicode="I" horiz-adv-x="540" d="M190 0h162v1393h-162v-1393z" />
<glyph unicode="J" horiz-adv-x="522" d="M20 -96l64 -113q106 33 163.5 71t82 94t24.5 144v1293h-161v-1258q0 -78 -14.5 -116.5t-48.5 -63.5t-110 -51z" />
<glyph unicode="K" horiz-adv-x="1247" d="M190 0v1393h162v-676l672 706l111 -96l-519 -543l611 -784h-195l-522 670l-158 -166v-504h-162z" />
<glyph unicode="L" horiz-adv-x="1036" d="M190 0h826l-17 129h-647v1264h-162v-1393z" />
<glyph unicode="M" horiz-adv-x="1562" d="M190 0h162v1053l412 -594l55 10l389 580v-1049h164v1393h-102l-484 -711l-499 711h-97v-1393z" />
<glyph unicode="N" horiz-adv-x="1433" d="M190 0h162v1094l54 -93l708 -1001h131v1393h-164v-1080l-84 138l-678 942h-129v-1393z" />
<glyph unicode="O" horiz-adv-x="1484" d="M88 690q0 -207 84 -370.5t231.5 -256t333.5 -92.5q188 2 340 98.5t237 263.5t85 374t-84 370.5t-233.5 255.5t-336.5 92q-188 -4 -337.5 -100t-234.5 -262t-85 -373zM258 692q0 170 63.5 304t175 211t253.5 77q137 0 244.5 -74.5t169 -207t61.5 -297.5 q0 -170 -63.5 -305.5t-175.5 -211t-253 -75.5q-137 0 -244.5 74.5t-169 206.5t-61.5 298z" />
<glyph unicode="P" horiz-adv-x="1150" d="M190 0h162v526h197q233 0 382.5 112t151.5 329q0 219 -139 322.5t-375 103.5h-379v-1393zM352 664v591h219q170 0 258.5 -66.5t88.5 -227.5q-4 -152 -102.5 -224.5t-260.5 -72.5h-203z" />
<glyph unicode="Q" horiz-adv-x="1484" d="M88 690q0 207 85 373t234.5 262t337.5 100q186 0 336 -92t234 -256t84 -370q0 -162 -53.5 -300.5t-149.5 -238.5l129 -125l-96 -84l-131 125q-162 -111 -361 -113q-186 0 -333.5 92.5t-231.5 256t-84 370.5zM258 692q0 -166 61.5 -298t169 -206.5t244.5 -74.5h4 q138 0 248 75l-207 195l113 84l192 -188q68 80 105 189.5t37 236.5q0 166 -61.5 298t-169 206.5t-244.5 74.5q-141 0 -253 -77t-175.5 -211t-63.5 -304z" />
<glyph unicode="R" horiz-adv-x="1212" d="M190 0h162v571h197q72 0 145 9l320 -580h178l-354 623q113 47 178 138t67 226q0 209 -139 307.5t-375 98.5h-379v-1393zM352 705v550h219q166 0 256.5 -60t90.5 -214q-2 -147 -101.5 -211.5t-261.5 -64.5h-203z" />
<glyph unicode="S" horiz-adv-x="1050" d="M88 1075q0 -139 89 -235.5t280 -177.5q133 -57 209.5 -101.5t117.5 -98.5t41 -126q0 -100 -87 -162.5t-246 -62.5q-90 0 -183.5 25.5t-158.5 58.5l-39 -127q55 -37 173.5 -66t209.5 -29q152 0 263 47.5t169.5 129t58.5 188.5q0 98 -41 169t-120 126t-208 115 q-143 66 -216.5 108.5t-113.5 95t-40 125.5q0 98 81 153.5t216 55.5q90 0 152.5 -18.5t138.5 -53.5l55 125q-72 37 -165 61.5t-192 24.5q-133 0 -234 -46t-155.5 -125.5t-54.5 -178.5z" />
<glyph unicode="T" horiz-adv-x="1153" d="M20 1266h467v-1266h164v1266h482l-19 127h-1094v-127z" />
<glyph unicode="U" horiz-adv-x="1396" d="M170 494q0 -150 64.5 -266.5t184.5 -184.5t279 -68q160 0 280 67t184.5 185.5t64.5 266.5v899h-164v-881q0 -178 -98.5 -288.5t-266.5 -110.5q-166 0 -266 110.5t-100 288.5v881h-162v-899z" />
<glyph unicode="V" horiz-adv-x="1247" d="M20 1382l535 -1382h156l516 1393h-158l-434 -1178l-455 1192z" />
<glyph unicode="W" horiz-adv-x="1755" d="M20 1382l160 25l322 -1186l301 1172h158l315 -1172l303 1172h156l-381 -1393h-156l-319 1151l-301 -1151h-156z" />
<glyph unicode="X" horiz-adv-x="1206" d="M20 0h175l411 588l375 -588h176l-440 682l469 711h-174l-379 -594l-424 628l-135 -67l446 -655z" />
<glyph unicode="Y" horiz-adv-x="1153" d="M20 1360l461 -801v-559h162l2 567l488 826h-175l-395 -674l-391 706z" />
<glyph unicode="Z" horiz-adv-x="1150" d="M47 129l16 -129h1022l-14 129h-846l879 1137l-14 127h-988l25 -127h797z" />
<glyph unicode="[" horiz-adv-x="606" d="M205 -180h381l-23 119h-205v1366h205l23 120h-381v-1605z" />
<glyph unicode="\" horiz-adv-x="823" d="M20 1446l627 -1454l156 8l-625 1454z" />
<glyph unicode="]" horiz-adv-x="604" d="M20 -180h379v1605h-379l23 -120h201v-1366h-201z" />
<glyph unicode="^" horiz-adv-x="864" d="M20 293h162l250 369l250 -369h162l-346 506h-131z" />
<glyph unicode="_" horiz-adv-x="901" d="M61 129l19 -129h760l-19 129h-760z" />
<glyph unicode="`" horiz-adv-x="329" d="M20 1526l181 -320l108 31l-110 289h-179z" />
<glyph unicode="a" horiz-adv-x="999" d="M102 283q0 -137 87 -223.5t253 -86.5q78 0 160 38t137 89l21 -100h121v686q0 96 -49.5 172t-137.5 119t-200 43q-68 0 -171.5 -24.5t-156.5 -61.5l47 -123q74 33 136.5 50.5t150.5 17.5q113 0 165 -63.5t52 -174.5v-55h-256q-162 0 -260.5 -80t-98.5 -223zM252 283 q0 82 54 138t151 56h262v-225q-55 -66 -128 -107t-153 -41q-92 0 -139 53.5t-47 125.5z" />
<glyph unicode="b" d="M150 0v1425l161 21v-502q55 37 116.5 56.5t115.5 19.5q221 0 347 -144.5t126 -381.5q0 -152 -58.5 -270t-166 -184.5t-252.5 -66.5q-61 0 -130 26t-128 73l-35 -72h-96zM311 199q49 -43 104.5 -65.5t127.5 -22.5q147 0 227 106.5t82 274.5q0 176 -79 283.5t-228 107.5 q-74 0 -129.5 -22.5t-104.5 -69.5v-592z" />
<glyph unicode="c" horiz-adv-x="937" d="M68 500q0 -154 57 -274t165.5 -186.5t256.5 -66.5q68 0 166 26t159 64l-51 117q-71 -37 -128.5 -53t-147.5 -16q-150 0 -232 108.5t-82 282.5q2 166 88.5 273.5t233.5 107.5q86 0 140.5 -16.5t135.5 -51.5l50 115q-59 39 -156.5 64.5t-165.5 25.5q-147 0 -258 -66.5 t-171 -184.5t-60 -269z" />
<glyph unicode="d" horiz-adv-x="1085" d="M68 502q0 152 58 269.5t165.5 183t253.5 65.5q53 0 113.5 -20.5t115.5 -55.5v481l164 19v-1444h-98l-31 76q-61 -49 -133 -76t-135 -27q-221 0 -347 144.5t-126 384.5zM231 504q0 -178 79 -285.5t229 -107.5q73 0 129.5 23.5t105.5 72.5v588q-98 88 -233 88 q-147 0 -227.5 -105.5t-82.5 -273.5z" />
<glyph unicode="e" horiz-adv-x="1021" d="M68 500q0 -240 133 -383.5t387 -143.5q102 0 186 28t168 75l-51 119q-92 -45 -158.5 -65.5t-146.5 -20.5q-176 0 -261 97t-92 265h721q0 246 -103 397.5t-321 151.5q-143 0 -248.5 -66.5t-159.5 -184.5t-54 -269zM238 582q14 139 86.5 220t199.5 81q236 0 271 -301h-557z " />
<glyph unicode="f" horiz-adv-x="612" d="M33 977l2 -123h149v-854h162v854h236l-54 123h-182v145q0 170 139 170q20 0 47 -6t43 -14l37 131q-27 14 -67.5 24.5t-81.5 10.5q-129 0 -204 -83t-75 -222v-156h-151z" />
<glyph unicode="g" horiz-adv-x="1077" d="M68 502q0 152 58 269.5t165.5 183t253.5 65.5q61 0 130.5 -26.5t129.5 -71.5l35 71h98v-1102q0 -104 -53.5 -186t-155.5 -129t-240 -47q-70 0 -177 25.5t-169 64.5l50 119q80 -39 142 -57.5t148 -18.5q129 0 210 59.5t81 172.5v157q-55 -37 -117.5 -57.5t-115.5 -20.5 q-221 0 -347 144.5t-126 384.5zM231 504q0 -178 79 -285.5t229 -107.5q73 0 129.5 23.5t105.5 72.5v588q-98 88 -233 88q-147 0 -227.5 -105.5t-82.5 -273.5z" />
<glyph unicode="h" horiz-adv-x="1103" d="M150 0v1425l161 21v-580q72 70 171.5 114t189.5 44q157 0 234 -95t77 -255v-672h-162v649q0 111 -41 172.5t-137 61.5q-74 0 -167 -51.5t-165 -128.5v-705h-161z" />
<glyph unicode="i" horiz-adv-x="419" d="M100 1300q0 -47 31 -77.5t78 -30.5q45 0 77.5 31.5t32.5 76.5t-32.5 78t-77.5 33q-47 0 -78 -31.5t-31 -79.5zM129 0h164v993h-164v-993z" />
<glyph unicode="j" horiz-adv-x="466" d="M0 -319q70 25 102.5 55.5t43.5 75.5q8 38 8 102v25v1054h163v-1054q0 -113 -17 -178.5t-71.5 -112.5t-165.5 -84zM125 1300q0 47 31.5 79t79.5 32q45 0 77.5 -32.5t32.5 -78.5q0 -45 -32.5 -76.5t-77.5 -31.5q-48 0 -79.5 30.5t-31.5 77.5z" />
<glyph unicode="k" horiz-adv-x="966" d="M150 0h161v373l138 137l327 -510h191l-410 616l303 302l-98 102l-451 -453v879l-161 -21v-1425z" />
<glyph unicode="l" horiz-adv-x="458" d="M150 0h161v1446l-161 -21v-1425z" />
<glyph unicode="m" horiz-adv-x="1675" d="M129 0v993h121l26 -141q72 74 171.5 123t187.5 49q100 0 166.5 -45t99.5 -127q72 74 170 123t186 49q152 0 225.5 -95t73.5 -255v-672h-161v649q0 111 -37 172.5t-127 61.5q-63 0 -146.5 -46t-154.5 -118q2 -14 2 -47v-672h-162v649q0 111 -37 172.5t-127 61.5 q-66 0 -155 -51.5t-160 -128.5v-705h-162z" />
<glyph unicode="n" d="M129 0h162v705q72 78 165 129t167 51q96 0 137 -61.5t41 -172.5v-649h162v672q0 160 -77 255t-235 95q-94 0 -198.5 -49t-176.5 -123l-26 141h-121v-993z" />
<glyph unicode="o" horiz-adv-x="1097" d="M68 500q2 152 60 269.5t169 184t258 66.5q223 0 350 -142.5t127 -383.5q0 -152 -60.5 -270t-173 -184.5t-261.5 -66.5q-143 0 -250 66.5t-163 186.5t-56 274zM231 502q0 -174 82 -282.5t232 -108.5q147 0 233 107.5t88 273.5q0 176 -82 283.5t-231 107.5 q-147 0 -233.5 -107.5t-88.5 -273.5z" />
<glyph unicode="p" horiz-adv-x="1075" d="M141 -449v1442h97l34 -69q61 45 131 70.5t132 25.5q221 0 347 -144.5t126 -381.5q0 -152 -58.5 -270t-166 -184.5t-253.5 -66.5q-109 0 -227 76v-475zM303 199q49 -43 104.5 -65.5t127.5 -22.5q147 0 227 106.5t82 274.5q0 176 -79 283.5t-228 107.5q-74 0 -129.5 -22.5 t-104.5 -69.5v-592z" />
<glyph unicode="q" horiz-adv-x="1077" d="M68 502q0 152 58 269.5t165.5 183t253.5 65.5q61 0 129.5 -25.5t128.5 -70.5l37 69h98v-1421l-164 -21v500q-55 -37 -117.5 -57.5t-115.5 -20.5q-221 0 -347 144.5t-126 384.5zM231 504q0 -178 79 -285.5t229 -107.5q73 0 129.5 23.5t105.5 72.5v588q-98 88 -233 88 q-147 0 -227.5 -105.5t-82.5 -273.5z" />
<glyph unicode="r" horiz-adv-x="663" d="M129 0h162v684q70 72 170 126t182 54l-39 129q-72 0 -166 -51t-162 -108l-51 159h-96v-993z" />
<glyph unicode="s" horiz-adv-x="860" d="M72 739q0 -109 90 -178t233 -117q246 -82 246 -192q0 -70 -65.5 -109t-178.5 -39q-129 0 -268 70l-51 -117q55 -39 151.5 -61.5t165.5 -22.5q193 0 296.5 76t103.5 213q0 193 -334 316q-111 37 -170.5 75.5t-61.5 91.5q0 63 58.5 103.5t150.5 40.5q76 0 135.5 -18.5 t126.5 -49.5l52 111q-53 39 -146.5 63.5t-163.5 24.5q-172 0 -271 -75t-99 -206z" />
<glyph unicode="t" horiz-adv-x="655" d="M33 977l2 -123h143v-596q0 -139 75 -214t204 -75q78 0 151 35l-37 127q-51 -20 -90 -20q-72 0 -106.5 45t-34.5 125v573h233l-53 123h-180v299l-162 -45v-254h-145z" />
<glyph unicode="u" d="M121 322q0 -160 76.5 -255.5t234.5 -95.5q94 0 198.5 49.5t176.5 122.5l27 -143h120v995h-161v-704q-72 -78 -165 -129t-167 -51q-96 0 -137 61t-41 172v649h-162v-671z" />
<glyph unicode="v" horiz-adv-x="933" d="M20 965l365 -965h158l370 993h-163l-285 -774l-297 807z" />
<glyph unicode="w" horiz-adv-x="1376" d="M20 963l289 -963h158l211 756l225 -756h160l293 993h-164l-209 -762l-221 762h-164l-209 -762l-221 793z" />
<glyph unicode="x" horiz-adv-x="921" d="M20 0h183l243 383l246 -383h178l-311 477l342 516h-178l-254 -393l-268 422l-146 -61l299 -457z" />
<glyph unicode="y" horiz-adv-x="933" d="M20 963l369 -957l-61 -170q-23 -61 -69 -93t-142 -77l49 -117q109 23 191.5 88.5t117.5 157.5l438 1198h-163l-285 -768l-301 799z" />
<glyph unicode="z" horiz-adv-x="886" d="M43 84l20 -84h777l-21 127h-577l602 780l-8 86h-744l39 -129h504z" />
<glyph unicode="{" horiz-adv-x="557" d="M61 578h74q55 0 98 -41t43 -105q0 -57 -34 -143q-37 -86 -37 -148q0 -227 278 -227h54l-15 121h-49q-61 0 -95 27.5t-34 68.5q0 51 37 139q37 86 37 144q0 78 -30 136t-85 87q62 27 88.5 78t26.5 137q0 59 -37 145t-37 138q0 39 33 66.5t96 27.5h49l15 121h-54 q-135 0 -205.5 -55.5t-70.5 -159.5q0 -68 33 -146q31 -82 30 -149q0 -68 -40 -112t-95 -44h-74v-106z" />
<glyph unicode="|" horiz-adv-x="540" d="M190 0l160 -12v1456l-160 12v-1456z" />
<glyph unicode="}" horiz-adv-x="555" d="M20 -88h54q135 0 205.5 56.5t70.5 162.5q0 66 -33 145q-33 80 -32 148q0 68 40 113t95 45h74v104h-74q-55 0 -98 42t-43 103q0 59 36 146q37 84 37 145q0 227 -278 228h-54l15 -121h49q61 0 95 -27.5t34 -68.5q0 -53 -39 -140q-37 -86 -37 -141q0 -80 31 -138.5t88 -86.5 q-61 -27 -90 -79t-29 -136q0 -59 37 -146q39 -84 39 -135q0 -39 -33 -67.5t-96 -28.5h-49z" />
<glyph unicode="~" horiz-adv-x="833" d="M61 403h129q8 82 89 82q55 0 129 -43q72 -45 155 -45q92 0 150.5 53.5t58.5 172.5h-133q-2 -45 -26.5 -65.5t-59.5 -20.5q-53 0 -121 45q-66 45 -162 45q-94 0 -151.5 -53.5t-57.5 -170.5z" />
<glyph unicode="&#xa1;" horiz-adv-x="346" d="M61 1327q0 -45 34 -79t79 -34t78 34t33 79t-33 78t-78 33t-79 -33t-34 -78zM82 0h184l-33 979l-118 55z" />
<glyph unicode="&#xa2;" horiz-adv-x="937" d="M68 500q2 215 116.5 356t313.5 162v205l141 20v-231q66 -10 131.5 -32t108.5 -50l-50 -115q-82 35 -136 51.5t-140 16.5q-147 0 -233.5 -107.5t-88.5 -273.5q0 -174 82 -282.5t232 -108.5q90 0 147.5 16t128.5 53l51 -117q-43 -29 -105 -49t-126 -30v-213h-143v204 q-201 16 -315.5 158.5t-114.5 366.5z" />
<glyph unicode="&#xa3;" horiz-adv-x="921" d="M109 778l2 -123h147v-354q0 -172 -143 -172l14 -129h772l-20 129h-523q63 76 64 246v280h326l-56 123h-270v307q0 174 139 175q35 0 90 -23l37 127q-27 14 -70 25.5t-81 11.5q-131 0 -205 -87t-74 -237v-299h-149z" />
<glyph unicode="&#xa4;" horiz-adv-x="1378" d="M61 -23l95 -112l215 219q131 -109 307 -111q94 0 178 30t150 83l219 -221l92 112l-209 218q88 129 90 297q0 176 -88 307l207 213l-92 114l-215 -217q-133 111 -314 111q-180 -2 -321 -115l-219 221l-95 -114l213 -215q-43 -61 -66.5 -138t-23.5 -159q0 -170 86 -310z M350 502q0 104 46 189t125 134t177 49t175 -50t118 -137t41 -195q0 -107 -46 -192t-126 -133t-178 -48q-150 0 -241 108.5t-91 274.5z" />
<glyph unicode="&#xa5;" horiz-adv-x="1153" d="M20 1360l152 65l391 -706l395 674h175l-449 -758h328l18 -125h-385l-2 -231h369l18 -125h-387v-154h-162v154h-340l-18 125h358v231h-340l-18 125h315z" />
<glyph unicode="&#xa6;" horiz-adv-x="540" d="M190 0l160 -12v602l-160 10v-600zM190 844l160 -13v613l-160 12v-612z" />
<glyph unicode="&#xa7;" horiz-adv-x="1173" d="M88 860q0 80 37 148.5t104 115.5q-20 55 -20 125q0 98 55 178t156.5 126t234.5 46q94 0 187.5 -24.5t169.5 -61.5l-56 -127q-70 35 -135 53.5t-157 18.5q-135 0 -216 -55t-81 -152q0 -74 41 -126t114.5 -96t216.5 -109q195 -88 281 -176.5t86 -231.5q0 -82 -36 -151.5 t-103 -118.5q18 -51 18 -119q0 -106 -58.5 -189.5t-170 -130.5t-262.5 -47q-90 0 -209 29t-174 65l39 127q66 -33 158.5 -58t183.5 -25q160 0 246.5 62t86.5 165q0 72 -41 125t-117.5 97t-209.5 101q-190 82 -279.5 179.5t-89.5 236.5zM246 862q0 -74 40 -126t114.5 -96 t215.5 -110q97 -43 161.5 -81.5t107.5 -81.5q61 59 61 143q0 72 -41 125t-117.5 97t-209.5 102q-184 80 -269 167q-63 -53 -63 -139z" />
<glyph unicode="&#xa8;" horiz-adv-x="579" d="M20 1358q0 -41 30 -71t71 -30q43 0 71.5 30t28.5 71t-28.5 69.5t-71.5 28.5q-41 0 -71 -29.5t-30 -68.5zM360 1358q0 -41 29 -71t70 -30q43 0 71.5 30t28.5 71t-28.5 69.5t-71.5 28.5q-39 0 -69 -28.5t-30 -69.5z" />
<glyph unicode="&#xa9;" horiz-adv-x="1636" d="M68 688q0 -207 93 -377t263 -268t395 -98t395 98t263.5 268t93.5 377t-92.5 377t-263.5 269.5t-396 99.5t-396 -99.5t-263 -269.5t-92 -377zM201 690q0 180 75.5 323.5t216 225.5t326.5 82t327.5 -82t217.5 -225.5t76 -323.5t-76 -323.5t-217 -225.5t-328 -82 q-186 0 -326.5 82t-216 225.5t-75.5 323.5zM403 698q0 -217 116 -350t329 -133q67 0 155.5 23.5t145.5 64.5l-49 117q-74 -39 -121 -54.5t-131 -15.5q-147 0 -214 88t-67 262q0 152 73 244t214 92q86 0 132 -14t122 -53l49 118q-55 41 -143 64t-158 23q-139 0 -241.5 -60.5 t-157 -168t-54.5 -247.5z" />
<glyph unicode="&#xaa;" horiz-adv-x="677" d="M68 952q0 -90 65.5 -149.5t169.5 -59.5q53 0 104.5 26t86.5 60l28 -67h90v428q0 66 -35.5 123t-101 91t-147.5 34q-47 0 -115 -17.5t-102 -42.5l28 -106q8 4 43 17.5t72 20.5t76 7q72 0 108.5 -39t36.5 -102v-23h-160q-111 0 -179 -53t-68 -148zM201 954q0 45 39 71 t96 26h141v-95q-35 -41 -80 -67.5t-92 -26.5t-75.5 28t-28.5 64z" />
<glyph unicode="&#xab;" horiz-adv-x="763" d="M61 457l297 -285l45 107l-217 223l217 223l-45 109l-297 -285v-92zM381 457l299 -285l43 107l-217 223l217 223l-43 109l-299 -285v-92z" />
<glyph unicode="&#xac;" horiz-adv-x="1052" d="M20 831l17 -129h809v-462l145 -11v500l-16 102h-955z" />
<glyph unicode="&#xad;" horiz-adv-x="245" />
<glyph unicode="&#xae;" horiz-adv-x="1458" d="M68 997q0 -182 80.5 -331.5t231 -235.5t351.5 -86q199 0 349.5 86t231.5 235.5t81 331.5q0 185 -81 335.5t-231.5 236.5t-349.5 86q-201 0 -351.5 -86t-231 -236.5t-80.5 -335.5zM190 999q0 160 66 284t187.5 193.5t287.5 69.5q164 0 286 -69.5t187.5 -194.5t65.5 -283 q0 -156 -65.5 -279.5t-187.5 -195t-286 -71.5q-166 0 -287.5 71.5t-187.5 195.5t-66 279zM489 623h123v315h80q43 0 58 2l170 -317h141l-193 346q59 27 95 77t36 123q0 115 -76.5 169.5t-207.5 54.5h-226v-770zM612 1036v256h70q98 0 144 -22.5t46 -104.5q0 -76 -52 -102.5 t-146 -26.5h-62z" />
<glyph unicode="&#xaf;" horiz-adv-x="544" d="M20 1296h504l-14 129h-490v-129z" />
<glyph unicode="&#xb0;" horiz-adv-x="491" d="M20 1233q0 -92 67 -152.5t159 -60.5q94 0 159.5 60.5t65.5 152.5q0 90 -66.5 153.5t-158.5 63.5t-159 -63.5t-67 -153.5zM133 1233q0 47 32 78.5t81 31.5q47 0 80.5 -32.5t33.5 -79.5q0 -45 -33.5 -79t-80.5 -34q-49 0 -81 34t-32 81z" />
<glyph unicode="&#xb1;" horiz-adv-x="995" d="M61 735l19 -119h346v-368l143 -10v378h365l-16 119h-349v352l-143 7v-359h-365zM63 121l17 -119h854l-14 119h-857z" />
<glyph unicode="&#xb2;" horiz-adv-x="731" d="M47 1493l55 -111q49 31 116 54.5t130 23.5q82 0 125 -42t43 -99q0 -63 -37 -122.5t-119 -133.5l-309 -266v-109h639l-16 113h-443l209 178q119 102 171.5 180t52.5 160q0 63 -32 122.5t-101.5 98.5t-176.5 39q-151 0 -307 -86z" />
<glyph unicode="&#xb3;" horiz-adv-x="733" d="M0 655q164 -86 303 -86q106 0 186 38t124 103.5t44 147.5q0 94 -51 161.5t-129 84.5q68 23 115 84t47 139q0 109 -81 180.5t-230 71.5q-86 0 -160 -24.5t-145 -69.5l57 -101q53 35 109.5 56.5t127.5 21.5q84 0 130.5 -39t46.5 -98q0 -76 -58.5 -121t-175.5 -45h-63 l16 -115h37q137 0 199.5 -47t62.5 -141q0 -78 -59.5 -123t-149.5 -45q-76 0 -127 16.5t-113 51.5z" />
<glyph unicode="&#xb4;" horiz-adv-x="329" d="M20 1237l109 -31l180 320h-178z" />
<glyph unicode="&#xb5;" horiz-adv-x="1103" d="M141 -449v1442h162v-649q0 -111 41 -172t137 -61q74 0 167 51t165 129v704h162v-993h-121l-27 141q-72 -74 -176 -123t-198 -49q-88 0 -150 31v-428z" />
<glyph unicode="&#xb6;" horiz-adv-x="1714" d="M68 967q0 -217 150.5 -329t383.5 -112h72v-526h162v1266h450v-1266h162v1266h201v127h-1069q-236 0 -374 -103.5t-138 -322.5z" />
<glyph unicode="&#xb7;" horiz-adv-x="344" d="M61 537q0 -45 33 -78t80 -33q45 0 77 33t32 78t-32 77.5t-77 32.5q-47 0 -80 -31.5t-33 -78.5z" />
<glyph unicode="&#xb8;" horiz-adv-x="440" d="M20 -410q29 -18 77 -30.5t85 -12.5q100 0 169 48.5t69 140.5q0 55 -47 104t-113 62l49 125h-129l-74 -191q78 -8 130.5 -36.5t52.5 -67.5q0 -33 -33 -51.5t-74 -18.5q-29 0 -63.5 10.5t-59.5 20.5z" />
<glyph unicode="&#xb9;" horiz-adv-x="538" d="M20 1432l60 -101l164 84v-727h145v879h-94z" />
<glyph unicode="&#xba;" horiz-adv-x="784" d="M68 1090q0 -162 87 -254.5t234 -92.5q143 0 236.5 94.5t93.5 252.5q0 162 -89 255t-239 93q-143 0 -233 -95.5t-90 -252.5zM215 1090q0 113 52 169t124 56q78 0 127 -57.5t49 -167.5q0 -113 -52 -169.5t-126 -56.5t-124 58.5t-50 167.5z" />
<glyph unicode="&#xbb;" horiz-adv-x="765" d="M41 279l47 -107l297 285v92l-297 285l-47 -109l217 -223zM362 279l46 -107l297 285v92l-297 285l-46 -109l218 -223z" />
<glyph unicode="&#xbc;" horiz-adv-x="1581" d="M20 1432l60 -101l164 84v-727h145v879h-94zM102 -274h164l1032 1708h-159zM762 -41l14 -117h459v-178h141v178h154l10 117h-164v698h-98zM913 -41l322 442v-442h-322z" />
<glyph unicode="&#xbd;" horiz-adv-x="1624" d="M20 1432l60 -101l164 84v-727h145v879h-94zM72 -274h164l1032 1708h-160zM938 580l57 -111q47 31 114 54.5t130 23.5q84 0 127 -42t43 -99q0 -63 -37 -123t-119 -133l-309 -267v-108h639l-16 112h-445l211 179q117 102 169 179t52 161q0 63 -31.5 122.5t-101 98.5 t-176.5 39q-145 0 -307 -86z" />
<glyph unicode="&#xbe;" horiz-adv-x="1628" d="M0 655q164 -86 303 -86q106 0 186 38t124 103.5t44 147.5q0 94 -51 161.5t-129 84.5q68 23 115 84t47 139q0 109 -81 180.5t-230 71.5q-86 0 -160 -24.5t-145 -69.5l57 -101q53 35 109.5 56.5t127.5 21.5q84 0 130.5 -40t46.5 -97q0 -82 -64.5 -124t-169.5 -42h-63 l16 -115h37q137 0 199.5 -47t62.5 -141q0 -78 -59.5 -123t-149.5 -45q-76 0 -127 16.5t-113 51.5zM229 -274h164l1032 1708h-159zM809 -41l12 -117h459v-178h141v178h154l12 117h-166v698h-98zM958 -41l322 442v-442h-322z" />
<glyph unicode="&#xbf;" horiz-adv-x="843" d="M61 199q0 -158 97.5 -250t294.5 -92q110 0 193 29.5t177 90.5l-20 146q-92 -66 -172 -96.5t-172 -30.5q-117 0 -176.5 50t-59.5 157q0 106 97.5 196t259.5 142l-17 401l-119 49l-18 -366q-164 -76 -264.5 -193t-100.5 -233zM397 1184q0 -45 34 -79t79 -34t78 33t33 80 q0 45 -33 78.5t-78 33.5t-79 -33.5t-34 -78.5z" />
<glyph unicode="&#xc0;" horiz-adv-x="1247" d="M20 0h158l146 395h587l156 -409l160 26l-535 1381h-155zM369 526l243 654l252 -654h-495zM423 1833l181 -320l108 31l-110 289h-179z" />
<glyph unicode="&#xc1;" horiz-adv-x="1247" d="M20 0h158l146 395h587l156 -409l160 26l-535 1381h-155zM369 526l243 654l252 -654h-495zM518 1544l109 -31l180 320h-178z" />
<glyph unicode="&#xc2;" horiz-adv-x="1247" d="M20 0h158l146 395h587l156 -409l160 26l-535 1381h-155zM303 1534l146 -21l153 201l154 -201l148 21l-238 299h-129zM369 526l243 654l252 -654h-495z" />
<glyph unicode="&#xc3;" horiz-adv-x="1247" d="M20 0h158l146 395h587l156 -409l160 26l-535 1381h-155zM301 1554h113q2 39 24.5 61.5t51.5 22.5q51 0 104 -47q47 -45 121 -45q84 0 134 47t50 154h-112q-2 -39 -22.5 -60.5t-49.5 -21.5q-53 0 -100 47q-45 43 -131 43q-182 0 -183 -201zM369 526l243 654l252 -654h-495 z" />
<glyph unicode="&#xc4;" horiz-adv-x="1247" d="M20 0h158l146 395h587l156 -409l160 26l-535 1381h-155zM333 1665q0 -41 30 -70.5t71 -29.5q43 0 71.5 29.5t28.5 70.5t-28.5 69.5t-71.5 28.5q-41 0 -71 -29.5t-30 -68.5zM369 526l243 654l252 -654h-495zM673 1665q0 -41 29 -70.5t70 -29.5q43 0 71.5 29.5t28.5 70.5 t-28.5 69.5t-71.5 28.5q-39 0 -69 -28.5t-30 -69.5z" />
<glyph unicode="&#xc5;" horiz-adv-x="1247" d="M20 0h158l146 395h587l156 -409l160 26l-535 1381h-155zM369 526l243 654l252 -654h-495zM419 1698q0 -74 56.5 -124t136.5 -50q78 0 133 50t55 124q0 78 -55 130t-133 52q-80 0 -136.5 -52t-56.5 -130zM524 1698q0 39 25.5 63.5t62.5 24.5t61.5 -24.5t24.5 -63.5 q0 -35 -25.5 -59.5t-60.5 -24.5q-37 0 -62.5 24.5t-25.5 59.5z" />
<glyph unicode="&#xc6;" horiz-adv-x="1792" d="M20 10l152 -26l250 411h489v-395h840l-16 129h-660v522h500l-19 121h-481v500h619l-19 121h-784zM506 526l405 645v-645h-405z" />
<glyph unicode="&#xc7;" horiz-adv-x="1140" d="M88 688q0 207 80 374t229.5 263t345.5 96q76 0 182.5 -21.5t166.5 -58.5l-52 -116q-82 31 -141 44t-156 13q-135 0 -246.5 -76t-175 -211t-63.5 -305q0 -160 55.5 -292t162 -208.5t249.5 -76.5q98 0 171 16t136 45l62 -123q-53 -29 -140.5 -50t-171.5 -28l-28 -71 q65 -13 112 -62t47 -104q0 -92 -68.5 -140.5t-168.5 -48.5q-37 0 -85 12.5t-77 30.5l39 103q25 -10 59.5 -20.5t63.5 -10.5q41 0 73.5 18.5t32.5 51.5q0 39 -52 67.5t-130 36.5l53 139q-180 18 -308 118t-192.5 255.5t-64.5 339.5z" />
<glyph unicode="&#xc8;" horiz-adv-x="1071" d="M190 0h840l-20 129h-658v522h500l-18 121h-482v500h617l-19 121h-760v-1393zM399 1833l181 -320l108 31l-110 289h-179z" />
<glyph unicode="&#xc9;" horiz-adv-x="1071" d="M190 0h840l-20 129h-658v522h500l-18 121h-482v500h617l-19 121h-760v-1393zM493 1544l109 -31l180 320h-178z" />
<glyph unicode="&#xca;" horiz-adv-x="1071" d="M190 0h840l-20 129h-658v522h500l-18 121h-482v500h617l-19 121h-760v-1393zM278 1534l146 -21l153 201l154 -201l148 21l-238 299h-129z" />
<glyph unicode="&#xcb;" horiz-adv-x="1071" d="M190 0h840l-20 129h-658v522h500l-18 121h-482v500h617l-19 121h-760v-1393zM309 1665q0 -41 30 -70.5t71 -29.5q43 0 71.5 29.5t28.5 70.5t-28.5 69.5t-71.5 28.5q-41 0 -71 -29.5t-30 -68.5zM649 1665q0 -41 29 -70.5t70 -29.5q43 0 71.5 29.5t28.5 70.5t-28.5 69.5 t-71.5 28.5q-39 0 -69 -28.5t-30 -69.5z" />
<glyph unicode="&#xcc;" horiz-adv-x="540" d="M86 1833l181 -320l108 31l-110 289h-179zM190 0h162v1393h-162v-1393z" />
<glyph unicode="&#xcd;" horiz-adv-x="540" d="M180 1544l109 -31l180 320h-178zM190 0h162v1393h-162v-1393z" />
<glyph unicode="&#xce;" horiz-adv-x="540" d="M-35 1534l146 -21l153 201l154 -201l148 21l-238 299h-129zM190 0h162v1393h-162v-1393z" />
<glyph unicode="&#xcf;" horiz-adv-x="540" d="M-5 1665q0 -41 30 -70.5t71 -29.5q43 0 71.5 29.5t28.5 70.5t-28.5 69.5t-71.5 28.5q-41 0 -71 -29.5t-30 -68.5zM190 0h162v1393h-162v-1393zM335 1665q0 -41 29 -70.5t70 -29.5q43 0 71.5 29.5t28.5 70.5t-28.5 69.5t-71.5 28.5q-39 0 -69 -28.5t-30 -69.5z" />
<glyph unicode="&#xd0;" horiz-adv-x="1374" d="M41 752h149v641h488q307 0 458.5 -190.5t151.5 -497.5q0 -203 -71.5 -362t-212 -251t-338.5 -92h-476v625h-131zM352 135h316q137 0 240.5 68.5t160.5 196.5t57 302q0 250 -111.5 401.5t-328.5 151.5h-334v-503h207l19 -127h-226v-490z" />
<glyph unicode="&#xd1;" horiz-adv-x="1433" d="M190 0h162v1094l54 -93l708 -1001h131v1393h-164v-1080l-84 138l-678 942h-129v-1393zM409 1554h113q2 39 24.5 61.5t51.5 22.5q51 0 104 -47q47 -45 121 -45q84 0 134 47t50 154h-112q-2 -39 -22.5 -60.5t-49.5 -21.5q-53 0 -100 47q-45 43 -131 43q-182 0 -183 -201z " />
<glyph unicode="&#xd2;" horiz-adv-x="1484" d="M88 690q0 -207 84 -370.5t231.5 -256t333.5 -92.5q188 2 340 98.5t237 263.5t85 374t-84 370.5t-233.5 255.5t-336.5 92q-188 -4 -337.5 -100t-234.5 -262t-85 -373zM258 692q0 170 63.5 304t175 211t253.5 77q137 0 244.5 -74.5t169 -207t61.5 -297.5 q0 -170 -63.5 -305.5t-175.5 -211t-253 -75.5q-137 0 -244.5 74.5t-169 206.5t-61.5 298zM557 1833l181 -320l108 31l-110 289h-179z" />
<glyph unicode="&#xd3;" horiz-adv-x="1484" d="M88 690q0 -207 84 -370.5t231.5 -256t333.5 -92.5q188 2 340 98.5t237 263.5t85 374t-84 370.5t-233.5 255.5t-336.5 92q-188 -4 -337.5 -100t-234.5 -262t-85 -373zM258 692q0 170 63.5 304t175 211t253.5 77q137 0 244.5 -74.5t169 -207t61.5 -297.5 q0 -170 -63.5 -305.5t-175.5 -211t-253 -75.5q-137 0 -244.5 74.5t-169 206.5t-61.5 298zM651 1544l109 -31l180 320h-178z" />
<glyph unicode="&#xd4;" horiz-adv-x="1484" d="M88 690q0 -207 84 -370.5t231.5 -256t333.5 -92.5q188 2 340 98.5t237 263.5t85 374t-84 370.5t-233.5 255.5t-336.5 92q-188 -4 -337.5 -100t-234.5 -262t-85 -373zM258 692q0 170 63.5 304t175 211t253.5 77q137 0 244.5 -74.5t169 -207t61.5 -297.5 q0 -170 -63.5 -305.5t-175.5 -211t-253 -75.5q-137 0 -244.5 74.5t-169 206.5t-61.5 298zM436 1534l146 -21l153 201l154 -201l148 21l-238 299h-129z" />
<glyph unicode="&#xd5;" horiz-adv-x="1484" d="M88 690q0 -207 84 -370.5t231.5 -256t333.5 -92.5q188 2 340 98.5t237 263.5t85 374t-84 370.5t-233.5 255.5t-336.5 92q-188 -4 -337.5 -100t-234.5 -262t-85 -373zM258 692q0 170 63.5 304t175 211t253.5 77q137 0 244.5 -74.5t169 -207t61.5 -297.5 q0 -170 -63.5 -305.5t-175.5 -211t-253 -75.5q-137 0 -244.5 74.5t-169 206.5t-61.5 298zM434 1554h113q2 39 24.5 61.5t51.5 22.5q51 0 104 -47q47 -45 121 -45q84 0 134 47t50 154h-112q-2 -39 -22.5 -60.5t-49.5 -21.5q-53 0 -100 47q-45 43 -131 43q-182 0 -183 -201z " />
<glyph unicode="&#xd6;" horiz-adv-x="1484" d="M88 690q0 -207 84 -370.5t231.5 -256t333.5 -92.5q188 2 340 98.5t237 263.5t85 374t-84 370.5t-233.5 255.5t-336.5 92q-188 -4 -337.5 -100t-234.5 -262t-85 -373zM258 692q0 170 63.5 304t175 211t253.5 77q137 0 244.5 -74.5t169 -207t61.5 -297.5 q0 -170 -63.5 -305.5t-175.5 -211t-253 -75.5q-137 0 -244.5 74.5t-169 206.5t-61.5 298zM466 1665q0 -41 30 -70.5t71 -29.5q43 0 71.5 29.5t28.5 70.5t-28.5 69.5t-71.5 28.5q-41 0 -71 -29.5t-30 -68.5zM806 1665q0 -41 29 -70.5t70 -29.5q43 0 71.5 29.5t28.5 70.5 t-28.5 69.5t-71.5 28.5q-39 0 -69 -28.5t-30 -69.5z" />
<glyph unicode="&#xd7;" horiz-adv-x="1040" d="M61 63l381 451l-348 447h166l262 -334l293 334h164l-381 -451l348 -447h-164l-262 334l-293 -334h-166z" />
<glyph unicode="&#xd8;" horiz-adv-x="1484" d="M88 690q0 207 85 373t234.5 262t337.5 100q187 0 336.5 -92t233.5 -256t84 -370q0 -207 -85 -374t-236.5 -263.5t-340.5 -98.5q-186 0 -333.5 92.5t-231.5 256t-84 370.5zM258 692q0 -153 52 -279t147 -202l450 1044q-74 29 -157 29q-141 0 -253 -77t-175.5 -211 t-63.5 -304zM586 137q72 -25 147 -24q141 0 253 75.5t175.5 211t63.5 305.5q0 147 -49.5 270t-137.5 201z" />
<glyph unicode="&#xd9;" horiz-adv-x="1396" d="M170 494q0 -150 64.5 -266.5t184.5 -184.5t279 -68q160 0 280 67t184.5 185.5t64.5 266.5v899h-164v-881q0 -178 -98.5 -288.5t-266.5 -110.5q-166 0 -266 110.5t-100 288.5v881h-162v-899zM509 1833l181 -320l108 31l-110 289h-179z" />
<glyph unicode="&#xda;" horiz-adv-x="1396" d="M170 494q0 -150 64.5 -266.5t184.5 -184.5t279 -68q160 0 280 67t184.5 185.5t64.5 266.5v899h-164v-881q0 -178 -98.5 -288.5t-266.5 -110.5q-166 0 -266 110.5t-100 288.5v881h-162v-899zM604 1544l109 -31l180 320h-178z" />
<glyph unicode="&#xdb;" horiz-adv-x="1396" d="M170 494q0 -150 64.5 -266.5t184.5 -184.5t279 -68q160 0 280 67t184.5 185.5t64.5 266.5v899h-164v-881q0 -178 -98.5 -288.5t-266.5 -110.5q-166 0 -266 110.5t-100 288.5v881h-162v-899zM389 1534l146 -21l153 201l154 -201l148 21l-238 299h-129z" />
<glyph unicode="&#xdc;" horiz-adv-x="1396" d="M170 494q0 -150 64.5 -266.5t184.5 -184.5t279 -68q160 0 280 67t184.5 185.5t64.5 266.5v899h-164v-881q0 -178 -98.5 -288.5t-266.5 -110.5q-166 0 -266 110.5t-100 288.5v881h-162v-899zM419 1665q0 -41 30 -70.5t71 -29.5q43 0 71.5 29.5t28.5 70.5t-28.5 69.5 t-71.5 28.5q-41 0 -71 -29.5t-30 -68.5zM759 1665q0 -41 29 -70.5t70 -29.5q43 0 71.5 29.5t28.5 70.5t-28.5 69.5t-71.5 28.5q-39 0 -69 -28.5t-30 -69.5z" />
<glyph unicode="&#xdd;" horiz-adv-x="1153" d="M20 1360l461 -801v-559h162l2 567l488 826h-175l-395 -674l-391 706zM469 1544l109 -31l180 320h-178z" />
<glyph unicode="&#xde;" horiz-adv-x="1150" d="M190 0v1393h162v-164h217q236 0 375 -103.5t139 -322.5q-2 -217 -151.5 -329t-382.5 -112h-197v-362h-162zM352 500h203q162 0 260 72.5t103 224.5q0 162 -88.5 228.5t-258.5 66.5h-219v-592z" />
<glyph unicode="&#xdf;" horiz-adv-x="1177" d="M150 0h161v969q0 135 75 216t210 81q113 0 186.5 -61.5t73.5 -178.5q0 -119 -75.5 -179.5t-237.5 -60.5h-60v-131h119q154 0 243 -66.5t89 -201.5q0 -133 -96.5 -192.5t-255.5 -59.5h-125v-135h127q236 0 376 94t140 295q0 127 -68.5 216t-181.5 132q82 41 127 118 t45 177q0 180 -121 276.5t-305 96.5q-203 0 -324.5 -115.5t-121.5 -320.5v-969z" />
<glyph unicode="&#xe0;" horiz-adv-x="999" d="M102 283q0 -137 87 -223.5t253 -86.5q78 0 160 38t137 89l21 -100h121v686q0 96 -49.5 172t-137.5 119t-200 43q-68 0 -171.5 -24.5t-156.5 -61.5l47 -123q74 33 136.5 50.5t150.5 17.5q113 0 165 -63.5t52 -174.5v-55h-256q-162 0 -260.5 -80t-98.5 -223zM252 283 q0 82 54 138t151 56h262v-225q-55 -66 -128 -107t-153 -41q-92 0 -139 53.5t-47 125.5zM313 1526l181 -320l108 31l-110 289h-179z" />
<glyph unicode="&#xe1;" horiz-adv-x="999" d="M102 283q0 -137 87 -223.5t253 -86.5q78 0 160 38t137 89l21 -100h121v686q0 96 -49.5 172t-137.5 119t-200 43q-68 0 -171.5 -24.5t-156.5 -61.5l47 -123q74 33 136.5 50.5t150.5 17.5q113 0 165 -63.5t52 -174.5v-55h-256q-162 0 -260.5 -80t-98.5 -223zM252 283 q0 82 54 138t151 56h262v-225q-55 -66 -128 -107t-153 -41q-92 0 -139 53.5t-47 125.5zM387 1237l109 -31l180 320h-178z" />
<glyph unicode="&#xe2;" horiz-adv-x="999" d="M102 283q0 -137 87 -223.5t253 -86.5q78 0 160 38t137 89l21 -100h121v686q0 96 -49.5 172t-137.5 119t-200 43q-68 0 -171.5 -24.5t-156.5 -61.5l47 -123q74 33 136.5 50.5t150.5 17.5q113 0 165 -63.5t52 -174.5v-55h-256q-162 0 -260.5 -80t-98.5 -223zM196 1227 l146 -21l153 201l154 -201l148 21l-238 299h-129zM252 283q0 82 54 138t151 56h262v-225q-55 -66 -128 -107t-153 -41q-92 0 -139 53.5t-47 125.5z" />
<glyph unicode="&#xe3;" horiz-adv-x="999" d="M102 283q0 -137 87 -223.5t253 -86.5q78 0 160 38t137 89l21 -100h121v686q0 96 -49.5 172t-137.5 119t-200 43q-68 0 -171.5 -24.5t-156.5 -61.5l47 -123q74 33 136.5 50.5t150.5 17.5q113 0 165 -63.5t52 -174.5v-55h-256q-162 0 -260.5 -80t-98.5 -223zM188 1247h113 q2 39 24.5 61.5t51.5 22.5q51 0 104 -47q47 -45 121 -45q84 0 134 47t50 154h-112q-2 -39 -22.5 -60.5t-49.5 -21.5q-53 0 -100 47q-45 43 -131 43q-182 0 -183 -201zM252 283q0 82 54 138t151 56h262v-225q-55 -66 -128 -107t-153 -41q-92 0 -139 53.5t-47 125.5z" />
<glyph unicode="&#xe4;" horiz-adv-x="999" d="M102 283q0 -137 87 -223.5t253 -86.5q78 0 160 38t137 89l21 -100h121v686q0 96 -49.5 172t-137.5 119t-200 43q-68 0 -171.5 -24.5t-156.5 -61.5l47 -123q74 33 136.5 50.5t150.5 17.5q113 0 165 -63.5t52 -174.5v-55h-256q-162 0 -260.5 -80t-98.5 -223zM215 1358 q0 -41 30 -71t71 -30q43 0 71.5 30t28.5 71t-28.5 69.5t-71.5 28.5q-41 0 -71 -29.5t-30 -68.5zM252 283q0 82 54 138t151 56h262v-225q-55 -66 -128 -107t-153 -41q-92 0 -139 53.5t-47 125.5zM555 1358q0 -41 29 -71t70 -30q43 0 71.5 30t28.5 71t-28.5 69.5t-71.5 28.5 q-39 0 -69 -28.5t-30 -69.5z" />
<glyph unicode="&#xe5;" horiz-adv-x="999" d="M102 283q0 -137 87 -223.5t253 -86.5q78 0 160 38t137 89l21 -100h121v686q0 96 -49.5 172t-137.5 119t-200 43q-68 0 -171.5 -24.5t-156.5 -61.5l47 -123q74 33 136.5 50.5t150.5 17.5q113 0 165 -63.5t52 -174.5v-55h-256q-162 0 -260.5 -80t-98.5 -223zM252 283 q0 82 54 138t151 56h262v-225q-55 -66 -128 -107t-153 -41q-92 0 -139 53.5t-47 125.5zM309 1391q0 -74 56.5 -124t136.5 -50q78 0 133 50t55 124q0 78 -55 130t-133 52q-80 0 -136.5 -52.5t-56.5 -129.5zM414 1391q0 39 25.5 63.5t62.5 24.5t61.5 -24.5t24.5 -63.5 q0 -35 -25.5 -59.5t-60.5 -24.5q-37 0 -62.5 24.5t-25.5 59.5z" />
<glyph unicode="&#xe6;" horiz-adv-x="1669" d="M102 283q0 143 98.5 223t260.5 80h256v53q0 111 -52.5 175.5t-164.5 64.5q-88 0 -150.5 -17.5t-136.5 -50.5l-47 123q53 37 156.5 61.5t171.5 24.5q111 0 196.5 -42t136.5 -114q59 76 148.5 117t202.5 41q217 0 320.5 -151.5t103.5 -397.5h-721q6 -168 91 -266t261 -98 q80 0 147.5 21.5t157.5 66.5l51 -119q-84 -47 -168 -75t-186 -28q-283 0 -418 179q-72 -78 -160 -129.5t-215 -51.5q-166 0 -253 86t-87 224zM252 283q0 -72 47 -125.5t139 -53.5q119 0 187.5 44.5t128.5 121.5q-35 90 -39 207h-258q-96 0 -150.5 -56t-54.5 -138zM885 584 h557q-35 301 -271 301q-127 0 -199.5 -81t-86.5 -220z" />
<glyph unicode="&#xe7;" horiz-adv-x="937" d="M68 500q0 152 60 269.5t171 184t258 66.5q68 0 165 -25.5t157 -64.5l-50 -115q-82 35 -136 51.5t-140 16.5q-147 0 -233.5 -107.5t-88.5 -273.5q0 -174 82 -282.5t232 -108.5q90 0 147.5 16t128.5 53l51 -117q-49 -32 -125.5 -54.5t-148.5 -31.5l-29 -75 q66 -12 113 -61.5t47 -104.5q0 -92 -68.5 -140.5t-168.5 -48.5q-37 0 -85.5 12.5t-76.5 30.5l39 103q25 -10 59.5 -20.5t63.5 -10.5q41 0 73.5 18.5t32.5 51.5q0 39 -52 67.5t-130 36.5l55 141q-188 27 -295.5 167.5t-107.5 355.5z" />
<glyph unicode="&#xe8;" horiz-adv-x="1021" d="M68 500q0 -240 133 -383.5t387 -143.5q102 0 186 28t168 75l-51 119q-92 -45 -158.5 -65.5t-146.5 -20.5q-176 0 -261 97t-92 265h721q0 246 -103 397.5t-321 151.5q-143 0 -248.5 -66.5t-159.5 -184.5t-54 -269zM238 582q14 139 86.5 220t199.5 81q236 0 271 -301h-557z M339 1526l181 -320l108 31l-110 289h-179z" />
<glyph unicode="&#xe9;" horiz-adv-x="1021" d="M68 500q0 -240 133 -383.5t387 -143.5q102 0 186 28t168 75l-51 119q-92 -45 -158.5 -65.5t-146.5 -20.5q-176 0 -261 97t-92 265h721q0 246 -103 397.5t-321 151.5q-143 0 -248.5 -66.5t-159.5 -184.5t-54 -269zM238 582q14 139 86.5 220t199.5 81q236 0 271 -301h-557z M413 1237l109 -31l180 320h-178z" />
<glyph unicode="&#xea;" horiz-adv-x="1021" d="M68 500q0 -240 133 -383.5t387 -143.5q102 0 186 28t168 75l-51 119q-92 -45 -158.5 -65.5t-146.5 -20.5q-176 0 -261 97t-92 265h721q0 246 -103 397.5t-321 151.5q-143 0 -248.5 -66.5t-159.5 -184.5t-54 -269zM223 1227l146 -21l153 201l154 -201l148 21l-238 299 h-129zM238 582q14 139 86.5 220t199.5 81q236 0 271 -301h-557z" />
<glyph unicode="&#xeb;" horiz-adv-x="1021" d="M68 500q0 -240 133 -383.5t387 -143.5q102 0 186 28t168 75l-51 119q-92 -45 -158.5 -65.5t-146.5 -20.5q-176 0 -261 97t-92 265h721q0 246 -103 397.5t-321 151.5q-143 0 -248.5 -66.5t-159.5 -184.5t-54 -269zM238 582q14 139 86.5 220t199.5 81q236 0 271 -301h-557z M241 1358q0 -41 30 -71t71 -30q43 0 71.5 30t28.5 71t-28.5 69.5t-71.5 28.5q-41 0 -71 -29.5t-30 -68.5zM581 1358q0 -41 29 -71t70 -30q43 0 71.5 30t28.5 71t-28.5 69.5t-71.5 28.5q-39 0 -69 -28.5t-30 -69.5z" />
<glyph unicode="&#xec;" horiz-adv-x="419" d="M24 1526l181 -320l108 31l-110 289h-179zM129 0h164v993h-164v-993z" />
<glyph unicode="&#xed;" horiz-adv-x="419" d="M98 1237l109 -31l180 320h-178zM129 0h164v993h-164v-993z" />
<glyph unicode="&#xee;" horiz-adv-x="419" d="M-93 1227l146 -21l153 201l154 -201l148 21l-238 299h-129zM129 0h164v993h-164v-993z" />
<glyph unicode="&#xef;" horiz-adv-x="419" d="M-74 1358q0 -41 30 -71t71 -30q43 0 71.5 30t28.5 71t-28.5 69.5t-71.5 28.5q-41 0 -71 -29.5t-30 -68.5zM129 0h164v993h-164v-993zM266 1358q0 -41 29 -71t70 -30q43 0 71.5 30t28.5 71t-28.5 69.5t-71.5 28.5q-39 0 -69 -28.5t-30 -69.5z" />
<glyph unicode="&#xf0;" horiz-adv-x="1097" d="M68 500q2 152 60 269.5t169 184t258 66.5q109 0 209 -55q-92 172 -277 301l-254 -129l-61 106l195 96q-72 39 -179 82l48 115q158 -57 274 -127l223 111l60 -101l-168 -86q206 -151 306.5 -362t100.5 -467q0 -154 -58.5 -273.5t-170 -188.5t-266.5 -69q-143 0 -250 66.5 t-163 186.5t-56 274zM231 502q0 -174 82 -282.5t232 -108.5q147 0 233 107.5t88 273.5q0 152 -28 274q-113 117 -285 117q-147 0 -233.5 -107.5t-88.5 -273.5z" />
<glyph unicode="&#xf1;" d="M129 0h162v705q72 78 165 129t167 51q96 0 137 -61.5t41 -172.5v-649h162v672q0 160 -77 255t-235 95q-94 0 -198.5 -49t-176.5 -123l-26 141h-121v-993zM251 1247h113q2 39 24.5 61.5t51.5 22.5q51 0 104 -47q47 -45 121 -45q84 0 134 47t50 154h-112 q-2 -39 -22.5 -60.5t-49.5 -21.5q-53 0 -100 47q-45 43 -131 43q-182 0 -183 -201z" />
<glyph unicode="&#xf2;" horiz-adv-x="1097" d="M68 500q2 152 60 269.5t169 184t258 66.5q223 0 350 -142.5t127 -383.5q0 -152 -60.5 -270t-173 -184.5t-261.5 -66.5q-143 0 -250 66.5t-163 186.5t-56 274zM231 502q0 -174 82 -282.5t232 -108.5q147 0 233 107.5t88 273.5q0 176 -82 283.5t-231 107.5 q-147 0 -233.5 -107.5t-88.5 -273.5zM364 1526l181 -320l108 31l-110 289h-179z" />
<glyph unicode="&#xf3;" horiz-adv-x="1097" d="M68 500q2 152 60 269.5t169 184t258 66.5q223 0 350 -142.5t127 -383.5q0 -152 -60.5 -270t-173 -184.5t-261.5 -66.5q-143 0 -250 66.5t-163 186.5t-56 274zM231 502q0 -174 82 -282.5t232 -108.5q147 0 233 107.5t88 273.5q0 176 -82 283.5t-231 107.5 q-147 0 -233.5 -107.5t-88.5 -273.5zM438 1237l109 -31l180 320h-178z" />
<glyph unicode="&#xf4;" horiz-adv-x="1097" d="M68 500q2 152 60 269.5t169 184t258 66.5q223 0 350 -142.5t127 -383.5q0 -152 -60.5 -270t-173 -184.5t-261.5 -66.5q-143 0 -250 66.5t-163 186.5t-56 274zM231 502q0 -174 82 -282.5t232 -108.5q147 0 233 107.5t88 273.5q0 176 -82 283.5t-231 107.5 q-147 0 -233.5 -107.5t-88.5 -273.5zM247 1227l146 -21l153 201l154 -201l148 21l-238 299h-129z" />
<glyph unicode="&#xf5;" horiz-adv-x="1097" d="M68 500q2 152 60 269.5t169 184t258 66.5q223 0 350 -142.5t127 -383.5q0 -152 -60.5 -270t-173 -184.5t-261.5 -66.5q-143 0 -250 66.5t-163 186.5t-56 274zM231 502q0 -174 82 -282.5t232 -108.5q147 0 233 107.5t88 273.5q0 176 -82 283.5t-231 107.5 q-147 0 -233.5 -107.5t-88.5 -273.5zM239 1247h113q2 39 24.5 61.5t51.5 22.5q51 0 104 -47q47 -45 121 -45q84 0 134 47t50 154h-112q-2 -39 -22.5 -60.5t-49.5 -21.5q-53 0 -100 47q-45 43 -131 43q-182 0 -183 -201z" />
<glyph unicode="&#xf6;" horiz-adv-x="1097" d="M68 500q2 152 60 269.5t169 184t258 66.5q223 0 350 -142.5t127 -383.5q0 -152 -60.5 -270t-173 -184.5t-261.5 -66.5q-143 0 -250 66.5t-163 186.5t-56 274zM231 502q0 -174 82 -282.5t232 -108.5q147 0 233 107.5t88 273.5q0 176 -82 283.5t-231 107.5 q-147 0 -233.5 -107.5t-88.5 -273.5zM266 1358q0 -41 30 -71t71 -30q43 0 71.5 30t28.5 71t-28.5 69.5t-71.5 28.5q-41 0 -71 -29.5t-30 -68.5zM606 1358q0 -41 29 -71t70 -30q43 0 71.5 30t28.5 71t-28.5 69.5t-71.5 28.5q-39 0 -69 -28.5t-30 -69.5z" />
<glyph unicode="&#xf7;" horiz-adv-x="1024" d="M61 625l19 -129h883l-17 129h-885zM385 862q0 -49 37 -87t90 -38q51 0 87 38t36 87q0 53 -36 90t-87 37q-53 0 -90 -37t-37 -90zM389 227q0 -53 37 -90t88 -37q53 0 90 38t37 89t-37 88t-90 37q-51 0 -88 -35.5t-37 -89.5z" />
<glyph unicode="&#xf8;" horiz-adv-x="1112" d="M68 500q2 152 60 269.5t169 184t258 66.5q223 0 350 -142.5t127 -383.5q0 -152 -60.5 -270t-173 -184.5t-261.5 -66.5q-143 0 -250 66.5t-163 186.5t-56 274zM231 502q0 -195 101 -305l346 661q-55 25 -125 25q-147 0 -233.5 -107.5t-88.5 -273.5zM453 123q43 -12 92 -12 q147 0 233 107.5t88 273.5q0 174 -75 276z" />
<glyph unicode="&#xf9;" d="M121 322q0 -160 76.5 -255.5t234.5 -95.5q94 0 198.5 49.5t176.5 122.5l27 -143h120v995h-161v-704q-72 -78 -165 -129t-167 -51q-96 0 -137 61t-41 172v649h-162v-671zM344 1526l181 -320l108 31l-110 289h-179z" />
<glyph unicode="&#xfa;" d="M121 322q0 -160 76.5 -255.5t234.5 -95.5q94 0 198.5 49.5t176.5 122.5l27 -143h120v995h-161v-704q-72 -78 -165 -129t-167 -51q-96 0 -137 61t-41 172v649h-162v-671zM417 1237l109 -31l180 320h-178z" />
<glyph unicode="&#xfb;" d="M121 322q0 -160 76.5 -255.5t234.5 -95.5q94 0 198.5 49.5t176.5 122.5l27 -143h120v995h-161v-704q-72 -78 -165 -129t-167 -51q-96 0 -137 61t-41 172v649h-162v-671zM227 1227l146 -21l153 201l154 -201l148 21l-238 299h-129z" />
<glyph unicode="&#xfc;" d="M121 322q0 -160 76.5 -255.5t234.5 -95.5q94 0 198.5 49.5t176.5 122.5l27 -143h120v995h-161v-704q-72 -78 -165 -129t-167 -51q-96 0 -137 61t-41 172v649h-162v-671zM245 1358q0 -41 30 -71t71 -30q43 0 71.5 30t28.5 71t-28.5 69.5t-71.5 28.5q-41 0 -71 -29.5 t-30 -68.5zM585 1358q0 -41 29 -71t70 -30q43 0 71.5 30t28.5 71t-28.5 69.5t-71.5 28.5q-39 0 -69 -28.5t-30 -69.5z" />
<glyph unicode="&#xfd;" horiz-adv-x="933" d="M20 963l369 -957l-61 -170q-23 -61 -69 -93t-142 -77l49 -117q109 23 191.5 88.5t117.5 157.5l438 1198h-163l-285 -768l-301 799zM344 1237l109 -31l180 320h-178z" />
<glyph unicode="&#xfe;" horiz-adv-x="1075" d="M141 -449v1874l162 21v-504q55 37 115.5 57.5t116.5 20.5q221 0 347 -144.5t126 -381.5q0 -152 -58.5 -270t-166 -184.5t-253.5 -66.5q-109 0 -227 78v-477zM303 197q49 -41 104.5 -63.5t127.5 -22.5q147 0 227 106.5t82 274.5q0 176 -79 283.5t-228 107.5 q-74 0 -129.5 -23.5t-104.5 -71.5v-591z" />
<glyph unicode="&#xff;" horiz-adv-x="933" d="M20 963l369 -957l-61 -170q-23 -61 -69 -93t-142 -77l49 -117q109 23 191.5 88.5t117.5 157.5l438 1198h-163l-285 -768l-301 799zM172 1358q0 -41 30 -71t71 -30q43 0 71.5 30t28.5 71t-28.5 69.5t-71.5 28.5q-41 0 -71 -29.5t-30 -68.5zM512 1358q0 -41 29 -71t70 -30 q43 0 71.5 30t28.5 71t-28.5 69.5t-71.5 28.5q-39 0 -69 -28.5t-30 -69.5z" />
<glyph unicode="&#x100;" horiz-adv-x="1247" d="M20 0h158l146 395h587l156 -409l160 26l-535 1381h-155zM352 1604h504l-16 129h-488v-129zM369 526l243 654l252 -654h-495z" />
<glyph unicode="&#x101;" horiz-adv-x="999" d="M102 283q0 -137 87 -223.5t253 -86.5q78 0 160 38t137 89l21 -100h121v686q0 96 -49.5 172t-137.5 119t-200 43q-68 0 -171.5 -24.5t-156.5 -61.5l47 -123q74 33 136.5 50.5t150.5 17.5q113 0 165 -63.5t52 -174.5v-55h-256q-162 0 -260.5 -80t-98.5 -223zM235 1296h504 l-14 129h-490v-129zM252 283q0 82 54 138t151 56h262v-225q-55 -66 -128 -107t-153 -41q-92 0 -139 53.5t-47 125.5z" />
<glyph unicode="&#x102;" horiz-adv-x="1247" d="M20 0h158l146 395h587l156 -409l160 26l-535 1381h-155zM335 1817q0 -121 70 -202t205 -83q137 2 206.5 83t69.5 202h-116q0 -64 -43 -114t-117 -50t-116 50t-42 114h-117zM369 526l243 654l252 -654h-495z" />
<glyph unicode="&#x103;" horiz-adv-x="999" d="M102 283q0 -137 87 -223.5t253 -86.5q78 0 160 38t137 89l21 -100h121v686q0 96 -49.5 172t-137.5 119t-200 43q-68 0 -171.5 -24.5t-156.5 -61.5l47 -123q74 33 136.5 50.5t150.5 17.5q113 0 165 -63.5t52 -174.5v-55h-256q-162 0 -260.5 -80t-98.5 -223zM219 1509 q0 -121 70 -201.5t205 -82.5q137 2 206.5 83t69.5 201h-116q0 -63 -43 -113t-117 -50t-116 50t-42 113h-117zM252 283q0 82 54 138t151 56h262v-225q-55 -66 -128 -107t-153 -41q-92 0 -139 53.5t-47 125.5z" />
<glyph unicode="&#x104;" horiz-adv-x="1247" d="M20 0l517 1393h155l535 -1381q-49 -37 -86 -99.5t-37 -113.5q0 -49 26.5 -72.5t69.5 -23.5q53 0 105 41l53 -98q-70 -63 -174 -64q-96 0 -157.5 57.5t-61.5 147.5q0 49 27.5 108.5t70.5 102.5l-152 397h-587l-146 -395h-158zM369 526h495l-252 654z" />
<glyph unicode="&#x105;" horiz-adv-x="999" d="M102 283q0 143 98.5 223t260.5 80h256v55q0 111 -52.5 174.5t-164.5 63.5q-88 0 -150.5 -17.5t-136.5 -50.5l-47 123q53 37 156.5 61.5t171.5 24.5q113 0 200.5 -43t137 -119t49.5 -172v-686q-49 -37 -86 -99.5t-37 -111.5t26.5 -72.5t69.5 -23.5q57 0 104 41l54 -101 q-68 -61 -174 -61q-96 0 -158 57.5t-62 147.5q0 61 38 129.5t98 122.5l-15 71q-55 -51 -137 -89t-160 -38q-166 0 -253 86t-87 224zM252 283q0 -72 47 -125.5t139 -53.5q80 0 153 41t128 107v225h-262q-96 0 -150.5 -56t-54.5 -138z" />
<glyph unicode="&#x106;" horiz-adv-x="1140" d="M88 688q0 -197 74 -360.5t219 -260t350 -96.5q88 0 193.5 23.5t169.5 56.5l-62 123q-63 -29 -136 -45t-171 -16q-143 0 -249.5 76.5t-162 208.5t-55.5 292q0 170 63.5 305t175 211t246.5 76q96 0 155.5 -13.5t141.5 -43.5l52 116q-60 37 -166.5 58.5t-182.5 21.5 q-197 0 -346 -96t-229 -263t-80 -374zM649 1544l109 -31l180 320h-178z" />
<glyph unicode="&#x107;" horiz-adv-x="937" d="M68 500q0 -154 57 -274t165.5 -186.5t256.5 -66.5q68 0 166 26t159 64l-51 117q-71 -37 -128.5 -53t-147.5 -16q-150 0 -232 108.5t-82 282.5q2 166 88.5 273.5t233.5 107.5q86 0 140.5 -16.5t135.5 -51.5l50 115q-59 39 -156.5 64.5t-165.5 25.5q-147 0 -258 -66.5 t-171 -184.5t-60 -269zM411 1237l109 -31l180 320h-178z" />
<glyph unicode="&#x10c;" horiz-adv-x="1140" d="M88 688q0 -197 74 -360.5t219 -260t350 -96.5q88 0 193.5 23.5t169.5 56.5l-62 123q-63 -29 -136 -45t-171 -16q-143 0 -249.5 76.5t-162 208.5t-55.5 292q0 170 63.5 305t175 211t246.5 76q96 0 155.5 -13.5t141.5 -43.5l52 116q-60 37 -166.5 58.5t-182.5 21.5 q-197 0 -346 -96t-229 -263t-80 -374zM442 1812l238 -299h129l234 299l-146 21l-153 -201l-154 201z" />
<glyph unicode="&#x10d;" horiz-adv-x="937" d="M68 500q0 -154 57 -274t165.5 -186.5t256.5 -66.5q68 0 166 26t159 64l-51 117q-71 -37 -128.5 -53t-147.5 -16q-150 0 -232 108.5t-82 282.5q2 166 88.5 273.5t233.5 107.5q86 0 140.5 -16.5t135.5 -51.5l50 115q-59 39 -156.5 64.5t-165.5 25.5q-147 0 -258 -66.5 t-171 -184.5t-60 -269zM229 1505l238 -299h129l234 299l-146 21l-153 -201l-154 201z" />
<glyph unicode="&#x10e;" horiz-adv-x="1374" d="M190 0h476q198 0 338.5 92t212 251t71.5 362q0 307 -151.5 497.5t-458.5 190.5h-488v-1393zM352 135v1120h334q217 0 328.5 -151.5t111.5 -401.5q0 -174 -57 -302t-160.5 -196.5t-240.5 -68.5h-316zM358 1812l238 -299h129l234 299l-146 21l-153 -201l-154 201z" />
<glyph unicode="&#x10f;" horiz-adv-x="1386" d="M68 502q0 152 58 269.5t165.5 183t253.5 65.5q53 0 113.5 -20.5t115.5 -55.5v481l164 19v-1444h-98l-31 76q-61 -49 -133 -76t-135 -27q-221 0 -347 144.5t-126 384.5zM231 504q0 -178 79 -285.5t229 -107.5q73 0 129.5 23.5t105.5 72.5v588q-98 88 -233 88 q-147 0 -227.5 -105.5t-82.5 -273.5zM1073 1067q55 39 85 78t36 92q-39 2 -66.5 36t-27.5 75q0 43 33.5 76.5t78.5 33.5t79 -36t34 -93q0 -98 -61.5 -195.5t-147.5 -142.5z" />
<glyph unicode="&#x110;" horiz-adv-x="1374" d="M41 752h149v641h488q307 0 458.5 -190.5t151.5 -497.5q0 -203 -71.5 -362t-212 -251t-338.5 -92h-476v625h-131zM352 135h316q137 0 240.5 68.5t160.5 196.5t57 302q0 250 -111.5 401.5t-328.5 151.5h-334v-503h207l19 -127h-226v-490z" />
<glyph unicode="&#x111;" horiz-adv-x="1085" d="M68 502q0 152 58 269.5t165.5 183t253.5 65.5q53 0 113.5 -20.5t115.5 -55.5v205h-190l-19 117h209v159l164 19v-178h143l17 -117h-160v-1149h-98l-31 76q-61 -49 -133 -76t-135 -27q-221 0 -347 144.5t-126 384.5zM231 504q0 -178 79 -285.5t229 -107.5q73 0 129.5 23.5 t105.5 72.5v588q-98 88 -233 88q-147 0 -227.5 -105.5t-82.5 -273.5z" />
<glyph unicode="&#x112;" horiz-adv-x="1071" d="M190 0h840l-20 129h-658v522h500l-18 121h-482v500h617l-19 121h-760v-1393zM327 1604h504l-16 129h-488v-129z" />
<glyph unicode="&#x113;" horiz-adv-x="1021" d="M68 500q0 -240 133 -383.5t387 -143.5q102 0 186 28t168 75l-51 119q-92 -45 -158.5 -65.5t-146.5 -20.5q-176 0 -261 97t-92 265h721q0 246 -103 397.5t-321 151.5q-143 0 -248.5 -66.5t-159.5 -184.5t-54 -269zM238 582q14 139 86.5 220t199.5 81q236 0 271 -301h-557z M262 1296h504l-14 129h-490v-129z" />
<glyph unicode="&#x116;" horiz-adv-x="1071" d="M190 0h840l-20 129h-658v522h500l-18 121h-482v500h617l-19 121h-760v-1393zM473 1671q0 -45 33 -77.5t80 -32.5q45 0 77 32.5t32 77.5t-32 79t-77 34t-79 -34t-34 -79z" />
<glyph unicode="&#x117;" horiz-adv-x="1021" d="M68 500q0 -240 133 -383.5t387 -143.5q102 0 186 28t168 75l-51 119q-92 -45 -158.5 -65.5t-146.5 -20.5q-176 0 -261 97t-92 265h721q0 246 -103 397.5t-321 151.5q-143 0 -248.5 -66.5t-159.5 -184.5t-54 -269zM238 582q14 139 86.5 220t199.5 81q236 0 271 -301h-557z M413 1364q0 -45 33 -78t80 -33q45 0 77 33t32 78t-32 79t-77 34t-79 -34t-34 -79z" />
<glyph unicode="&#x118;" horiz-adv-x="1071" d="M190 0v1393h760l19 -121h-617v-500h482l18 -121h-500v-522h658l20 -129h-133q-47 -37 -81 -97.5t-34 -109.5t27 -72.5t68 -23.5q55 0 106 41l53 -100q-68 -61 -176 -62q-96 0 -157.5 57.5t-61.5 147.5q0 51 30.5 113.5t78.5 105.5h-560z" />
<glyph unicode="&#x119;" horiz-adv-x="1021" d="M68 500q0 152 54 269.5t159.5 184t248.5 66.5q217 0 320.5 -151.5t103.5 -397.5h-721q6 -168 91.5 -265t261.5 -97q80 0 146.5 20.5t158.5 65.5l51 -119q-94 -53 -178 -78q-45 -37 -79 -97.5t-34 -107.5q0 -49 27 -72.5t67 -23.5q55 0 107 41l53 -100q-68 -61 -176 -62 q-96 0 -157.5 57.5t-61.5 147.5q0 43 22.5 95t59.5 97h-4q-254 0 -387 143.5t-133 383.5zM238 582h557q-35 301 -271 301q-127 0 -199.5 -81t-86.5 -220z" />
<glyph unicode="&#x11a;" horiz-adv-x="1071" d="M190 0h840l-20 129h-658v522h500l-18 121h-482v500h617l-19 121h-760v-1393zM286 1812l238 -299h129l234 299l-146 21l-153 -201l-154 201z" />
<glyph unicode="&#x11b;" horiz-adv-x="1021" d="M68 500q0 -240 133 -383.5t387 -143.5q102 0 186 28t168 75l-51 119q-92 -45 -158.5 -65.5t-146.5 -20.5q-176 0 -261 97t-92 265h721q0 246 -103 397.5t-321 151.5q-143 0 -248.5 -66.5t-159.5 -184.5t-54 -269zM231 1505l238 -299h129l234 299l-146 21l-153 -201 l-154 201zM238 582q14 139 86.5 220t199.5 81q236 0 271 -301h-557z" />
<glyph unicode="&#x11e;" horiz-adv-x="1284" d="M88 688q0 -203 86 -365.5t245 -257t367 -94.5q102 0 213 28t177 69l2 649h-449l-14 -121h307v-442q-115 -41 -238 -41q-150 0 -269.5 70.5t-188 201.5t-68.5 305q0 182 77 316.5t203 205t271 70.5q94 0 153.5 -13.5t141.5 -43.5l51 116q-59 37 -166.5 58.5t-183.5 21.5 q-201 0 -365 -93t-258 -260t-94 -380zM479 1817q0 -121 70 -202t205 -83q137 2 206.5 83t69.5 202h-116q0 -64 -43 -114t-117 -50t-116 50t-42 114h-117z" />
<glyph unicode="&#x11f;" horiz-adv-x="1077" d="M68 502q0 152 58 269.5t165.5 183t253.5 65.5q61 0 130.5 -26.5t129.5 -71.5l35 71h98v-1102q0 -104 -53.5 -186t-155.5 -129t-240 -47q-70 0 -177 25.5t-169 64.5l50 119q80 -39 142 -57.5t148 -18.5q129 0 210 59.5t81 172.5v157q-55 -37 -117.5 -57.5t-115.5 -20.5 q-221 0 -347 144.5t-126 384.5zM231 504q0 -178 79 -285.5t229 -107.5q73 0 129.5 23.5t105.5 72.5v588q-98 88 -233 88q-147 0 -227.5 -105.5t-82.5 -273.5zM247 1509q0 -121 70 -201.5t205 -82.5q137 2 206.5 83t69.5 201h-116q0 -63 -43 -113t-117 -50t-116 50t-42 113 h-117z" />
<glyph unicode="&#x122;" horiz-adv-x="1284" d="M88 688q0 -203 86 -365.5t245 -257t367 -94.5q102 0 213 28t177 69l2 649h-449l-14 -121h307v-442q-115 -41 -238 -41q-150 0 -269.5 70.5t-188 201.5t-68.5 305q0 182 77 316.5t203 205t271 70.5q94 0 153.5 -13.5t141.5 -43.5l51 116q-59 37 -166.5 58.5t-183.5 21.5 q-201 0 -365 -93t-258 -260t-94 -380zM658 -414l43 -78q84 41 142.5 132.5t58.5 187.5q0 57 -33 93t-80 36q-45 0 -78 -34t-33 -79q0 -41 28 -73.5t66 -34.5q-8 -84 -114 -150z" />
<glyph unicode="&#x123;" horiz-adv-x="1077" d="M68 502q0 152 58 269.5t165.5 183t253.5 65.5q61 0 130.5 -26.5t129.5 -71.5l35 71h98v-1102q0 -104 -53.5 -186t-155.5 -129t-240 -47q-70 0 -177 25.5t-169 64.5l50 119q80 -39 142 -57.5t148 -18.5q129 0 210 59.5t81 172.5v157q-55 -37 -117.5 -57.5t-115.5 -20.5 q-221 0 -347 144.5t-126 384.5zM231 504q0 -178 79 -285.5t229 -107.5q73 0 129.5 23.5t105.5 72.5v588q-98 88 -233 88q-147 0 -227.5 -105.5t-82.5 -273.5zM428 1278q0 96 57.5 185t141.5 132l43 -77q-104 -63 -115 -150q37 -4 65.5 -37t28.5 -71q0 -45 -32.5 -79 t-77.5 -34q-47 0 -79 36t-32 95z" />
<glyph unicode="&#x12a;" horiz-adv-x="540" d="M14 1604h504l-16 129h-488v-129zM190 0h162v1393h-162v-1393z" />
<glyph unicode="&#x12b;" horiz-adv-x="419" d="M-54 1296h504l-14 129h-490v-129zM129 0h164v993h-164v-993z" />
<glyph unicode="&#x12e;" horiz-adv-x="540" d="M86 -223q0 53 28.5 117.5t75.5 105.5v1393h162v-1393q-49 -37 -87 -99.5t-38 -111.5t27 -72.5t68 -23.5q55 0 106 41l53 -101q-68 -61 -176 -61q-96 0 -157.5 57.5t-61.5 147.5z" />
<glyph unicode="&#x12f;" horiz-adv-x="419" d="M27 -223q0 55 27.5 118.5t74.5 104.5v993h164v-993q-49 -37 -87 -99.5t-38 -111.5t26.5 -72.5t67.5 -23.5q55 0 107 41l53 -101q-68 -61 -176 -61q-96 0 -157.5 57.5t-61.5 147.5zM98 1364q0 45 34 79t79 34t76.5 -34t31.5 -79t-31.5 -78t-76.5 -33q-47 0 -80 33t-33 78z " />
<glyph unicode="&#x130;" horiz-adv-x="540" d="M159 1671q0 -45 33 -77.5t80 -32.5q45 0 77 32.5t32 77.5t-32 79t-77 34t-79 -34t-34 -79zM190 0h162v1393h-162v-1393z" />
<glyph unicode="&#x131;" horiz-adv-x="419" d="M129 0h164v993h-164v-993z" />
<glyph unicode="&#x136;" horiz-adv-x="1247" d="M190 0v1393h162v-676l672 706l111 -96l-519 -543l611 -784h-195l-522 670l-158 -166v-504h-162zM563 -414l43 -78q84 41 142.5 132.5t58.5 187.5q0 57 -33 93t-80 36q-45 0 -78 -34t-33 -79q0 -41 28 -73.5t66 -34.5q-8 -84 -114 -150z" />
<glyph unicode="&#x137;" horiz-adv-x="966" d="M150 0h161v373l138 137l327 -510h191l-410 616l303 302l-98 102l-451 -453v879l-161 -21v-1425zM410 -414l43 -78q84 41 142.5 132.5t58.5 187.5q0 57 -33 93t-80 36q-45 0 -78 -34t-33 -79q0 -41 28 -73.5t66 -34.5q-8 -84 -114 -150z" />
<glyph unicode="&#x139;" horiz-adv-x="1036" d="M190 0h826l-17 129h-647v1264h-162v-1393zM258 1544l109 -31l180 320h-178z" />
<glyph unicode="&#x13a;" horiz-adv-x="458" d="M150 0h161v1403l-161 -25v-1378zM176 1544l109 -31l178 320h-176z" />
<glyph unicode="&#x13b;" horiz-adv-x="1036" d="M190 0h826l-17 129h-647v1264h-162v-1393zM576 -414l43 -78q84 41 142.5 132.5t58.5 187.5q0 57 -33 93t-80 36q-45 0 -78 -34t-33 -79q0 -41 28 -73.5t66 -34.5q-8 -84 -114 -150z" />
<glyph unicode="&#x13c;" horiz-adv-x="458" d="M103 -414l43 -78q84 41 142.5 132.5t58.5 187.5q0 57 -33 93t-80 36q-45 0 -78 -34t-33 -79q0 -41 28 -73.5t66 -34.5q-8 -84 -114 -150zM150 0h161v1446l-161 -21v-1425z" />
<glyph unicode="&#x13d;" horiz-adv-x="1036" d="M190 0h826l-17 129h-647v1264h-162v-1393zM674 1067l43 -76q86 45 147.5 142.5t61.5 195.5q0 57 -34 93t-79 36t-78.5 -33.5t-33.5 -76.5q0 -41 27.5 -75t66.5 -36q-6 -53 -36 -92t-85 -78z" />
<glyph unicode="&#x13e;" horiz-adv-x="759" d="M150 0h161v1446l-161 -21v-1425zM446 1067l43 -76q86 45 147.5 142.5t61.5 195.5q0 57 -33.5 93t-78.5 36t-79 -33.5t-34 -76.5q0 -41 27.5 -75t66.5 -36q-6 -53 -35.5 -92t-85.5 -78z" />
<glyph unicode="&#x141;" horiz-adv-x="1026" d="M31 532l149 125v736h162v-600l233 196l72 -104l-305 -258v-498h647l17 -129h-826v492l-78 -66z" />
<glyph unicode="&#x142;" horiz-adv-x="612" d="M0 575l72 -106l155 133v-602h162v735l223 193l-69 104l-154 -133v547l-162 -21v-659z" />
<glyph unicode="&#x143;" horiz-adv-x="1433" d="M190 0h162v1094l54 -93l708 -1001h131v1393h-164v-1080l-84 138l-678 942h-129v-1393zM626 1544l109 -31l180 320h-178z" />
<glyph unicode="&#x144;" d="M129 0h162v705q72 78 165 129t167 51q96 0 137 -61.5t41 -172.5v-649h162v672q0 160 -77 255t-235 95q-94 0 -198.5 -49t-176.5 -123l-26 141h-121v-993zM450 1237l109 -31l180 320h-178z" />
<glyph unicode="&#x145;" horiz-adv-x="1433" d="M190 0h162v1094l54 -93l708 -1001h131v1393h-164v-1080l-84 138l-678 942h-129v-1393zM602 -414l43 -78q84 41 142.5 132.5t58.5 187.5q0 57 -33 93t-80 36q-45 0 -78 -34t-33 -79q0 -41 28 -73.5t66 -34.5q-8 -84 -114 -150z" />
<glyph unicode="&#x146;" d="M129 0h162v705q72 78 165 129t167 51q96 0 137 -61.5t41 -172.5v-649h162v672q0 160 -77 255t-235 95q-94 0 -198.5 -49t-176.5 -123l-26 141h-121v-993zM432 -414l43 -78q84 41 142.5 132.5t58.5 187.5q0 57 -33 93t-80 36q-45 0 -78 -34t-33 -79q0 -41 28 -73.5 t66 -34.5q-8 -84 -114 -150z" />
<glyph unicode="&#x147;" horiz-adv-x="1433" d="M190 0h162v1094l54 -93l708 -1001h131v1393h-164v-1080l-84 138l-678 942h-129v-1393zM419 1812l238 -299h129l234 299l-146 21l-153 -201l-154 201z" />
<glyph unicode="&#x148;" d="M129 0h162v705q72 78 165 129t167 51q96 0 137 -61.5t41 -172.5v-649h162v672q0 160 -77 255t-235 95q-94 0 -198.5 -49t-176.5 -123l-26 141h-121v-993zM268 1505l238 -299h129l234 299l-146 21l-153 -201l-154 201z" />
<glyph unicode="&#x14c;" horiz-adv-x="1484" d="M88 690q0 -207 84 -370.5t231.5 -256t333.5 -92.5q188 2 340 98.5t237 263.5t85 374t-84 370.5t-233.5 255.5t-336.5 92q-188 -4 -337.5 -100t-234.5 -262t-85 -373zM258 692q0 170 63.5 304t175 211t253.5 77q137 0 244.5 -74.5t169 -207t61.5 -297.5 q0 -170 -63.5 -305.5t-175.5 -211t-253 -75.5q-137 0 -244.5 74.5t-169 206.5t-61.5 298zM485 1604h504l-16 129h-488v-129z" />
<glyph unicode="&#x14d;" horiz-adv-x="1097" d="M68 500q2 152 60 269.5t169 184t258 66.5q223 0 350 -142.5t127 -383.5q0 -152 -60.5 -270t-173 -184.5t-261.5 -66.5q-143 0 -250 66.5t-163 186.5t-56 274zM231 502q0 -174 82 -282.5t232 -108.5q147 0 233 107.5t88 273.5q0 176 -82 283.5t-231 107.5 q-147 0 -233.5 -107.5t-88.5 -273.5zM286 1296h504l-14 129h-490v-129z" />
<glyph unicode="&#x150;" horiz-adv-x="1484" d="M88 690q0 -207 84 -370.5t231.5 -256t333.5 -92.5q188 2 340 98.5t237 263.5t85 374t-84 370.5t-233.5 255.5t-336.5 92q-188 -4 -337.5 -100t-234.5 -262t-85 -373zM258 692q0 170 63.5 304t175 211t253.5 77q137 0 244.5 -74.5t169 -207t61.5 -297.5 q0 -170 -63.5 -305.5t-175.5 -211t-253 -75.5q-137 0 -244.5 74.5t-169 206.5t-61.5 298zM503 1544l109 -31l180 320h-178zM817 1544l108 -31l181 320h-179z" />
<glyph unicode="&#x151;" horiz-adv-x="1097" d="M68 500q2 152 60 269.5t169 184t258 66.5q223 0 350 -142.5t127 -383.5q0 -152 -60.5 -270t-173 -184.5t-261.5 -66.5q-143 0 -250 66.5t-163 186.5t-56 274zM231 502q0 -174 82 -282.5t232 -108.5q147 0 233 107.5t88 273.5q0 176 -82 283.5t-231 107.5 q-147 0 -233.5 -107.5t-88.5 -273.5zM311 1237l109 -31l180 320h-178zM625 1237l108 -31l181 320h-179z" />
<glyph unicode="&#x152;" horiz-adv-x="1908" d="M88 688q0 207 80 374t229.5 263t345.5 96q57 0 139.5 -13t145.5 -36v21h760l18 -121h-616v-500h481l19 -121h-500v-522h657l21 -129h-840v23q-66 -23 -147.5 -37.5t-149.5 -14.5q-205 0 -350 96.5t-219 260.5t-74 360zM258 690q0 -160 55.5 -292t162 -208.5t249.5 -76.5 q96 0 167 15t136 44v1057q-74 29 -133 41t-152 12q-135 0 -246.5 -76t-175 -211t-63.5 -305z" />
<glyph unicode="&#x153;" horiz-adv-x="1626" d="M68 500q0 152 60 269.5t171 184t258 66.5q63 0 154.5 -22.5t152.5 -59.5q111 82 271 82q217 0 320.5 -151.5t103.5 -397.5h-721q6 -168 91 -265t261 -97q80 0 146.5 20.5t158.5 65.5l51 -119q-84 -47 -168 -75t-186 -28q-199 0 -324 88q-61 -37 -158.5 -62.5 t-162.5 -25.5q-147 0 -256 66.5t-166 186.5t-57 274zM231 502q0 -174 82 -282.5t232 -108.5q73 0 124.5 11t100.5 34q-98 135 -98 344q0 205 96 342q-104 41 -215 41q-147 0 -233.5 -107.5t-88.5 -273.5zM842 582h557q-35 301 -271 301q-127 0 -199.5 -81t-86.5 -220z" />
<glyph unicode="&#x154;" horiz-adv-x="1212" d="M190 0h162v571h197q72 0 145 9l320 -580h178l-354 623q113 47 178 138t67 226q0 209 -139 307.5t-375 98.5h-379v-1393zM352 705v550h219q166 0 256.5 -60t90.5 -214q-2 -147 -101.5 -211.5t-261.5 -64.5h-203zM477 1544l109 -31l180 320h-178z" />
<glyph unicode="&#x155;" horiz-adv-x="663" d="M129 0h162v684q70 72 170 126t182 54l-39 129q-72 0 -166 -51t-162 -108l-51 159h-96v-993zM221 1237l109 -31l180 320h-178z" />
<glyph unicode="&#x156;" horiz-adv-x="1212" d="M190 0h162v571h197q72 0 145 9l320 -580h178l-354 623q113 47 178 138t67 226q0 209 -139 307.5t-375 98.5h-379v-1393zM352 705v550h219q166 0 256.5 -60t90.5 -214q-2 -147 -101.5 -211.5t-261.5 -64.5h-203zM539 -414l43 -78q84 41 142.5 132.5t58.5 187.5 q0 57 -33 93t-80 36q-45 0 -78 -34t-33 -79q0 -41 28 -73.5t66 -34.5q-8 -84 -114 -150z" />
<glyph unicode="&#x157;" horiz-adv-x="663" d="M84 -414l43 -78q84 41 142.5 132.5t58.5 187.5q0 57 -33 93t-80 36q-45 0 -78 -34t-33 -79q0 -41 28 -73.5t66 -34.5q-8 -84 -114 -150zM129 0h162v684q70 72 170 126t182 54l-39 129q-72 0 -166 -51t-162 -108l-51 159h-96v-993z" />
<glyph unicode="&#x158;" horiz-adv-x="1212" d="M190 0h162v571h197q72 0 145 9l320 -580h178l-354 623q113 47 178 138t67 226q0 209 -139 307.5t-375 98.5h-379v-1393zM270 1812l238 -299h129l234 299l-146 21l-153 -201l-154 201zM352 705v550h219q166 0 256.5 -60t90.5 -214q-2 -147 -101.5 -211.5t-261.5 -64.5 h-203z" />
<glyph unicode="&#x159;" horiz-adv-x="663" d="M38 1505l238 -299h129l234 299l-146 21l-153 -201l-154 201zM129 0h162v684q70 72 170 126t182 54l-39 129q-72 0 -166 -51t-162 -108l-51 159h-96v-993z" />
<glyph unicode="&#x15a;" horiz-adv-x="1050" d="M88 1075q0 -139 89 -235.5t280 -177.5q133 -57 209.5 -101.5t117.5 -98.5t41 -126q0 -100 -87 -162.5t-246 -62.5q-90 0 -183.5 25.5t-158.5 58.5l-39 -127q55 -37 173.5 -66t209.5 -29q152 0 263 47.5t169.5 129t58.5 188.5q0 98 -41 169t-120 126t-208 115 q-143 66 -216.5 108.5t-113.5 95t-40 125.5q0 98 81 153.5t216 55.5q90 0 152.5 -18.5t138.5 -53.5l55 125q-72 37 -165 61.5t-192 24.5q-133 0 -234 -46t-155.5 -125.5t-54.5 -178.5zM438 1544l109 -31l180 320h-178z" />
<glyph unicode="&#x15b;" horiz-adv-x="860" d="M72 739q0 -109 90 -178t233 -117q246 -82 246 -192q0 -70 -65.5 -109t-178.5 -39q-129 0 -268 70l-51 -117q55 -39 151.5 -61.5t165.5 -22.5q193 0 296.5 76t103.5 213q0 193 -334 316q-111 37 -170.5 75.5t-61.5 91.5q0 63 58.5 103.5t150.5 40.5q76 0 135.5 -18.5 t126.5 -49.5l52 111q-53 39 -146.5 63.5t-163.5 24.5q-172 0 -271 -75t-99 -206zM325 1237l109 -31l180 320h-178z" />
<glyph unicode="&#x15e;" horiz-adv-x="1050" d="M88 1075q0 98 54.5 178t155.5 126t234 46q98 0 191.5 -24.5t165.5 -61.5l-55 -125q-76 35 -138.5 53.5t-152.5 18.5q-135 0 -216 -55t-81 -154q0 -74 40 -126t113.5 -95t216.5 -108q129 -59 208 -114.5t120 -126.5t41 -169q0 -152 -116.5 -251t-323.5 -112l-29 -73 q66 -12 113 -61.5t47 -104.5q0 -92 -68.5 -140.5t-169.5 -48.5q-37 0 -85 12.5t-77 30.5l39 103q25 -10 60 -20.5t63 -10.5q41 0 74 18.5t33 51.5q0 39 -52.5 67.5t-130.5 36.5l56 141q-88 10 -176 36t-131 55l39 127q66 -33 158.5 -58.5t183.5 -25.5q160 0 246.5 62.5 t86.5 162.5q0 72 -41 126t-117.5 98t-209.5 102q-190 82 -279.5 178t-89.5 235z" />
<glyph unicode="&#x15f;" horiz-adv-x="860" d="M72 739q0 131 99 206t271 75q70 0 163 -24.5t147 -63.5l-52 -111q-68 31 -127 49.5t-135 18.5q-92 0 -150.5 -40t-58.5 -104q2 -53 61.5 -92t170.5 -75q334 -123 334 -316q0 -125 -89.5 -200.5t-252.5 -86.5l-29 -73q66 -12 113 -61.5t47 -104.5q0 -92 -69 -140.5 t-169 -48.5q-37 0 -85 12.5t-77 30.5l39 103q25 -10 59.5 -20.5t63.5 -10.5q41 0 74 18.5t33 51.5q0 39 -52.5 67.5t-130.5 36.5l56 141q-68 8 -136.5 29t-111.5 51l51 117q139 -70 268 -70q113 0 178.5 39t65.5 109q0 111 -246 192q-143 47 -233 117t-90 178z" />
<glyph unicode="&#x160;" horiz-adv-x="1050" d="M88 1075q0 -139 89 -235.5t280 -177.5q133 -57 209.5 -101.5t117.5 -98.5t41 -126q0 -100 -87 -162.5t-246 -62.5q-90 0 -183.5 25.5t-158.5 58.5l-39 -127q55 -37 173.5 -66t209.5 -29q152 0 263 47.5t169.5 129t58.5 188.5q0 98 -41 169t-120 126t-208 115 q-143 66 -216.5 108.5t-113.5 95t-40 125.5q0 98 81 153.5t216 55.5q90 0 152.5 -18.5t138.5 -53.5l55 125q-72 37 -165 61.5t-192 24.5q-133 0 -234 -46t-155.5 -125.5t-54.5 -178.5zM231 1812l238 -299h129l234 299l-146 21l-153 -201l-154 201z" />
<glyph unicode="&#x161;" horiz-adv-x="860" d="M72 739q0 -109 90 -178t233 -117q246 -82 246 -192q0 -70 -65.5 -109t-178.5 -39q-129 0 -268 70l-51 -117q55 -39 151.5 -61.5t165.5 -22.5q193 0 296.5 76t103.5 213q0 193 -334 316q-111 37 -170.5 75.5t-61.5 91.5q0 63 58.5 103.5t150.5 40.5q76 0 135.5 -18.5 t126.5 -49.5l52 111q-53 39 -146.5 63.5t-163.5 24.5q-172 0 -271 -75t-99 -206zM143 1505l238 -299h129l234 299l-146 21l-153 -201l-154 201z" />
<glyph unicode="&#x162;" horiz-adv-x="1153" d="M20 1266v127h1094l19 -127h-482v-1266h-12l-39 -98q66 -13 113 -62t47 -104q0 -92 -68.5 -140.5t-169.5 -48.5q-37 0 -85 12.5t-77 30.5l39 103q25 -10 60 -20.5t63 -10.5q41 0 74 18.5t33 51.5q0 39 -52.5 67.5t-130.5 36.5l64 164h-23v1266h-467z" />
<glyph unicode="&#x163;" horiz-adv-x="655" d="M33 977h145v254l162 45v-299h180l53 -123h-233v-573q0 -80 35 -125t106 -45q39 0 90 20l37 -127q-74 -35 -151 -35h-13l-26 -67q65 -13 112.5 -62t47.5 -104q0 -92 -69 -140.5t-169 -48.5q-37 0 -85 12.5t-77 30.5l39 103q25 -10 59.5 -20.5t63.5 -10.5q41 0 73.5 18.5 t32.5 51.5q0 39 -52 67.5t-130 36.5l62 158q-70 31 -109 98.5t-39 165.5v596h-143z" />
<glyph unicode="&#x164;" horiz-adv-x="1153" d="M20 1266h467v-1266h164v1266h482l-19 127h-1094v-127zM272 1812l238 -299h129l234 299l-146 21l-153 -201l-154 201z" />
<glyph unicode="&#x165;" horiz-adv-x="901" d="M33 977l2 -123h143v-596q0 -139 75 -214t204 -75q78 0 151 35l-37 127q-51 -20 -90 -20q-72 0 -106.5 45t-34.5 125v573h233l-53 123h-180v299l-162 -45v-254h-145zM588 1067l43 -76q86 45 147.5 142.5t61.5 195.5q0 57 -34 93t-79 36t-79 -33.5t-34 -76.5q0 -41 28 -75 t67 -36q-6 -53 -36 -92t-85 -78z" />
<glyph unicode="&#x16a;" horiz-adv-x="1396" d="M170 494q0 -150 64.5 -266.5t184.5 -184.5t279 -68q160 0 280 67t184.5 185.5t64.5 266.5v899h-164v-881q0 -178 -98.5 -288.5t-266.5 -110.5q-166 0 -266 110.5t-100 288.5v881h-162v-899zM438 1604h504l-16 129h-488v-129z" />
<glyph unicode="&#x16b;" d="M121 322q0 -160 76.5 -255.5t234.5 -95.5q94 0 198.5 49.5t176.5 122.5l27 -143h120v995h-161v-704q-72 -78 -165 -129t-167 -51q-96 0 -137 61t-41 172v649h-162v-671zM266 1296h504l-14 129h-490v-129z" />
<glyph unicode="&#x16e;" horiz-adv-x="1396" d="M170 494q0 -150 64.5 -266.5t184.5 -184.5t279 -68q160 0 280 67t184.5 185.5t64.5 266.5v899h-164v-881q0 -178 -98.5 -288.5t-266.5 -110.5q-166 0 -266 110.5t-100 288.5v881h-162v-899zM505 1698q0 -74 56.5 -124t136.5 -50q78 0 133 50t55 124q0 78 -55 130t-133 52 q-80 0 -136.5 -52t-56.5 -130zM610 1698q0 39 25.5 63.5t62.5 24.5t61.5 -24.5t24.5 -63.5q0 -35 -25.5 -59.5t-60.5 -24.5q-37 0 -62.5 24.5t-25.5 59.5z" />
<glyph unicode="&#x16f;" d="M121 322q0 -160 76.5 -255.5t234.5 -95.5q94 0 198.5 49.5t176.5 122.5l27 -143h120v995h-161v-704q-72 -78 -165 -129t-167 -51q-96 0 -137 61t-41 172v649h-162v-671zM339 1391q0 -74 56.5 -124t136.5 -50q78 0 133 50t55 124q0 78 -55 130t-133 52q-80 0 -136.5 -52.5 t-56.5 -129.5zM444 1391q0 39 25.5 63.5t62.5 24.5t61.5 -24.5t24.5 -63.5q0 -35 -25.5 -59.5t-60.5 -24.5q-37 0 -62.5 24.5t-25.5 59.5z" />
<glyph unicode="&#x170;" horiz-adv-x="1396" d="M170 494q0 -150 64.5 -266.5t184.5 -184.5t279 -68q160 0 280 67t184.5 185.5t64.5 266.5v899h-164v-881q0 -178 -98.5 -288.5t-266.5 -110.5q-166 0 -266 110.5t-100 288.5v881h-162v-899zM456 1544l109 -31l180 320h-178zM770 1544l108 -31l181 320h-179z" />
<glyph unicode="&#x171;" d="M121 322q0 -160 76.5 -255.5t234.5 -95.5q94 0 198.5 49.5t176.5 122.5l27 -143h120v995h-161v-704q-72 -78 -165 -129t-167 -51q-96 0 -137 61t-41 172v649h-162v-671zM290 1237l109 -31l180 320h-178zM604 1237l108 -31l181 320h-179z" />
<glyph unicode="&#x172;" horiz-adv-x="1396" d="M170 494v899h162v-881q0 -178 100 -288.5t266 -110.5q168 0 266.5 110.5t98.5 288.5v881h164v-899q0 -141 -58.5 -255t-167 -182.5t-253.5 -79.5q-39 -39 -65 -91t-26 -93q0 -49 27 -72.5t68 -23.5q55 0 106 41l53 -100q-68 -61 -176 -62q-96 0 -157.5 57.5t-61.5 147.5 q0 45 25.5 101.5t64.5 99.5q-201 29 -318.5 168t-117.5 344z" />
<glyph unicode="&#x173;" d="M121 322v671h162v-649q0 -111 41 -172t137 -61q74 0 167 51t165 129v704h161v-995q-49 -35 -84.5 -98.5t-35.5 -112.5t26.5 -72.5t67.5 -23.5q55 0 106 41l53 -101q-68 -61 -176 -61q-96 0 -157.5 57.5t-61.5 147.5q0 61 39 128.5t98 121.5l-22 116q-72 -74 -176.5 -123 t-198.5 -49q-158 0 -234.5 95.5t-76.5 255.5z" />
<glyph unicode="&#x178;" horiz-adv-x="1153" d="M20 1360l461 -801v-559h162l2 567l488 826h-175l-395 -674l-391 706zM284 1665q0 -41 30 -70.5t71 -29.5q43 0 71.5 29.5t28.5 70.5t-28.5 69.5t-71.5 28.5q-41 0 -71 -29.5t-30 -68.5zM624 1665q0 -41 29 -70.5t70 -29.5q43 0 71.5 29.5t28.5 70.5t-28.5 69.5 t-71.5 28.5q-39 0 -69 -28.5t-30 -69.5z" />
<glyph unicode="&#x179;" horiz-adv-x="1150" d="M47 129l16 -129h1022l-14 129h-846l879 1137l-14 127h-988l25 -127h797zM516 1544l109 -31l180 320h-178z" />
<glyph unicode="&#x17a;" horiz-adv-x="886" d="M43 84l20 -84h777l-21 127h-577l602 780l-8 86h-744l39 -129h504zM348 1237l109 -31l180 320h-178z" />
<glyph unicode="&#x17b;" horiz-adv-x="1150" d="M47 129l16 -129h1022l-14 129h-846l879 1137l-14 127h-988l25 -127h797zM495 1671q0 -45 33 -77.5t80 -32.5q45 0 77 32.5t32 77.5t-32 79t-77 34t-79 -34t-34 -79z" />
<glyph unicode="&#x17c;" horiz-adv-x="886" d="M43 84l20 -84h777l-21 127h-577l602 780l-8 86h-744l39 -129h504zM348 1364q0 -45 33 -78t80 -33q45 0 77 33t32 78t-32 79t-77 34t-79 -34t-34 -79z" />
<glyph unicode="&#x17d;" horiz-adv-x="1150" d="M47 129l16 -129h1022l-14 129h-846l879 1137l-14 127h-988l25 -127h797zM309 1812l238 -299h129l234 299l-146 21l-153 -201l-154 201z" />
<glyph unicode="&#x17e;" horiz-adv-x="886" d="M43 84l20 -84h777l-21 127h-577l602 780l-8 86h-744l39 -129h504zM165 1505l238 -299h129l234 299l-146 21l-153 -201l-154 201z" />
<glyph unicode="&#x192;" horiz-adv-x="696" d="M0 -129q25 -14 69 -24.5t85 -10.5q127 0 200.5 83t73.5 222v709h236l-54 123h-182v149q0 80 34 125t105 45q20 0 47 -6t45 -14l37 131q-25 14 -67.5 24.5t-83.5 10.5q-129 0 -204 -83t-75 -222v-160h-149l2 -123h147v-700q0 -170 -139 -170q-20 0 -47 6t-43 14z" />
<glyph unicode="&#x218;" horiz-adv-x="1050" d="M88 1075q0 -139 89 -235.5t280 -177.5q133 -57 209.5 -101.5t117.5 -98.5t41 -126q0 -100 -87 -162.5t-246 -62.5q-90 0 -183.5 25.5t-158.5 58.5l-39 -127q55 -37 173.5 -66t209.5 -29q152 0 263 47.5t169.5 129t58.5 188.5q0 98 -41 169t-120 126t-208 115 q-143 66 -216.5 108.5t-113.5 95t-40 125.5q0 98 81 153.5t216 55.5q90 0 152.5 -18.5t138.5 -53.5l55 125q-72 37 -165 61.5t-192 24.5q-133 0 -234 -46t-155.5 -125.5t-54.5 -178.5zM365 -414l43 -78q84 41 142.5 132.5t58.5 187.5q0 57 -33 93t-80 36q-45 0 -78 -34 t-33 -79q0 -41 28 -73.5t66 -34.5q-8 -84 -114 -150z" />
<glyph unicode="&#x219;" horiz-adv-x="860" d="M72 739q0 -109 90 -178t233 -117q246 -82 246 -192q0 -70 -65.5 -109t-178.5 -39q-129 0 -268 70l-51 -117q55 -39 151.5 -61.5t165.5 -22.5q193 0 296.5 76t103.5 213q0 193 -334 316q-111 37 -170.5 75.5t-61.5 91.5q0 63 58.5 103.5t150.5 40.5q76 0 135.5 -18.5 t126.5 -49.5l52 111q-53 39 -146.5 63.5t-163.5 24.5q-172 0 -271 -75t-99 -206zM273 -414l43 -78q84 41 142.5 132.5t58.5 187.5q0 57 -33 93t-80 36q-45 0 -78 -34t-33 -79q0 -41 28 -73.5t66 -34.5q-8 -84 -114 -150z" />
<glyph unicode="&#x21a;" horiz-adv-x="1153" d="M20 1266h467v-1266h164v1266h482l-19 127h-1094v-127zM449 -414l43 -78q84 41 142.5 132.5t58.5 187.5q0 57 -33 93t-80 36q-45 0 -78 -34t-33 -79q0 -41 28 -73.5t66 -34.5q-8 -84 -114 -150z" />
<glyph unicode="&#x21b;" horiz-adv-x="655" d="M33 977l2 -123h143v-596q0 -139 75 -214t204 -75q78 0 151 35l-37 127q-51 -20 -90 -20q-72 0 -106.5 45t-34.5 125v573h233l-53 123h-180v299l-162 -45v-254h-145zM266 -414l43 -78q84 41 142.5 132.5t58.5 187.5q0 57 -33 93t-80 36q-45 0 -78 -34t-33 -79 q0 -41 28 -73.5t66 -34.5q-8 -84 -114 -150z" />
<glyph unicode="&#x2c6;" horiz-adv-x="641" d="M20 1227l146 -21l153 201l154 -201l148 21l-238 299h-129z" />
<glyph unicode="&#x2c7;" horiz-adv-x="641" d="M20 1505l238 -299h129l234 299l-146 21l-153 -201l-154 201z" />
<glyph unicode="&#x2c9;" horiz-adv-x="544" d="M20 1296h504l-14 129h-490v-129z" />
<glyph unicode="&#x2d8;" horiz-adv-x="591" d="M20 1509q0 -121 70 -201.5t205 -82.5q137 2 206.5 83t69.5 201h-116q0 -63 -43 -113t-117 -50t-116 50t-42 113h-117z" />
<glyph unicode="&#x2d9;" horiz-adv-x="262" d="M20 1364q0 -45 33 -78t80 -33q45 0 77 33t32 78t-32 79t-77 34t-79 -34t-34 -79z" />
<glyph unicode="&#x2da;" horiz-adv-x="421" d="M20 1391q0 -74 56.5 -124t136.5 -50q78 0 133 50t55 124q0 78 -55 130t-133 52q-80 0 -136.5 -52.5t-56.5 -129.5zM125 1391q0 39 25.5 63.5t62.5 24.5t61.5 -24.5t24.5 -63.5q0 -35 -25.5 -59.5t-60.5 -24.5q-37 0 -62.5 24.5t-25.5 59.5z" />
<glyph unicode="&#x2db;" horiz-adv-x="436" d="M20 -219q0 -90 61.5 -147.5t158.5 -57.5q109 0 176 62l-54 100q-51 -41 -106 -41q-41 0 -67.5 23.5t-26.5 72.5t35.5 112.5t85.5 98.5l-146 4q-49 -43 -83 -108.5t-34 -118.5z" />
<glyph unicode="&#x2dc;" horiz-adv-x="643" d="M20 1247h113q2 39 24.5 61.5t51.5 22.5q51 0 104 -47q47 -45 121 -45q84 0 134 47t50 154h-112q-2 -39 -22.5 -60.5t-49.5 -21.5q-53 0 -100 47q-45 43 -131 43q-182 0 -183 -201z" />
<glyph unicode="&#x2dd;" horiz-adv-x="643" d="M20 1237l109 -31l180 320h-178zM334 1237l108 -31l181 320h-179z" />
<glyph unicode="&#x3c0;" horiz-adv-x="1216" d="M20 864h201v-864h164v864h446v-864h162v864h203v129h-1176v-129z" />
<glyph unicode="&#xb82;" horiz-adv-x="0" d="M-238 1513q0 -96 71 -160.5t167 -64.5q98 0 169 64.5t71 160.5q0 98 -71 163t-169 65t-168 -64.5t-70 -163.5zM-117 1513q0 51 33 84t84 33t84 -32.5t33 -84.5q0 -49 -33 -80.5t-84 -31.5t-84 31.5t-33 80.5z" />
<glyph unicode="&#xb83;" horiz-adv-x="1392" d="M109 197q0 -96 69.5 -161t165.5 -65q98 0 169 64.5t71 161.5q0 98 -71 162.5t-169 64.5q-96 0 -165.5 -64.5t-69.5 -162.5zM229 197q0 51 33 83.5t84 32.5q49 0 83 -32.5t34 -83.5q0 -49 -34 -81t-83 -32q-51 0 -84 31.5t-33 81.5zM459 852q0 -96 69.5 -159.5 t167.5 -63.5q99 0 168.5 63.5t69.5 159.5q0 98 -69.5 162.5t-168.5 64.5q-96 0 -166.5 -64.5t-70.5 -162.5zM582 852q0 51 32.5 84t81.5 33q51 0 84 -33t33 -84q0 -49 -32.5 -81t-84.5 -32q-49 0 -81.5 32t-32.5 81zM809 197q0 -96 70.5 -161t167.5 -65q98 0 168.5 64.5 t70.5 161.5q0 98 -70.5 162.5t-168.5 64.5q-96 0 -167 -64.5t-71 -162.5zM932 197q0 51 32.5 83.5t84.5 32.5q49 0 81.5 -32.5t32.5 -83.5q0 -49 -32.5 -81t-81.5 -32q-52 0 -84.5 31.5t-32.5 81.5z" />
<glyph unicode="&#xb85;" horiz-adv-x="2187" d="M68 53q0 92 63.5 147.5t179.5 55.5h1039q35 100 34 215q0 141 -52 252t-150.5 174.5t-231.5 63.5q-119 0 -209 -46q104 -6 171 -71.5t67 -165.5q0 -109 -74 -179.5t-188 -70.5q-115 0 -191.5 69.5t-76.5 176.5q0 117 66.5 212t181 148t253.5 53q176 0 310.5 -78.5 t207 -219t72.5 -318.5q0 -111 -29 -215h340v795h146v-1309h-146v399h-383q-98 -203 -307 -319.5t-487 -116.5q-176 0 -314.5 45t-215 125t-76.5 178zM221 53q0 -57 57.5 -108t161 -82t234.5 -31q211 0 371.5 82t250.5 227h-981q-94 0 -94 -88zM586 674q0 -53 35.5 -89 t91.5 -36q57 0 93 36t36 89q0 55 -36 90t-91 35t-92 -35t-37 -90z" />
<glyph unicode="&#xb86;" horiz-adv-x="2609" d="M68 53q0 92 63.5 147.5t179.5 55.5h1039q35 100 34 215q0 141 -52 252t-150.5 174.5t-231.5 63.5q-119 0 -209 -46q104 -6 171 -71.5t67 -165.5q0 -109 -74 -179.5t-188 -70.5q-115 0 -191.5 69.5t-76.5 176.5q0 117 66.5 212t181 148t253.5 53q176 0 310.5 -78.5 t207 -219t72.5 -318.5q0 -111 -29 -215h340v795h146v-949q94 98 237 99q160 0 257.5 -100.5t97.5 -262.5q0 -176 -98.5 -314t-274.5 -217t-399 -79q-135 0 -243 38t-168 105.5t-60 153.5q0 104 75.5 169.5t196.5 65.5h43v-114h-43q-53 0 -86 -34t-33 -87q0 -74 89 -123 t229 -49q178 0 318 62.5t219 173t79 249.5q0 100 -56.5 168t-152.5 68q-100 0 -163.5 -71t-63.5 -179v-82h-146v399h-383q-98 -203 -307 -319.5t-487 -116.5q-176 0 -314.5 45t-215 125t-76.5 178zM221 53q0 -57 57.5 -108t161 -82t234.5 -31q211 0 371.5 82t250.5 227h-981 q-94 0 -94 -88zM586 674q0 -53 35.5 -89t91.5 -36q57 0 93 36t36 89q0 55 -36 90t-91 35t-92 -35t-37 -90z" />
<glyph unicode="&#xb87;" horiz-adv-x="2134" d="M68 -176q0 115 75.5 211t210.5 164q-129 236 -129 497q0 227 113 399.5t313.5 266.5t452.5 94q237 0 428.5 -95t301.5 -265t110 -389v-1010h-146v1005q0 184 -90 326.5t-247.5 221.5t-356.5 79q-211 0 -376 -76.5t-257 -220t-92 -336.5q0 -231 110 -442q178 57 383 57 q176 0 326 -49q106 186 107 375q0 143 -81 233.5t-223 90.5q-117 0 -202 -46h10q111 0 182.5 -67.5t71.5 -169.5q0 -109 -74 -179.5t-188 -70.5q-117 0 -193 69.5t-76 176.5q0 119 58.5 213t165 147t245.5 53q137 0 241 -57t160 -159.5t56 -233.5q0 -209 -125 -430 q131 -68 208 -166t77 -217q0 -104 -83 -167t-220 -63q-248 0 -486 127q-238 -127 -460 -127q-135 0 -218 62.5t-83 167.5zM221 -176q0 -47 39 -75t109 -28q163 0 333 80q-162 117 -280 285q-94 -51 -147.5 -117.5t-53.5 -144.5zM559 141q109 -158 272 -266q170 113 293 275 q-117 37 -252 36q-166 0 -313 -45zM659 674q0 -59 39 -97t99 -38q61 0 100 37.5t39 97.5q0 59 -39 97t-98 38t-99.5 -38t-40.5 -97zM958 -197q174 -82 357 -82q70 0 109.5 28t39.5 75q0 80 -55 150.5t-149 121.5q-129 -170 -302 -293z" />
<glyph unicode="&#xb88;" horiz-adv-x="1542" d="M190 0v1051h1313l19 -115h-498v-936h-145v936h-545v-936h-144zM508 461q0 -43 28.5 -72t69.5 -29t71 29t30 72q0 39 -30 68.5t-71 29.5t-69.5 -28.5t-28.5 -69.5zM1198 461q0 -43 27.5 -72t68.5 -29t71 29t30 72q0 41 -30 69.5t-71 28.5t-68.5 -28.5t-27.5 -69.5z" />
<glyph unicode="&#xb89;" horiz-adv-x="2019" d="M68 561q0 152 75.5 271.5t209.5 187t302 67.5q170 0 303.5 -68.5t207 -188t73.5 -271.5q0 -141 -59.5 -256t-169.5 -186h989v-117h-1839v117h467q131 0 235.5 56t163.5 157.5t59 228.5q0 115 -54 206t-152.5 143.5t-223.5 52.5q-109 0 -196.5 -35t-147.5 -97q45 10 84 11 q137 0 226.5 -82t89.5 -207q0 -127 -89.5 -210t-226.5 -83q-143 0 -235 85t-92 218zM209 557q0 -78 51 -129t133 -51q78 0 127 50t49 126t-50 125t-126 49q-82 0 -133 -48t-51 -122z" />
<glyph unicode="&#xb8a;" horiz-adv-x="3358" d="M68 561q0 152 75.5 271.5t209.5 187t302 67.5q170 0 303.5 -68.5t207 -188t73.5 -271.5q0 -143 -60.5 -258t-172.5 -184h2332v-117h-3178v117h467q131 0 235.5 56t163.5 157.5t59 228.5q0 115 -54 206t-152.5 143.5t-223.5 52.5q-109 0 -196.5 -35t-147.5 -97 q45 10 84 11q137 0 226.5 -82t89.5 -207q0 -127 -89.5 -210t-226.5 -83q-143 0 -235 85t-92 218zM209 557q0 -78 51 -129t133 -51q78 0 127 50t49 126t-50 125t-126 49q-82 0 -133 -48t-51 -122zM1403 616q0 131 66.5 239t185.5 168t268 60q121 0 221.5 -46t167.5 -130v144 h914l16 -115h-264v-700h-146v700h-374v-700h-146v364q0 100 -50 181t-139 128t-200 47q-109 0 -193.5 -45t-132 -121.5t-47.5 -173.5q0 -115 62 -192q-4 25 -4 39q0 115 74.5 187.5t191.5 72.5q123 0 203 -72.5t80 -187.5q0 -113 -82 -187.5t-207 -74.5q-133 0 -239.5 53 t-166 148.5t-59.5 213.5zM1722 463q0 -66 43 -109t109 -43t108.5 43t42.5 109t-43 107.5t-108 41.5q-66 0 -109 -42t-43 -107z" />
<glyph unicode="&#xb8e;" horiz-adv-x="1773" d="M109 485q0 168 74.5 295t225 199t369.5 72h959l16 -115h-385v-936h-147v936h-424q-268 0 -401.5 -121t-133.5 -330q0 -180 103 -288q-16 49 -17 94q0 94 43 169t120 116.5t171 41.5q100 0 181 -41.5t126 -116.5t45 -169q0 -92 -46 -167t-128 -118t-184 -43 q-174 0 -302 68.5t-196.5 187.5t-68.5 266zM471 291q0 -92 59.5 -151.5t151.5 -59.5t152.5 59.5t60.5 151.5t-60.5 151.5t-152.5 59.5t-151.5 -59.5t-59.5 -151.5z" />
<glyph unicode="&#xb8f;" horiz-adv-x="1773" d="M109 485q0 168 74.5 295t225 199t369.5 72h959l16 -115h-385v-901q0 -127 -26.5 -192.5t-114.5 -96.5l-705 -258l-57 106l651 246q66 23 85.5 72t19.5 156v868h-424q-268 0 -401.5 -121t-133.5 -330q0 -180 103 -288q-16 49 -17 94q0 94 43 169t120 116.5t171 41.5 q100 0 181 -41.5t126 -116.5t45 -169q0 -92 -46 -167t-128 -118t-184 -43q-174 0 -302 68.5t-196.5 187.5t-68.5 266zM471 291q0 -92 59.5 -151.5t151.5 -59.5t152.5 59.5t60.5 151.5t-60.5 151.5t-152.5 59.5t-151.5 -59.5t-59.5 -151.5z" />
<glyph unicode="&#xb90;" horiz-adv-x="1691" d="M109 -57q0 176 130 283.5t423 146.5l368 49q201 29 299 109.5t101 199.5q0 100 -59.5 165t-156.5 65q-109 0 -181 -74t-72 -185v-141h-146v141q0 111 -79 185t-197 74q-123 0 -203 -70h16q96 0 157.5 -56.5t61.5 -144.5q0 -92 -62.5 -152.5t-158.5 -60.5 q-98 0 -162.5 61.5t-64.5 157.5q0 109 53 198t148.5 141t214.5 52q221 0 346 -180q123 180 329 180q109 0 193 -45t130 -125.5t46 -185.5q0 -168 -137 -282.5t-416 -151.5l-368 -51q-215 -29 -307.5 -104.5t-92.5 -202.5q0 -100 72 -167t180 -67q117 0 193.5 75t76.5 185 v141h146v-141q0 -111 72.5 -185.5t183.5 -74.5q100 0 157.5 61.5t57.5 153.5q0 55 -19.5 132t-52.5 143l148 12q41 -80 59 -147.5t18 -143.5q0 -96 -48 -173t-132 -120t-188 -43q-109 0 -193 44t-135 122q-53 -78 -141 -122t-203 -44q-117 0 -209 46t-144 129t-52 188z M246 684q0 -43 30.5 -71.5t75.5 -28.5t74 28.5t31 71.5q0 45 -29 73.5t-74 28.5q-47 0 -77.5 -28.5t-30.5 -73.5z" />
<glyph unicode="&#xb92;" horiz-adv-x="1677" d="M102 551q0 156 93.5 279.5t259.5 193.5t376 70q209 0 377 -68t262.5 -186.5t94.5 -268.5q0 -147 -83 -238t-218 -91q-94 0 -164 51v-21q0 -112 63.5 -170.5t186.5 -58.5h141v-115h-141q-55 0 -113 11v-41q0 -100 -49 -179t-138 -123.5t-204 -44.5q-119 0 -210 44.5 t-141.5 123t-50.5 179.5v102h146v-102q0 -96 70.5 -158t185.5 -62t184.5 60.5t69.5 159.5v98q-66 47 -99.5 117.5t-33.5 158.5v279h133q2 -80 47 -131t117 -51q70 0 108.5 55t38.5 147q0 113 -75.5 203t-208 141.5t-296.5 51.5q-158 0 -285.5 -46.5t-207.5 -127t-96 -187.5 q70 90 190 90q113 0 185.5 -67.5t72.5 -173.5q0 -109 -74.5 -177.5t-191.5 -68.5q-92 0 -166 44t-115 122t-41 176zM299 455q0 -55 35 -90t88 -35h2q55 0 91 34.5t38 90.5q0 55 -36 90t-91 35t-91 -35t-36 -90z" />
<glyph unicode="&#xb93;" horiz-adv-x="1677" d="M102 551q0 156 93.5 279.5t259.5 193.5t376 70q209 0 377 -68t262.5 -186.5t94.5 -268.5q0 -147 -83 -238t-218 -91q-94 0 -164 51v-21q0 -112 63.5 -170.5t186.5 -58.5h141v-115h-141q-66 0 -119 13v-43q0 -98 -53.5 -177t-147.5 -124.5t-211 -45.5q-115 0 -207 36 t-144 100.5t-52 144.5q0 106 76.5 176t195.5 70h43v-117h-43q-53 0 -88 -37t-35 -92q0 -68 72 -111t182 -43q121 0 198 61.5t77 158.5v102q-61 47 -94 115.5t-33 156.5v279h133q2 -80 47 -131t117 -51q70 0 108.5 55t38.5 147q0 113 -75.5 203t-208 141.5t-296.5 51.5 q-158 0 -285.5 -46.5t-207.5 -127t-96 -187.5q70 90 190 90q113 0 185.5 -67.5t72.5 -173.5q0 -109 -74.5 -177.5t-191.5 -68.5q-92 0 -166 44t-115 122t-41 176zM299 455q0 -55 35 -90t88 -35h2q55 0 91 34.5t38 90.5q0 55 -36 90t-91 35t-91 -35t-36 -90z" />
<glyph unicode="&#xb94;" horiz-adv-x="4169" d="M102 551q0 156 93.5 279.5t259.5 193.5t376 70q209 0 377 -68t262.5 -186.5t94.5 -268.5q0 -147 -83 -238t-218 -91q-94 0 -164 51v-21q0 -112 63.5 -170.5t186.5 -58.5h141v-115h-141q-55 0 -113 11v-41q0 -100 -49 -179t-138 -123.5t-204 -44.5q-119 0 -210 44.5 t-141.5 123t-50.5 179.5v102h146v-102q0 -96 70.5 -158t185.5 -62t184.5 60.5t69.5 159.5v98q-66 47 -99.5 117.5t-33.5 158.5v279h133q2 -80 47 -131t117 -51q70 0 108.5 55t38.5 147q0 113 -75.5 203t-208 141.5t-296.5 51.5q-158 0 -285.5 -46.5t-207.5 -127t-96 -187.5 q70 90 190 90q113 0 185.5 -67.5t72.5 -173.5q0 -109 -74.5 -177.5t-191.5 -68.5q-92 0 -166 44t-115 122t-41 176zM299 455q0 -55 35 -90t88 -35h2q55 0 91 34.5t38 90.5q0 55 -36 90t-91 35t-91 -35t-36 -90zM1786 485q0 174 81.5 311.5t233 214t352.5 76.5 q158 0 291 -66.5t217 -184.5v215h1172l16 -115h-385v-936h-145v936h-512v-936h-146v467q0 141 -66.5 254t-182 176.5t-259.5 63.5q-158 0 -273.5 -60.5t-178 -168t-62.5 -247.5q0 -180 103 -288q-16 49 -17 94q0 94 43 169t120 116.5t171 41.5q100 0 181 -41.5t126 -116.5 t45 -169q0 -92 -46 -167t-128 -118t-184 -43q-174 0 -302 68.5t-196.5 187.5t-68.5 266zM2148 291q0 -92 59.5 -151.5t151.5 -59.5t152.5 59.5t60.5 151.5t-60.5 151.5t-152.5 59.5t-151.5 -59.5t-59.5 -151.5z" />
<glyph unicode="&#xb95;" horiz-adv-x="1538" d="M88 287q0 109 64.5 188.5t183.5 112.5v463h979l18 -115h-356v-326h76q196 0 308 -89t112 -234q0 -94 -53.5 -167t-154 -115t-237.5 -42v117q139 0 214 56.5t75 150.5t-67.5 151.5t-194.5 57.5h-78v-76q0 -135 -58.5 -238.5t-168 -161t-254.5 -57.5q-119 0 -212.5 42 t-144.5 116t-51 166zM242 287q0 -86 69.5 -141.5t184.5 -55.5q158 0 246.5 89t88.5 241v76h-319q-129 0 -199.5 -56.5t-70.5 -152.5zM481 610h27h323v326h-350v-326z" />
<glyph unicode="&#xb99;" horiz-adv-x="2007" d="M190 0v1051h1031l16 -115h-387v-274q47 45 109.5 69.5t134.5 24.5q160 0 254 -98.5t94 -256.5q0 -180 -129 -284h360v934h146v-1051h-1114v117h278q150 0 227.5 77.5t77.5 206.5q0 100 -54 165t-151 65q-104 0 -168.5 -71t-64.5 -179v-70h-145v625h-371v-936h-144z" />
<glyph unicode="&#xb9a;" horiz-adv-x="1398" d="M88 287q0 109 64.5 188.5t183.5 112.5v463h979l18 -115h-356v-326h338l18 -114h-356v-76q0 -135 -58.5 -238.5t-168 -161t-254.5 -57.5q-119 0 -212.5 42t-144.5 116t-51 166zM242 287q0 -86 69.5 -141.5t184.5 -55.5q158 0 246.5 89t88.5 241v76h-319 q-129 0 -199.5 -56.5t-70.5 -152.5zM481 610h27h323v326h-350v-326z" />
<glyph unicode="&#xb9c;" horiz-adv-x="1691" d="M109 -57q0 176 130 283.5t423 146.5l368 49q201 29 299 109.5t101 199.5q0 100 -59.5 165t-156.5 65q-109 0 -181 -74t-72 -185v-141h-146v141q0 111 -79 185t-197 74q-123 0 -203 -70h16q96 0 157.5 -56.5t61.5 -144.5q0 -92 -62.5 -152.5t-158.5 -60.5 q-98 0 -162.5 61.5t-64.5 157.5q0 109 53 198t148.5 141t214.5 52q221 0 346 -180q123 180 329 180q109 0 193 -45t130 -125.5t46 -185.5q0 -168 -137 -282.5t-416 -151.5l-368 -51q-215 -29 -307.5 -104.5t-92.5 -202.5q0 -102 63.5 -168t170.5 -66q88 0 164.5 53.5 t187.5 159.5q123 119 217 181.5t211 62.5q141 0 224 -80t83 -209q0 -82 -46 -146.5t-129 -102.5t-185 -38h-228v115h228q92 0 149.5 49t57.5 123t-39 119t-115 45q-84 0 -154.5 -49t-181.5 -156q-82 -82 -142.5 -132t-137 -85t-164.5 -35q-117 0 -204 46t-135 129t-48 188z M246 684q0 -43 30.5 -71.5t75.5 -28.5t74 28.5t31 71.5q0 45 -29 73.5t-74 28.5q-47 0 -77.5 -28.5t-30.5 -73.5z" />
<glyph unicode="&#xb9e;" horiz-adv-x="2527" d="M150 369q0 193 82.5 387t213.5 315l150 -20q-129 -106 -211 -295t-82 -391q0 -238 126 -409t357.5 -262t542.5 -91q285 0 496 78.5t325.5 228t114.5 360.5q0 150 -53 240t-170 90q-100 0 -167 -75.5t-67 -192.5v-332h-143v936h-371q-270 0 -403 -121t-133 -330 q0 -184 104 -290q-16 49 -16 96q0 143 94 235t240 92q100 0 180 -41.5t125 -116.5t45 -169q0 -92 -46 -167t-127 -118t-183 -43q-174 0 -303.5 68.5t-198 187.5t-68.5 266q0 166 76 294t226.5 200t369.5 72h903l16 -115h-387v-313q96 102 238 102q178 0 275.5 -127 t97.5 -328q0 -246 -134.5 -425t-381 -274t-574.5 -95q-356 0 -622.5 107.5t-411.5 309t-145 476.5zM967 291q0 -92 60 -151.5t153 -59.5q92 0 151.5 59.5t59.5 151.5t-59.5 151.5t-151.5 59.5q-93 0 -153 -59.5t-60 -151.5z" />
<glyph unicode="&#xb9f;" horiz-adv-x="1474" d="M190 0h1264l-16 117h-1104v944l-144 -10v-1051z" />
<glyph unicode="&#xba3;" horiz-adv-x="3477" d="M109 467q0 178 102 319.5t289.5 221t431.5 79.5q301 0 524 -131q186 131 436 131q248 0 437 -131q178 94 395 95h715l18 -115h-387v-936h-145v936h-201q-162 0 -295 -64q96 -98 148.5 -230t52.5 -286q0 -176 -90.5 -284.5t-243.5 -108.5q-156 0 -246 108.5t-90 284.5 q0 154 64.5 289t179.5 229q-137 86 -312 87q-180 0 -317 -87q121 -100 186.5 -233t65.5 -285q0 -176 -90 -284.5t-246 -108.5t-246 108.5t-90 284.5q0 150 50 280t145 230q-182 94 -418 95q-201 0 -352.5 -63.5t-234.5 -176.5t-83 -254q0 -176 107 -281q-20 47 -21 105 q0 94 43 169t120 116.5t171 41.5q100 0 181 -41.5t126 -116.5t45 -169q0 -92 -46 -167t-128 -118t-184 -43q-174 0 -302 65.5t-196.5 180.5t-68.5 258zM471 291q0 -92 59.5 -151.5t151.5 -59.5t152.5 59.5t60.5 151.5t-60.5 151.5t-152.5 59.5t-151.5 -59.5t-59.5 -151.5z M1309 356q0 -119 48 -192.5t134 -73.5q88 0 135 74t47 192q0 129 -53 240t-152 192q-78 -82 -118.5 -192.5t-40.5 -239.5zM2114 356q0 -119 47 -192.5t135 -73.5q86 0 133 74t47 192q0 131 -44 243t-126 194q-92 -80 -142 -193t-50 -244z" />
<glyph unicode="&#xba4;" horiz-adv-x="1568" d="M88 287q0 109 64.5 188.5t183.5 112.5v463h979l18 -115h-356v-326h53q133 0 235.5 -58t159 -161.5t56.5 -236.5q0 -145 -73 -260t-205 -179.5t-306 -64.5h-362q-125 0 -204 -39t-126 -111l-117 66q47 90 160.5 144t273.5 54h375q129 0 227.5 50.5t150.5 138.5t52 201 q0 150 -81 246t-214 96h-55v-76q0 -135 -58.5 -238.5t-168 -161t-254.5 -57.5q-119 0 -212.5 42t-144.5 116t-51 166zM242 287q0 -86 69.5 -141.5t184.5 -55.5q158 0 246.5 89t88.5 241v76h-319q-129 0 -199.5 -56.5t-70.5 -152.5zM481 610h27h323v326h-350v-326z" />
<glyph unicode="&#xba8;" horiz-adv-x="1566" d="M190 0v1051h1031l16 -115h-387v-313q43 49 104.5 75.5t132.5 26.5q175 0 274 -132t99 -343q0 -174 -64.5 -310.5t-187.5 -212t-290 -75.5h-279q-233 0 -332 -150l-117 64q49 90 162 145.5t273 55.5h293q184 0 286.5 133t102.5 350q0 160 -56.5 255t-167.5 95 q-102 0 -167.5 -75.5t-65.5 -192.5v-332h-145v936h-371v-936h-144z" />
<glyph unicode="&#xba9;" horiz-adv-x="2672" d="M109 467q0 178 102 319.5t289.5 221t431.5 79.5q160 0 301 -38.5t256 -110.5q190 113 430 113h717l16 -115h-385v-936h-147v936h-201q-178 0 -324 -78q111 -100 171.5 -228t60.5 -274q0 -176 -90 -284.5t-246 -108.5t-246 108.5t-90 284.5q0 145 57.5 273.5t161.5 222.5 q-184 109 -442 109q-201 0 -352.5 -63.5t-234.5 -176.5t-83 -254q0 -176 107 -281q-20 47 -21 105q0 94 43 169t120 116.5t171 41.5q100 0 181 -41.5t126 -116.5t45 -169q0 -92 -46 -167t-128 -118t-184 -43q-174 0 -302 65.5t-196.5 180.5t-68.5 258zM471 291 q0 -92 59.5 -151.5t151.5 -59.5t152.5 59.5t60.5 151.5t-60.5 151.5t-152.5 59.5t-151.5 -59.5t-59.5 -151.5zM1309 356q0 -119 48 -192.5t134 -73.5q88 0 135 74t47 192q0 125 -49 232.5t-141 187.5q-84 -80 -129 -186.5t-45 -233.5z" />
<glyph unicode="&#xbaa;" horiz-adv-x="1470" d="M190 0v1051l144 10v-944h801v934h145v-1051h-1090z" />
<glyph unicode="&#xbae;" horiz-adv-x="1697" d="M190 0v1051l144 10v-944h436v567q0 197 99.5 300t265.5 103q143 0 246.5 -78.5t156.5 -217t53 -318.5q0 -215 -109.5 -344t-322.5 -129h-969zM918 117h241q144 0 211.5 96t67.5 260q0 219 -78 353.5t-221 134.5q-102 0 -161.5 -68t-59.5 -205v-571z" />
<glyph unicode="&#xbaf;" horiz-adv-x="1894" d="M170 387v664l143 10v-674q0 -297 232 -297q127 0 194.5 89t67.5 237v635h145v-934h607v934h145v-1051h-897v86q-49 -59 -115.5 -91t-146.5 -32q-172 0 -273.5 108.5t-101.5 315.5z" />
<glyph unicode="&#xbb0;" horiz-adv-x="1398" d="M190 0v1051h1172l16 -115h-385v-901q0 -84 -9 -133t-40 -87t-92 -69l-520 -258l-58 117l467 235q66 33 85.5 78t19.5 150v868h-512v-936h-144z" />
<glyph unicode="&#xbb1;" horiz-adv-x="1687" d="M170 0v664q0 205 91 314t265 109q98 0 174 -48t123 -134q49 86 131 134t185 48q215 0 328.5 -167.5t113.5 -446.5q0 -242 -80 -427t-233.5 -289.5t-370.5 -104.5h-279q-233 0 -331 -150l-117 64q49 90 161.5 145.5t272.5 55.5h293q172 0 291 90t179 248.5t60 367.5 q0 225 -68.5 356.5t-217.5 131.5q-98 0 -167 -69t-69 -204v-688h-145v641q0 145 -59.5 232.5t-174.5 87.5q-109 0 -161 -74t-52 -223v-664h-143z" />
<glyph unicode="&#xbb2;" horiz-adv-x="2091" d="M109 489q0 170 78.5 306.5t223 214t337.5 77.5q180 0 316 -68.5t210 -194.5t74 -298v-96q0 -168 58 -253t183 -85q244 0 244 385q0 131 -43 295t-125 279l145 28q86 -141 130.5 -305t44.5 -295q0 -242 -100.5 -379t-297.5 -137q-188 0 -286.5 121t-98.5 346v96 q0 205 -120.5 320t-333.5 115q-147 0 -257 -60.5t-169.5 -167t-59.5 -244.5q0 -182 105 -292q-16 49 -17 94q0 92 43 166.5t119 116.5t170 42q100 0 181 -42t126 -116.5t45 -166.5t-46 -167t-128 -118t-184 -43q-174 0 -302 69.5t-196.5 189.5t-68.5 267zM471 291 q0 -92 59.5 -151.5t151.5 -59.5t152.5 59.5t60.5 151.5t-60.5 151.5t-152.5 59.5t-151.5 -59.5t-59.5 -151.5z" />
<glyph unicode="&#xbb3;" horiz-adv-x="2492" d="M109 485q0 174 81.5 311.5t233 214t352.5 76.5q158 0 291 -66.5t217 -184.5v215h1172l16 -115h-385v-936h-145v936h-512v-936h-146v467q0 141 -66.5 254t-182 176.5t-259.5 63.5q-158 0 -273.5 -60.5t-178 -168t-62.5 -247.5q0 -180 103 -288q-16 49 -17 94q0 94 43 169 t120 116.5t171 41.5q100 0 181 -41.5t126 -116.5t45 -169q0 -92 -46 -167t-128 -118t-184 -43q-174 0 -302 68.5t-196.5 187.5t-68.5 266zM471 291q0 -92 59.5 -151.5t151.5 -59.5t152.5 59.5t60.5 151.5t-60.5 151.5t-152.5 59.5t-151.5 -59.5t-59.5 -151.5z" />
<glyph unicode="&#xbb4;" horiz-adv-x="1697" d="M190 0v1051l144 10v-944h436v567q0 197 99.5 300t265.5 103q143 0 246.5 -78.5t156.5 -217t53 -318.5q0 -215 -109.5 -344t-322.5 -129h-241v-78q0 -84 31.5 -121t97.5 -37h333l15 -114h-357q-45 -121 -158.5 -194.5t-254.5 -73.5q-172 0 -277.5 94t-105.5 245h145 q0 -94 65.5 -153.5t172.5 -59.5q92 0 163.5 43t108.5 125q-127 57 -127 238v86h-580zM918 117h241q143 0 211 96t68 260q0 219 -78 353.5t-221 134.5q-102 0 -161.5 -68t-59.5 -205v-571z" />
<glyph unicode="&#xbb5;" horiz-adv-x="2115" d="M109 485q0 174 82.5 311.5t235.5 214t357 76.5q186 0 334 -72.5t230 -201.5t82 -291q0 -113 -34 -217t-93 -188h477v934h145v-1051h-795l3 117q66 80 103.5 183t37.5 222q0 127 -60.5 226.5t-172 156t-257.5 56.5q-160 0 -278.5 -60.5t-181 -168t-62.5 -247.5 q0 -180 103 -288q-16 49 -17 94q0 94 43 169t120 116.5t171 41.5q100 0 181 -41.5t126 -116.5t45 -169q0 -92 -46 -167t-128 -118t-184 -43q-174 0 -302 68.5t-196.5 187.5t-68.5 266zM471 291q0 -92 59.5 -151.5t151.5 -59.5t152.5 59.5t60.5 151.5t-60.5 151.5 t-152.5 59.5t-151.5 -59.5t-59.5 -151.5z" />
<glyph unicode="&#xbb6;" horiz-adv-x="2148" d="M170 387v664l143 10v-674q0 -154 61.5 -225.5t170.5 -71.5t170 71.5t61 225.5v664h832q213 0 322.5 -129t109.5 -344q0 -180 -53.5 -318.5t-157 -217.5t-246.5 -79q-166 0 -264 103.5t-98 300.5v569h-299v-549q0 -209 -102.5 -316.5t-274.5 -107.5q-170 0 -272.5 107.5 t-102.5 316.5zM1366 365q0 -137 59.5 -206t161.5 -69q144 0 221.5 134t77.5 354q0 166 -67.5 262t-210.5 96h-242v-571z" />
<glyph unicode="&#xbb7;" horiz-adv-x="2807" d="M109 485q0 174 82.5 311.5t235.5 214t357 76.5q186 0 334 -72.5t230 -201.5t82 -291q0 -111 -34 -216t-91 -189h761v303q-61 -12 -129 -12q-121 0 -215 45t-147 124.5t-53 178.5q0 147 95 239t253 92t250 -91t92 -240v-138q158 102 276 318h146v-936h-422v-498h-146v498 h-936l3 117q66 80 103.5 183t37.5 222q0 127 -61.5 226.5t-173 156t-255.5 56.5q-160 0 -278.5 -60.5t-181 -168t-62.5 -247.5q0 -180 103 -288q-16 49 -17 94q0 94 43 169t120 116.5t171 41.5q100 0 181 -41.5t126 -116.5t45 -169q0 -92 -46 -167t-128 -118t-184 -43 q-174 0 -302 68.5t-196.5 187.5t-68.5 266zM471 291q0 -92 59.5 -151.5t151.5 -59.5t152.5 59.5t60.5 151.5t-60.5 151.5t-152.5 59.5t-151.5 -59.5t-59.5 -151.5zM1675 756q0 -96 72 -158.5t190 -62.5q68 0 129 18v192q0 98 -51 157t-145 59q-92 0 -143.5 -56.5 t-51.5 -148.5zM2212 117h276v573q-115 -154 -276 -225v-348z" />
<glyph unicode="&#xbb8;" horiz-adv-x="2684" d="M109 489q0 170 78.5 306.5t223 214t337.5 77.5q182 0 317 -67.5t207 -192.5q43 123 126 191.5t201 68.5q166 0 254.5 -110.5t88.5 -294.5v-252q0 -168 58 -253t183 -85q242 0 242 385q0 131 -43 295t-125 279l147 28q86 -141 130 -305t44 -295q0 -242 -100 -379 t-297 -137q-190 0 -287.5 121t-97.5 346v250q0 279 -197 278q-119 0 -185 -119.5t-66 -312.5v-526h-146v526q0 205 -120.5 320t-333.5 115q-147 0 -257 -60.5t-169.5 -167t-59.5 -244.5q0 -182 105 -292q-16 49 -17 94q0 92 43 166.5t119 116.5t170 42q100 0 181 -42 t126 -116.5t45 -166.5t-46 -167t-128 -118t-184 -43q-174 0 -302 69.5t-196.5 189.5t-68.5 267zM471 291q0 -92 59.5 -151.5t151.5 -59.5t152.5 59.5t60.5 151.5t-60.5 151.5t-152.5 59.5t-151.5 -59.5t-59.5 -151.5z" />
<glyph unicode="&#xbb9;" horiz-adv-x="3233" d="M109 -434q49 90 161.5 145.5t272.5 55.5h1900q258 0 394.5 193.5t136.5 512.5q0 221 -73 353t-222 132q-104 0 -166 -66.5t-62 -203.5v-688h-145v641q0 143 -59.5 231.5t-173.5 88.5q-106 0 -158.5 -73t-52.5 -224v-664h-732l3 117q66 80 103.5 183t37.5 222 q0 127 -61.5 226.5t-173 156t-255.5 56.5q-160 0 -278.5 -60.5t-181 -168t-62.5 -247.5q0 -180 103 -288q-16 49 -17 94q0 94 43 169t120 116.5t171 41.5q100 0 181 -41.5t126 -116.5t45 -169q0 -92 -46 -167t-128 -118t-184 -43q-174 0 -302 68.5t-196.5 187.5t-68.5 266 q0 174 82.5 311.5t235.5 214t357 76.5q186 0 334 -72.5t230 -201.5t82 -291q0 -111 -34 -216t-93 -189h413v547q0 205 91 314t266 109q96 0 170.5 -45t121.5 -127q45 82 126 127t184 45q217 0 334.5 -168.5t117.5 -445.5q0 -242 -79.5 -427t-233.5 -289.5t-371 -104.5h-1886 q-233 0 -332 -150zM471 291q0 -92 59.5 -151.5t151.5 -59.5t152.5 59.5t60.5 151.5t-60.5 151.5t-152.5 59.5t-151.5 -59.5t-59.5 -151.5z" />
<glyph unicode="&#xbbe;" horiz-adv-x="1357" d="M190 0v1051h1131l16 -115h-385v-936h-147v936h-471v-936h-144z" />
<glyph unicode="&#xbbf;" horiz-adv-x="524" d="M-764 1276q0 102 58.5 183t167 127t251.5 46q187 0 327 -76.5t217 -214t77 -311.5v-1030h-144v1030q0 139 -58 247.5t-165.5 169t-253.5 60.5q-154 0 -239.5 -63.5t-85.5 -167.5t59 -164.5t182 -60.5h90v-101h-90q-186 0 -288.5 90t-104.5 236z" />
<glyph unicode="&#xbc0;" horiz-adv-x="0" d="M-795 1364q0 125 61.5 223.5t170 154.5t246.5 56q118 0 220.5 -53t163 -142.5t60.5 -187.5q0 -100 -63.5 -164.5t-159.5 -64.5q-98 0 -162 59.5t-64 149.5t61.5 147t158.5 57h12q-92 72 -227 72q-141 0 -232.5 -87t-91.5 -220q0 -137 73.5 -225t192.5 -88v-109 q-121 0 -216 54.5t-149.5 150.5t-54.5 217zM-197 1393q0 -43 29 -72t72 -29t71.5 29t28.5 72t-28.5 70.5t-71.5 27.5t-72 -27.5t-29 -70.5z" />
<glyph unicode="&#xbc1;" horiz-adv-x="964" d="M-336 936v115h875q102 0 185 -42t129 -117t46 -167q0 -94 -46 -169t-127 -117t-181 -42t-181 42t-126 116t-45 168q0 127 81 213h-610zM332 725q0 -92 59.5 -152.5t153.5 -60.5q90 0 148.5 60.5t58.5 152.5t-58.5 151.5t-148.5 59.5q-94 0 -153.5 -59.5t-59.5 -151.5z " />
<glyph unicode="&#xbc2;" horiz-adv-x="1363" d="M-336 936v115h639q74 96 190.5 149t262.5 53q153 0 276 -68.5t193.5 -190.5t70.5 -273q0 -158 -79.5 -285t-222 -198.5t-320.5 -71.5h-119v115h119q135 0 241.5 56t167 156.5t60.5 227.5q0 117 -50.5 210t-139.5 146t-197 53q-162 0 -271 -79h54q102 0 185 -42t129 -117 t46 -167q0 -141 -97 -231.5t-249 -90.5q-100 0 -180 44.5t-125 123t-45 174.5q0 102 35 191h-574zM338 748q0 -100 60.5 -165t154.5 -65q88 0 143.5 57.5t55.5 149.5q0 94 -59.5 152.5t-160.5 58.5h-149q-45 -86 -45 -188z" />
<glyph unicode="&#xbc6;" horiz-adv-x="1611" d="M109 651q0 211 82.5 377t236.5 260t356 94q197 0 340.5 -80.5t220 -233.5t76.5 -361v-707h-145v707q0 260 -129 404t-363 144q-160 0 -277.5 -76.5t-181 -214t-63.5 -313.5q0 -223 86 -372v12q0 94 43 169t120 116.5t171 41.5q100 0 181 -41.5t126 -116.5t45 -169 q0 -92 -46 -167t-128 -118t-184 -43q-164 0 -293 88t-201.5 245t-72.5 355zM471 291q0 -92 59.5 -151.5t151.5 -59.5t152.5 59.5t60.5 151.5t-60.5 151.5t-152.5 59.5t-151.5 -59.5t-59.5 -151.5z" />
<glyph unicode="&#xbc7;" horiz-adv-x="1376" d="M109 674q0 203 85 364.5t243.5 252.5t373.5 91q141 0 244.5 -41t158 -114.5t54.5 -165.5q0 -125 -86 -206t-219 -81q-127 0 -211 81t-84 206q0 61 26.5 113.5t75.5 89.5q-154 -6 -268.5 -84t-177 -210t-62.5 -296t62.5 -296t179.5 -211t270 -85q-51 37 -78.5 89 t-27.5 116q0 125 84 204.5t211 79.5q133 0 219 -79.5t86 -204.5q0 -92 -54.5 -166t-158 -116t-244.5 -42q-215 0 -373.5 92t-243.5 253t-85 366zM803 287q0 -72 47 -118t119 -46t118 47t46 117q0 72 -46.5 118t-117.5 46q-72 0 -119 -46.5t-47 -117.5zM803 1061 q0 -72 47 -118t119 -46q71 0 117.5 47t46.5 117q0 72 -46.5 118t-117.5 46q-72 0 -119 -46t-47 -118z" />
<glyph unicode="&#xbc8;" horiz-adv-x="2500" d="M109 467q0 178 102 319.5t289.5 221t431.5 79.5q301 0 524 -131q86 63 187.5 97t207.5 34q172 0 294 -67.5t184.5 -188t62.5 -278.5q0 -129 -43 -283.5t-131 -298.5l-145 29q82 117 125 271.5t43 283.5q0 182 -99.5 294t-290.5 112q-158 0 -282 -80 q123 -100 190.5 -235.5t67.5 -289.5q0 -176 -90 -284.5t-246 -108.5t-246 108.5t-90 284.5q0 147 52.5 278.5t144.5 229.5q-180 96 -420 97q-201 0 -352.5 -63.5t-234.5 -176.5t-83 -254q0 -176 107 -281q-20 47 -21 105q0 94 43 169t120 116.5t171 41.5q100 0 181 -41.5 t126 -116.5t45 -169q0 -92 -46 -167t-128 -118t-184 -43q-174 0 -302 65.5t-196.5 180.5t-68.5 258zM471 291q0 -92 59.5 -151.5t151.5 -59.5t152.5 59.5t60.5 151.5t-60.5 151.5t-152.5 59.5t-151.5 -59.5t-59.5 -151.5zM1309 356q0 -119 48 -192.5t134 -73.5q88 0 135 74 t47 192q0 131 -54 243t-155 194q-74 -82 -114.5 -194t-40.5 -243z" />
<glyph unicode="&#xbca;" horiz-adv-x="3966" d="M109 651q0 211 82.5 377t236.5 260t356 94q197 0 340.5 -80.5t220 -233.5t76.5 -361v-707h-145v707q0 260 -129 404t-363 144q-160 0 -277.5 -76.5t-181 -214t-63.5 -313.5q0 -223 86 -372v12q0 94 43 169t120 116.5t171 41.5q100 0 181 -41.5t126 -116.5t45 -169 q0 -92 -46 -167t-128 -118t-184 -43q-164 0 -293 88t-201.5 245t-72.5 355zM471 291q0 -92 59.5 -151.5t151.5 -59.5t152.5 59.5t60.5 151.5t-60.5 151.5t-152.5 59.5t-151.5 -59.5t-59.5 -151.5zM1562 526q0 -27 17.5 -42t44.5 -15t43 15.5t16 41.5q0 27 -16.5 44.5 t-42.5 17.5q-27 0 -44.5 -17.5t-17.5 -44.5zM1591 356q0 -27 17.5 -43t43.5 -16q27 0 43.5 16.5t16.5 42.5q0 27 -16.5 43.5t-43.5 16.5q-26 0 -43.5 -16.5t-17.5 -43.5zM1591 702q0 -27 17.5 -43t43.5 -16q27 0 43.5 16.5t16.5 42.5q0 27 -16.5 44.5t-43.5 17.5 q-26 0 -43.5 -17.5t-17.5 -44.5zM1687 193q0 -27 17.5 -43.5t44.5 -16.5t43 16.5t16 43.5t-16.5 43t-42.5 16q-27 0 -44.5 -16.5t-17.5 -42.5zM1689 864q0 -27 17.5 -43t44.5 -16t43 16.5t16 42.5q0 27 -16.5 44.5t-42.5 17.5q-27 0 -44.5 -17.5t-17.5 -44.5zM1847 90 q0 -27 16.5 -43t42.5 -16q27 0 43.5 16t16.5 43t-16.5 44.5t-43.5 17.5q-26 0 -42.5 -17.5t-16.5 -44.5zM1847 969q0 -27 16.5 -43.5t42.5 -16.5q27 0 43.5 16.5t16.5 43.5t-16.5 43t-43.5 16q-26 0 -42.5 -16.5t-16.5 -42.5zM2029 59q0 -27 16.5 -43t42.5 -16 q27 0 43.5 16.5t16.5 42.5q0 27 -16.5 44.5t-43.5 17.5t-43 -17.5t-16 -44.5zM2029 999q0 -27 16.5 -43t42.5 -16q27 0 43.5 16.5t16.5 42.5q0 27 -16.5 44.5t-43.5 17.5t-43 -17.5t-16 -44.5zM2213 90q0 -27 16.5 -43t43.5 -16q26 0 42.5 16t16.5 43t-16.5 44.5t-42.5 17.5 q-27 0 -43.5 -17.5t-16.5 -44.5zM2213 969q0 -27 16.5 -43.5t43.5 -16.5q26 0 42.5 16.5t16.5 43.5t-16.5 43t-42.5 16q-27 0 -43.5 -16.5t-16.5 -42.5zM2369 864q0 -27 16.5 -43t42.5 -16q27 0 44.5 16.5t17.5 42.5q0 27 -17.5 44.5t-44.5 17.5t-43 -17.5t-16 -44.5z M2371 193q0 -27 16.5 -43.5t43.5 -16.5q26 0 43.5 16.5t17.5 43.5t-17.5 43t-43.5 16q-27 0 -43.5 -16.5t-16.5 -42.5zM2467 356q0 -27 16.5 -43t43.5 -16q26 0 42.5 16.5t16.5 42.5q0 27 -16.5 43.5t-42.5 16.5q-27 0 -43.5 -16.5t-16.5 -43.5zM2467 702q0 -27 16.5 -43 t43.5 -16q26 0 42.5 16.5t16.5 42.5q0 27 -16.5 44.5t-42.5 17.5q-27 0 -43.5 -17.5t-16.5 -44.5zM2496 526q0 -27 16.5 -42t42.5 -15q27 0 44.5 15.5t17.5 41.5q0 27 -17.5 44.5t-44.5 17.5t-43 -17.5t-16 -44.5zM2768 0v1051h1131l16 -115h-385v-936h-147v936h-471v-936 h-144z" />
<glyph unicode="&#xbcb;" horiz-adv-x="3772" d="M109 674q0 203 85 364.5t243.5 252.5t373.5 91q141 0 244.5 -41t158 -114.5t54.5 -165.5q0 -125 -86 -206t-219 -81q-127 0 -211 81t-84 206q0 61 26.5 113.5t75.5 89.5q-154 -6 -268.5 -84t-177 -210t-62.5 -296t62.5 -296t179.5 -211t270 -85q-51 37 -78.5 89 t-27.5 116q0 125 84 204.5t211 79.5q133 0 219 -79.5t86 -204.5q0 -92 -54.5 -166t-158 -116t-244.5 -42q-215 0 -373.5 92t-243.5 253t-85 366zM803 287q0 -72 47 -118t119 -46t118 47t46 117q0 72 -46.5 118t-117.5 46q-72 0 -119 -46.5t-47 -117.5zM803 1061 q0 -72 47 -118t119 -46q71 0 117.5 47t46.5 117q0 72 -46.5 118t-117.5 46q-72 0 -119 -46t-47 -118zM1366 526q0 -27 17.5 -42t44.5 -15t43 15.5t16 41.5q0 27 -16.5 44.5t-42.5 17.5q-27 0 -44.5 -17.5t-17.5 -44.5zM1395 356q0 -27 17.5 -43t43.5 -16q27 0 43.5 16.5 t16.5 42.5q0 27 -16.5 43.5t-43.5 16.5q-26 0 -43.5 -16.5t-17.5 -43.5zM1395 702q0 -27 17.5 -43t43.5 -16q27 0 43.5 16.5t16.5 42.5q0 27 -16.5 44.5t-43.5 17.5q-26 0 -43.5 -17.5t-17.5 -44.5zM1491 193q0 -27 17.5 -43.5t44.5 -16.5t43 16.5t16 43.5t-16.5 43 t-42.5 16q-27 0 -44.5 -16.5t-17.5 -42.5zM1493 864q0 -27 17.5 -43t44.5 -16t43 16.5t16 42.5q0 27 -16.5 44.5t-42.5 17.5q-27 0 -44.5 -17.5t-17.5 -44.5zM1651 90q0 -27 16.5 -43t42.5 -16q27 0 43.5 16t16.5 43t-16.5 44.5t-43.5 17.5q-26 0 -42.5 -17.5t-16.5 -44.5z M1651 969q0 -27 16.5 -43.5t42.5 -16.5q27 0 43.5 16.5t16.5 43.5t-16.5 43t-43.5 16q-26 0 -42.5 -16.5t-16.5 -42.5zM1833 59q0 -27 16.5 -43t42.5 -16q27 0 43.5 16.5t16.5 42.5q0 27 -16.5 44.5t-43.5 17.5t-43 -17.5t-16 -44.5zM1833 999q0 -27 16.5 -43t42.5 -16 q27 0 43.5 16.5t16.5 42.5q0 27 -16.5 44.5t-43.5 17.5t-43 -17.5t-16 -44.5zM2017 90q0 -27 16.5 -43t43.5 -16q26 0 42.5 16t16.5 43t-16.5 44.5t-42.5 17.5q-27 0 -43.5 -17.5t-16.5 -44.5zM2017 969q0 -27 16.5 -43.5t43.5 -16.5q26 0 42.5 16.5t16.5 43.5t-16.5 43 t-42.5 16q-27 0 -43.5 -16.5t-16.5 -42.5zM2173 864q0 -27 16.5 -43t42.5 -16q27 0 44.5 16.5t17.5 42.5q0 27 -17.5 44.5t-44.5 17.5t-43 -17.5t-16 -44.5zM2175 193q0 -27 16.5 -43.5t43.5 -16.5q26 0 43.5 16.5t17.5 43.5t-17.5 43t-43.5 16q-27 0 -43.5 -16.5 t-16.5 -42.5zM2271 356q0 -27 16.5 -43t43.5 -16q26 0 42.5 16.5t16.5 42.5q0 27 -16.5 43.5t-42.5 16.5q-27 0 -43.5 -16.5t-16.5 -43.5zM2271 702q0 -27 16.5 -43t43.5 -16q26 0 42.5 16.5t16.5 42.5q0 27 -16.5 44.5t-42.5 17.5q-27 0 -43.5 -17.5t-16.5 -44.5zM2300 526 q0 -27 16.5 -42t42.5 -15q27 0 44.5 15.5t17.5 41.5q0 27 -17.5 44.5t-44.5 17.5t-43 -17.5t-16 -44.5zM2574 0v1051h1131l16 -115h-385v-936h-147v936h-471v-936h-144z" />
<glyph unicode="&#xbcc;" horiz-adv-x="5177" d="M119 651q0 211 82.5 377t236.5 260t356 94q197 0 340.5 -80.5t220 -233.5t76.5 -361v-707h-145v707q0 260 -129 404t-363 144q-160 0 -277.5 -76.5t-181 -214t-63.5 -313.5q0 -223 86 -372v12q0 94 43 169t120 116.5t171 41.5q100 0 181 -41.5t126 -116.5t45 -169 q0 -92 -46 -167t-128 -118t-184 -43q-164 0 -293 88t-201.5 245t-72.5 355zM481 291q0 -92 59.5 -151.5t151.5 -59.5t152.5 59.5t60.5 151.5t-60.5 151.5t-152.5 59.5t-151.5 -59.5t-59.5 -151.5zM1599 526q0 -27 17.5 -42t44.5 -15t43 15.5t16 41.5q0 27 -16.5 44.5 t-42.5 17.5q-27 0 -44.5 -17.5t-17.5 -44.5zM1628 356q0 -27 17.5 -43t43.5 -16q27 0 43.5 16.5t16.5 42.5q0 27 -16.5 43.5t-43.5 16.5q-26 0 -43.5 -16.5t-17.5 -43.5zM1628 702q0 -27 17.5 -43t43.5 -16q27 0 43.5 16.5t16.5 42.5q0 27 -16.5 44.5t-43.5 17.5 q-26 0 -43.5 -17.5t-17.5 -44.5zM1724 193q0 -27 17.5 -43.5t44.5 -16.5t43 16.5t16 43.5t-16.5 43t-42.5 16q-27 0 -44.5 -16.5t-17.5 -42.5zM1726 864q0 -27 17.5 -43t44.5 -16t43 16.5t16 42.5q0 27 -16.5 44.5t-42.5 17.5q-27 0 -44.5 -17.5t-17.5 -44.5zM1884 90 q0 -27 16.5 -43t42.5 -16q27 0 43.5 16t16.5 43t-16.5 44.5t-43.5 17.5q-26 0 -42.5 -17.5t-16.5 -44.5zM1884 969q0 -27 16.5 -43.5t42.5 -16.5q27 0 43.5 16.5t16.5 43.5t-16.5 43t-43.5 16q-26 0 -42.5 -16.5t-16.5 -42.5zM2066 59q0 -27 16.5 -43t42.5 -16 q27 0 43.5 16.5t16.5 42.5q0 27 -16.5 44.5t-43.5 17.5t-43 -17.5t-16 -44.5zM2066 999q0 -27 16.5 -43t42.5 -16q27 0 43.5 16.5t16.5 42.5q0 27 -16.5 44.5t-43.5 17.5t-43 -17.5t-16 -44.5zM2250 90q0 -27 16.5 -43t43.5 -16q26 0 42.5 16t16.5 43t-16.5 44.5t-42.5 17.5 q-27 0 -43.5 -17.5t-16.5 -44.5zM2250 969q0 -27 16.5 -43.5t43.5 -16.5q26 0 42.5 16.5t16.5 43.5t-16.5 43t-42.5 16q-27 0 -43.5 -16.5t-16.5 -42.5zM2406 864q0 -27 16.5 -43t42.5 -16q27 0 44.5 16.5t17.5 42.5q0 27 -17.5 44.5t-44.5 17.5t-43 -17.5t-16 -44.5z M2408 193q0 -27 16.5 -43.5t43.5 -16.5q26 0 43.5 16.5t17.5 43.5t-17.5 43t-43.5 16q-27 0 -43.5 -16.5t-16.5 -42.5zM2504 356q0 -27 16.5 -43t43.5 -16q26 0 42.5 16.5t16.5 42.5q0 27 -16.5 43.5t-42.5 16.5q-27 0 -43.5 -16.5t-16.5 -43.5zM2504 702q0 -27 16.5 -43 t43.5 -16q26 0 42.5 16.5t16.5 42.5q0 27 -16.5 44.5t-42.5 17.5q-27 0 -43.5 -17.5t-16.5 -44.5zM2533 526q0 -27 16.5 -42t42.5 -15q27 0 44.5 15.5t17.5 41.5q0 27 -17.5 44.5t-44.5 17.5t-43 -17.5t-16 -44.5zM2794 485q0 174 81.5 311.5t233 214t352.5 76.5 q160 0 292 -66.5t216 -184.5v215h1172l16 -115h-385v-936h-145v936h-512v-936h-146v467q0 141 -66.5 254t-182 176.5t-259.5 63.5q-158 0 -273.5 -60.5t-178 -168t-62.5 -247.5q0 -180 103 -288q-16 49 -17 94q0 94 43 169t120 116.5t171 41.5q100 0 181 -41.5t126 -116.5 t45 -169q0 -92 -46 -167t-128 -118t-184 -43q-174 0 -302 68.5t-196.5 187.5t-68.5 266zM3156 291q0 -92 59.5 -151.5t151.5 -59.5t152.5 59.5t60.5 151.5t-60.5 151.5t-152.5 59.5t-151.5 -59.5t-59.5 -151.5z" />
<glyph unicode="&#xbcd;" horiz-adv-x="0" d="M-98 1386q0 -41 27.5 -69.5t70.5 -28.5q41 0 70.5 30t29.5 68q0 43 -29.5 72t-70.5 29q-43 0 -70.5 -28.5t-27.5 -72.5z" />
<glyph unicode="&#xbd0;" horiz-adv-x="1677" d="M102 551q0 156 93.5 279.5t259.5 193.5t376 70q209 0 377 -68t262.5 -186.5t94.5 -268.5q0 -147 -83 -238t-218 -91q-94 0 -164 51v-21q0 -112 63.5 -170.5t186.5 -58.5h141v-115h-141q-55 0 -113 11v-41q0 -100 -49 -179t-138 -123.5t-204 -44.5q-119 0 -210 44.5 t-141.5 123t-50.5 179.5v102h146v-102q0 -96 70.5 -158t185.5 -62t184.5 60.5t69.5 159.5v98q-66 47 -99.5 117.5t-33.5 158.5v279h133q2 -80 47 -131t117 -51q70 0 108.5 55t38.5 147q0 113 -75.5 203t-208 141.5t-296.5 51.5q-158 0 -285.5 -46.5t-207.5 -127t-96 -187.5 q70 90 190 90q113 0 185.5 -67.5t72.5 -173.5q0 -109 -74.5 -177.5t-191.5 -68.5q-92 0 -166 44t-115 122t-41 176zM299 455q0 -55 35 -90t88 -35h2q55 0 91 34.5t38 90.5q0 55 -36 90t-91 35t-91 -35t-36 -90zM713 23l49 2v-164h61v80q0 39 20.5 64.5t59.5 25.5 q47 0 72.5 -30t25.5 -81q0 -47 -26.5 -75.5t-75.5 -28.5h-186v207zM817 94q0 14 8.5 23.5t22.5 9.5q12 0 21.5 -9t9.5 -24q0 -14 -9.5 -22.5t-21.5 -8.5q-14 0 -22.5 8.5t-8.5 22.5zM872 -61v-78h31q20 0 34.5 17.5t14.5 41.5q0 31 -11 49.5t-32 18.5q-37 0 -37 -49z" />
<glyph unicode="&#xbd7;" horiz-adv-x="2492" d="M109 485q0 174 81.5 311.5t233 214t352.5 76.5q160 0 292 -66.5t216 -184.5v215h1172l16 -115h-385v-936h-145v936h-512v-936h-146v467q0 141 -66.5 254t-182 176.5t-259.5 63.5q-158 0 -273.5 -60.5t-178 -168t-62.5 -247.5q0 -180 103 -288q-16 49 -17 94q0 94 43 169 t120 116.5t171 41.5q100 0 181 -41.5t126 -116.5t45 -169q0 -92 -46 -167t-128 -118t-184 -43q-174 0 -302 68.5t-196.5 187.5t-68.5 266zM471 291q0 -92 59.5 -151.5t151.5 -59.5t152.5 59.5t60.5 151.5t-60.5 151.5t-152.5 59.5t-151.5 -59.5t-59.5 -151.5z" />
<glyph unicode="&#xbe6;" horiz-adv-x="1456" d="M109 526q0 160 80.5 288t222 200.5t315.5 72.5q176 0 317.5 -72.5t222.5 -200.5t81 -288q0 -162 -81 -289.5t-222.5 -200.5t-317.5 -73q-174 0 -315.5 73t-222 201t-80.5 289zM262 526q0 -125 61.5 -224t167 -155.5t236.5 -56.5q133 0 239.5 56.5t167 155.5t60.5 224 t-60.5 224.5t-167 155t-239.5 55.5q-131 0 -236.5 -55.5t-167 -155t-61.5 -224.5z" />
<glyph unicode="&#xbe7;" horiz-adv-x="1538" d="M88 287q0 109 64.5 188.5t183.5 112.5v463h979l18 -115h-356v-326h76q196 0 308 -89t112 -234q0 -94 -53.5 -167t-154 -115t-237.5 -42v117q139 0 214 56.5t75 150.5t-67.5 151.5t-194.5 57.5h-78v-76q0 -135 -58.5 -238.5t-168 -161t-254.5 -57.5q-119 0 -212.5 42 t-144.5 116t-51 166zM242 287q0 -86 69.5 -141.5t184.5 -55.5q158 0 246.5 89t88.5 241v76h-319q-129 0 -199.5 -56.5t-70.5 -152.5zM481 610h27h323v326h-350v-326z" />
<glyph unicode="&#xbe8;" horiz-adv-x="1593" d="M68 561q0 152 75.5 271.5t209.5 187t302 67.5q170 0 303.5 -68.5t207 -188t73.5 -271.5q0 -141 -59.5 -256t-169.5 -186h563v-117h-1413v117h467q131 0 235.5 56t163.5 157.5t59 228.5q0 115 -54 206t-152.5 143.5t-223.5 52.5q-109 0 -196.5 -35t-147.5 -97q45 10 84 11 q137 0 226.5 -82t89.5 -207q0 -127 -89.5 -210t-226.5 -83q-143 0 -235 85t-92 218zM209 557q0 -78 51 -129t133 -51q78 0 127 50t49 126t-50 125t-126 49q-82 0 -133 -48t-51 -122z" />
<glyph unicode="&#xbe9;" horiz-adv-x="1693" d="M190 0v1051h1031l16 -115h-387v-274q47 45 109.5 69.5t134.5 24.5q160 0 254 -98.5t94 -256.5q0 -88 -34 -161.5t-97 -122.5h362v-117h-968v117h278q150 0 227.5 77.5t77.5 206.5q0 100 -54 165t-151 65q-104 0 -168.5 -71t-64.5 -179v-70h-145v625h-371v-936h-144z" />
<glyph unicode="&#xbea;" horiz-adv-x="1693" d="M88 287q0 109 64.5 188.5t183.5 112.5v463h979l18 -115h-356v-326h498v441h133v-555h-631v-76q0 -135 -58.5 -238.5t-168 -161t-254.5 -57.5q-119 0 -212.5 42t-144.5 116t-51 166zM242 287q0 -86 69.5 -141.5t184.5 -55.5q158 0 246.5 89t88.5 241v76h-319 q-129 0 -199.5 -56.5t-70.5 -152.5zM481 610h27h323v326h-350v-326z" />
<glyph unicode="&#xbeb;" horiz-adv-x="2603" d="M150 504q0 322 141 573.5t406.5 394t621.5 142.5q336 0 583.5 -118t379 -326.5t131.5 -477.5v-692h-146v688q0 233 -112.5 414.5t-326.5 283t-509 101.5q-313 0 -543.5 -126t-351.5 -350.5t-121 -510.5q0 -270 104.5 -473t300 -313.5t461.5 -110.5q225 0 397.5 78.5 t266.5 225t94 343.5q0 160 -56 255t-167 95q-100 0 -167 -75.5t-67 -192.5v-332h-143v936h-397v-936h-146v1051h1057l17 -115h-388v-313q96 102 238 102q174 0 274.5 -132t100.5 -343q0 -233 -115 -408.5t-322.5 -270.5t-476.5 -95q-311 0 -541.5 127t-354 359.5 t-123.5 541.5z" />
<glyph unicode="&#xbec;" horiz-adv-x="2213" d="M88 287q0 109 64.5 188.5t183.5 112.5v463h979l18 -115h-356v-326q111 -2 194.5 -34.5t133.5 -92.5q51 76 134 119t183 43q150 0 245 -90t95 -229q0 -129 -90 -209h321v-117h-634v117q117 0 183 58t66 151q0 84 -54 137t-142 53q-104 0 -170 -66.5t-66 -170.5v-279h-145 v279q0 98 -63.5 156.5t-190.5 60.5v-76q0 -135 -58.5 -238.5t-168 -161t-254.5 -57.5q-119 0 -212.5 42t-144.5 116t-51 166zM242 287q0 -86 69.5 -141.5t184.5 -55.5q157 0 246 89t89 241v76h-319q-129 0 -199.5 -56.5t-70.5 -152.5zM481 610h27h323v326h-350v-326z" />
<glyph unicode="&#xbed;" horiz-adv-x="1552" d="M109 485q0 168 74.5 295t225 199t369.5 72l590 2v-1053h-147v936h-424q-268 0 -401.5 -121t-133.5 -330q0 -180 103 -288q-16 49 -17 94q0 94 43 169t120 116.5t171 41.5q100 0 181 -41.5t126 -116.5t45 -169q0 -92 -46 -167t-128 -118t-184 -43q-174 0 -302 68.5 t-196.5 187.5t-68.5 266zM471 291q0 -92 59.5 -151.5t151.5 -59.5t152.5 59.5t60.5 151.5t-60.5 151.5t-152.5 59.5t-151.5 -59.5t-59.5 -151.5z" />
<glyph unicode="&#xbee;" horiz-adv-x="2187" d="M68 53q0 92 63.5 147.5t179.5 55.5h299q-80 61 -125 152.5t-45 201.5q0 137 66.5 246t184.5 170t267 61q174 0 306.5 -78.5t204 -219t71.5 -318.5q0 -111 -29 -215h340v795h146v-1309h-146v399h-385q-96 -203 -304 -319.5t-488 -116.5q-176 0 -314.5 45t-215 125 t-76.5 178zM221 53q0 -57 57.5 -108t161 -82t234.5 -31q211 0 371.5 82t248.5 227h-979q-94 0 -94 -88zM596 610q0 -104 44 -184t123 -125t179 -45h408q34 96 34 215q0 141 -51 253t-147 174.5t-228 62.5q-106 0 -188 -45.5t-128 -125t-46 -180.5z" />
<glyph unicode="&#xbef;" horiz-adv-x="1982" d="M88 287q0 109 64.5 188.5t183.5 112.5v463h979l18 -115h-356v-326h215q70 0 131 -18q100 53 229 53q107 0 190 -45t128 -124t45 -179q0 -86 -18.5 -153.5t-57.5 -155.5l-149 12q33 66 52 148.5t19 148.5q0 102 -56 161.5t-153 59.5q-37 0 -82 -10q59 -53 93 -128t34 -161 q0 -111 -70.5 -183.5t-176.5 -72.5q-109 0 -179.5 71.5t-70.5 184.5q0 160 100 277h-24h-199v-76q0 -135 -58.5 -238.5t-168 -161t-254.5 -57.5q-119 0 -212.5 42t-144.5 116t-51 166zM242 287q0 -86 69.5 -141.5t184.5 -55.5q158 0 246.5 89t88.5 241v76h-319 q-129 0 -199.5 -56.5t-70.5 -152.5zM481 610h27h323v326h-350v-326zM1243 219q0 -57 30 -94t77 -37q45 0 74.5 37t29.5 94q0 72 -29.5 130.5t-83.5 94.5q-47 -41 -72.5 -98t-25.5 -127z" />
<glyph unicode="&#xbf0;" horiz-adv-x="1632" d="M109 479q0 131 43 295t129 305l147 -28q-82 -115 -125 -279t-43 -295q0 -385 242 -385q125 0 183 85t58 253v262h146v-262q0 -338 241 -338q242 0 242 385q0 131 -43 295t-125 279l148 28q86 -141 130 -305t44 -295q0 -242 -100.5 -379t-297.5 -137q-213 0 -311 160 q-98 -160 -313 -160q-197 0 -296 137.5t-99 378.5z" />
<glyph unicode="&#xbf1;" horiz-adv-x="2015" d="M170 0v664q0 209 100.5 316t274.5 107q82 0 148.5 -32.5t113.5 -91.5v88h1171l17 -115h-385v-936h-146v936h-512v-936h-145v635q0 147 -67.5 236.5t-194.5 89.5q-231 0 -232 -297v-664h-143z" />
<glyph unicode="&#xbf2;" horiz-adv-x="2232" d="M88 287q0 109 64.5 188.5t183.5 112.5v463h979l18 -115h-356v-326h1104l8 -114h-324v-205h29q109 0 193 -48t131 -133t47 -192q0 -119 -56.5 -210t-158 -142t-232.5 -51h-305q-117 0 -179.5 -25t-94.5 -74l-115 70q72 143 387 143h307q133 0 214 81t81 208 q0 109 -61.5 183.5t-155.5 74.5h-31v-39q0 -168 -109.5 -264t-279.5 -96q-156 0 -252 74.5t-96 191.5q0 111 90 179.5t242 68.5h258v205h-641v-76q0 -135 -58.5 -238.5t-168 -161t-254.5 -57.5q-119 0 -212.5 42t-144.5 116t-51 166zM242 287q0 -86 69.5 -141.5t184.5 -55.5 q158 0 246.5 89t88.5 241v76h-319q-129 0 -199.5 -56.5t-70.5 -152.5zM481 610h27h323v326h-350v-326zM1182 41q0 -61 51 -99t143 -38q104 0 173 63.5t69 169.5v39h-254q-88 0 -135 -37t-47 -98z" />
<glyph unicode="&#xbf3;" horiz-adv-x="1800" d="M109 485q0 174 82.5 311.5t235.5 214t357 76.5q186 0 334 -72.5t230 -201.5t82 -291q0 -111 -34 -216t-91 -189h475v-117h-650l3 117q66 80 103.5 183t37.5 222q0 127 -61.5 226.5t-173 156t-255.5 56.5q-160 0 -278.5 -60.5t-181 -168t-62.5 -247.5q0 -180 103 -288 q-16 49 -17 94q0 94 43 169t120 116.5t171 41.5q100 0 181 -41.5t126 -116.5t45 -169q0 -92 -46 -167t-128 -118t-184 -43q-174 0 -302 68.5t-196.5 187.5t-68.5 266zM471 291q0 -92 59.5 -151.5t151.5 -59.5t152.5 59.5t60.5 151.5t-60.5 151.5t-152.5 59.5t-151.5 -59.5 t-59.5 -151.5z" />
<glyph unicode="&#xbf4;" horiz-adv-x="2473" d="M190 0v1051l144 10v-944h436v567q0 160 66.5 259t185.5 130q-104 115 -104 291q0 125 58 224.5t164.5 154.5t243.5 55q117 0 220 -51q115 51 249 51q115 0 206 -43t141.5 -117.5t50.5 -171.5q0 -121 -78 -198h301v-115h-561v115q84 0 135 56t51 142q0 90 -67.5 147.5 t-178.5 57.5q-66 0 -127 -16q55 -55 85 -129t30 -156q0 -113 -71.5 -183.5t-180.5 -70.5q-111 0 -183.5 70.5t-72.5 183.5q0 168 137 293q-53 8 -86 8q-139 0 -226 -86t-87 -221q0 -98 39 -173t107 -112q178 -31 276 -195.5t98 -410.5q0 -215 -109.5 -344t-322.5 -129h-969z M918 117h241q143 0 211 96t68 260q0 219 -78 353.5t-221 134.5q-102 0 -161.5 -68t-59.5 -205v-571zM1479 1370q0 -57 30.5 -94t79.5 -37q47 0 77 37t30 94q0 72 -24.5 130.5t-72.5 98.5q-57 -41 -88.5 -99t-31.5 -130z" />
<glyph unicode="&#xbf5;" horiz-adv-x="3598" d="M150 348q0 195 83.5 398.5t212.5 324.5l150 -20q-127 -104 -210 -303t-83 -404q0 -227 124 -397t356.5 -263.5t545.5 -93.5h1073q285 -4 496 72t325.5 224.5t114.5 363.5q0 160 -57 255t-168 95q-100 0 -165.5 -75.5t-65.5 -192.5v-332h-146v936h-387v-936h-721v117 q66 80 105 183t39 222q0 127 -60.5 226.5t-172.5 156t-257 56.5q-160 0 -278.5 -60.5t-182 -168t-63.5 -247.5q0 -184 104 -290q-16 49 -16 96q0 143 94 235t240 92q100 0 180 -41.5t125 -116.5t45 -169q0 -92 -46 -167t-127 -118t-183 -43q-174 0 -303.5 68.5t-198 187.5 t-68.5 266q0 174 83 311.5t236.5 214t358.5 76.5q186 0 332.5 -72.5t228.5 -201.5t82 -291q0 -111 -33.5 -216t-91.5 -189h404v934h1046l17 -115h-385v-313q43 49 103 75.5t132 26.5q174 0 274.5 -132t100.5 -343q0 -250 -133 -424t-378 -262t-579 -88h-1073 q-362 0 -628.5 107.5t-408.5 304t-142 460.5zM967 291q0 -92 60 -151.5t153 -59.5q92 0 151.5 59.5t59.5 151.5t-59.5 151.5t-151.5 59.5q-93 0 -153 -59.5t-60 -151.5z" />
<glyph unicode="&#xbf6;" horiz-adv-x="2007" d="M190 0v1051l144 10v-944h801v934h145v-1237h391v1237h146v-1352h-545q-23 -117 -108 -206t-219 -138t-298 -49q-211 0 -334 77.5t-123 202.5q0 102 76 165t211 63h658v186h-945zM344 -414q0 -68 82 -110.5t221 -42.5q182 0 311 72.5t164 193.5h-645q-66 0 -99.5 -30.5 t-33.5 -82.5z" />
<glyph unicode="&#xbf7;" horiz-adv-x="2729" d="M109 485q0 168 74.5 295t225 199t369.5 72h959l16 -115h-385v-326h277q82 0 155 -28q123 63 277 63q123 0 216 -43t144 -117.5t51 -171.5q0 -121 -80 -196h302v-117h-562v117q84 0 135.5 54t51.5 142q0 90 -70 147.5t-188 57.5q-80 0 -144 -20q55 -51 86 -123t31 -156 q0 -113 -70.5 -184.5t-179.5 -71.5t-179.5 71.5t-70.5 184.5q0 156 121 273q-29 4 -43 4h-260v-496h-147v936h-424q-268 0 -401.5 -121t-133.5 -330q0 -180 103 -288q-16 49 -17 94q0 94 43 169t120 116.5t171 41.5q100 0 181 -41.5t126 -116.5t45 -169q0 -92 -46 -167 t-128 -118t-184 -43q-174 0 -302 68.5t-196.5 187.5t-68.5 266zM471 291q0 -92 59.5 -151.5t151.5 -59.5t152.5 59.5t60.5 151.5t-60.5 151.5t-152.5 59.5t-151.5 -59.5t-59.5 -151.5zM1696 219q0 -57 29.5 -94t74.5 -37t75 37t30 94q0 66 -27 122t-74 93q-51 -39 -79.5 -94 t-28.5 -121z" />
<glyph unicode="&#xbf8;" horiz-adv-x="3815" d="M109 467q0 178 102 319.5t289.5 221t431.5 79.5q301 0 524 -131q86 63 187.5 97t207.5 34q172 0 294 -67.5t184.5 -188t62.5 -278.5q0 -213 -98 -436h766v303q-61 -12 -129 -12q-121 0 -215.5 45t-147.5 124.5t-53 178.5q0 147 95 239t253 92t250 -91t92 -240v-138 q158 102 277 318h145v-936h-422v-498h-145v498h-922v117q49 106 76 224t27 214q0 182 -99.5 294t-290.5 112q-158 0 -282 -80q123 -100 190.5 -235.5t67.5 -289.5q0 -176 -90 -284.5t-246 -108.5t-246 108.5t-90 284.5q0 147 52.5 278.5t144.5 229.5q-180 96 -420 97 q-201 0 -352.5 -63.5t-234.5 -176.5t-83 -254q0 -176 107 -281q-20 47 -21 105q0 94 43 169t120 116.5t171 41.5q100 0 181 -41.5t126 -116.5t45 -169q0 -92 -46 -167t-128 -118t-184 -43q-174 0 -302 65.5t-196.5 180.5t-68.5 258zM471 291q0 -92 59.5 -151.5t151.5 -59.5 t152.5 59.5t60.5 151.5t-60.5 151.5t-152.5 59.5t-151.5 -59.5t-59.5 -151.5zM1309 356q0 -119 48 -192.5t134 -73.5q88 0 135 74t47 192q0 131 -54 243t-155 194q-74 -82 -114.5 -194t-40.5 -243zM2669 756q0 -96 71.5 -158.5t190.5 -62.5q68 0 129 18v192q0 98 -51.5 157 t-145.5 59q-92 0 -143 -56.5t-51 -148.5zM3205 117h277v573q-115 -154 -277 -225v-348z" />
<glyph unicode="&#xbf9;" horiz-adv-x="2230" d="M150 567q0 354 139 635t390 438.5t574 157.5q221 0 393.5 -56t266.5 -149.5t94 -199.5q0 -94 -61.5 -154.5t-155.5 -60.5q-98 0 -161.5 59t-63.5 149q0 74 43 127.5t116 71.5q-180 84 -471 84q-279 0 -494.5 -141.5t-335.5 -392t-120 -570.5q0 -295 103.5 -512 t304 -333.5t483.5 -116.5q240 0 414 76.5t267 222t93 348.5q0 160 -56.5 255t-166.5 95q-100 0 -167 -75.5t-67 -192.5v-332h-143v936h-438v-936h-146v1051h1098l16 -115h-387v-313q92 102 238 102q174 0 274.5 -132t100.5 -343q0 -238 -114 -413t-323.5 -268t-492.5 -93 q-328 0 -563.5 134t-358 380t-122.5 577zM1686 1384q0 -45 29.5 -74.5t74.5 -29.5t74.5 29.5t29.5 74.5q0 43 -29.5 73t-74.5 30t-74.5 -30t-29.5 -73z" />
<glyph unicode="&#xbfa;" horiz-adv-x="2041" d="M190 0v1051h422q-61 57 -93 137t-32 176q0 125 58.5 224.5t165 154.5t241.5 55q117 0 219 -51q115 51 250 51q115 0 206 -43t142.5 -118.5t51.5 -170.5q0 -119 -80 -198h301v-115h-559v115q84 0 134 55t50 143q0 90 -68.5 147.5t-177.5 57.5q-66 0 -127 -16 q55 -55 85 -129t30 -156q0 -115 -70.5 -184.5t-181.5 -69.5t-182.5 69.5t-71.5 184.5q0 84 36 159t101 132q-47 10 -88 10q-139 0 -225 -86t-86 -221q0 -137 72.5 -225t191.5 -88h316l16 -115h-387v-313q43 49 104.5 75.5t132.5 26.5q174 0 273.5 -132t99.5 -343 q0 -174 -64.5 -310.5t-187.5 -212t-290 -75.5h-279q-233 0 -332 -150l-117 64q49 90 162 145.5t273 55.5h293q184 0 286.5 133t102.5 350q0 160 -56.5 255t-167.5 95q-102 0 -167.5 -75.5t-65.5 -192.5v-332h-145v936h-371v-936h-144zM1047 1370q0 -57 31.5 -94t78.5 -37 t78 37t31 94q0 72 -24.5 130.5t-72.5 98.5q-57 -41 -89.5 -99t-32.5 -130z" />
<glyph unicode="&#x2000;" horiz-adv-x="1351" />
<glyph unicode="&#x2001;" horiz-adv-x="2703" />
<glyph unicode="&#x2002;" horiz-adv-x="1351" />
<glyph unicode="&#x2003;" horiz-adv-x="2703" />
<glyph unicode="&#x2004;" horiz-adv-x="901" />
<glyph unicode="&#x2005;" horiz-adv-x="675" />
<glyph unicode="&#x2006;" horiz-adv-x="450" />
<glyph unicode="&#x2007;" horiz-adv-x="450" />
<glyph unicode="&#x2008;" horiz-adv-x="337" />
<glyph unicode="&#x2009;" horiz-adv-x="540" />
<glyph unicode="&#x200a;" horiz-adv-x="150" />
<glyph unicode="&#x200c;" horiz-adv-x="0" d="M-61 -139h122v2672h-122v-2672z" />
<glyph unicode="&#x200d;" horiz-adv-x="0" d="M-231 2318l79 -80l91 89v-2466h122v2468l93 -91l79 80l-151 152l151 151l-81 82l-152 -151l-150 151l-81 -82l151 -151z" />
<glyph unicode="&#x2010;" horiz-adv-x="655" d="M61 625l19 -129h514l-16 129h-517z" />
<glyph unicode="&#x2011;" horiz-adv-x="655" d="M61 625l19 -129h514l-16 129h-517z" />
<glyph unicode="&#x2012;" horiz-adv-x="655" d="M61 625l19 -129h514l-16 129h-517z" />
<glyph unicode="&#x2013;" horiz-adv-x="901" d="M61 625l19 -129h760l-19 129h-760z" />
<glyph unicode="&#x2014;" horiz-adv-x="1101" d="M61 625l19 -129h960l-16 129h-963z" />
<glyph unicode="&#x2018;" horiz-adv-x="354" d="M61 1120q0 -57 32 -93t79 -36q45 0 78 34t33 77t-28 75.5t-67 34.5q6 53 37 90t88 78l-45 78q-86 -45 -146.5 -142t-60.5 -196z" />
<glyph unicode="&#x2019;" horiz-adv-x="354" d="M41 1067l43 -76q86 45 147.5 142.5t61.5 195.5q0 57 -34 93t-79 36t-78.5 -33.5t-33.5 -76.5q0 -41 27.5 -75t66.5 -36q-6 -53 -36 -92t-85 -78z" />
<glyph unicode="&#x201a;" horiz-adv-x="354" d="M41 -170l43 -76q88 45 148.5 142.5t60.5 195.5q0 57 -33 92t-80 35q-45 0 -78.5 -32.5t-33.5 -75.5q0 -41 28.5 -74t65.5 -35q-6 -53 -36 -93t-85 -79z" />
<glyph unicode="&#x201c;" horiz-adv-x="673" d="M61 1120q0 -57 32 -93t79 -36q45 0 78 34t33 77t-28 75.5t-67 34.5q6 53 37 90t88 78l-45 78q-86 -45 -146.5 -142t-60.5 -196zM383 1120q0 -55 31.5 -92t77.5 -37q45 0 78.5 34t33.5 77q0 41 -27.5 73.5t-64.5 36.5q4 53 33.5 91t87.5 77l-43 78q-88 -45 -147.5 -142 t-59.5 -196z" />
<glyph unicode="&#x201d;" horiz-adv-x="671" d="M41 1067l43 -76q86 45 147.5 142.5t61.5 195.5q0 57 -34 93t-79 36t-78.5 -33.5t-33.5 -76.5q0 -41 27.5 -75t66.5 -36q-6 -53 -36 -92t-85 -78zM360 1067l43 -76q86 45 146.5 142.5t60.5 195.5q0 57 -32.5 93t-77.5 36t-78 -33.5t-33 -76.5q0 -41 27.5 -75t66.5 -36 q-8 -53 -37.5 -92t-85.5 -78z" />
<glyph unicode="&#x201e;" horiz-adv-x="671" d="M41 -168l43 -78q86 45 147.5 142.5t61.5 195.5q0 57 -34 93t-79 36t-78.5 -32.5t-33.5 -77.5q0 -41 28.5 -74t65.5 -35q-6 -53 -36 -91t-85 -79zM360 -170l43 -76q86 45 146.5 142.5t60.5 195.5q0 57 -32.5 92t-77.5 35t-78 -32.5t-33 -75.5q0 -41 28.5 -74t65.5 -35 q-8 -55 -37.5 -94t-85.5 -78z" />
<glyph unicode="&#x2020;" horiz-adv-x="802" d="M61 1280l39 -135h217l21 -1145l131 -8l20 1153h252l-39 135h-213v317l-172 7v-324h-256z" />
<glyph unicode="&#x2021;" horiz-adv-x="813" d="M61 502l39 -137h224l-11 -377l185 14l-11 363h265l-39 137h-224l7 575h256l-39 140h-224l11 380l-183 7l11 -387h-267l39 -140h224l-7 -575h-256z" />
<glyph unicode="&#x2022;" horiz-adv-x="485" d="M61 670q0 -74 53.5 -126t129.5 -52q75 0 127.5 52t52.5 126q0 76 -52.5 129t-127.5 53q-76 0 -129.5 -53.5t-53.5 -128.5z" />
<glyph unicode="&#x2026;" horiz-adv-x="950" d="M61 102q0 -43 31 -72.5t74 -29.5t72.5 29.5t29.5 72.5q0 45 -29.5 75t-72.5 30t-74 -30t-31 -75zM375 102q0 -43 30.5 -72.5t75.5 -29.5q41 0 72 29.5t31 72.5q0 45 -30 75t-73 30q-45 0 -75.5 -30t-30.5 -75zM682 102q0 -43 30.5 -72.5t73.5 -29.5t73 29.5t30 72.5 q0 45 -30 75t-73 30t-73.5 -30t-30.5 -75z" />
<glyph unicode="&#x202f;" horiz-adv-x="540" />
<glyph unicode="&#x2030;" horiz-adv-x="2525" d="M68 1090q0 -162 90 -254.5t235 -92.5q88 0 162 43t118 121t44 183q0 162 -91 255t-235 93q-88 0 -161.5 -43t-117.5 -122t-44 -183zM219 1092q0 109 51.5 164t120.5 55q74 0 123 -55.5t49 -165.5q0 -111 -50 -165.5t-120 -54.5q-76 0 -125 55.5t-49 166.5zM492 0l155 -8 l627 1454l-158 8zM1053 346q0 -162 91 -254t234 -92q88 0 162 43t117 121t43 182q0 162 -90 254t-232 92q-90 0 -164.5 -43t-117.5 -120.5t-43 -182.5zM1204 348q0 111 51.5 165t122.5 54q72 0 121 -56t49 -165t-50 -165t-120 -56q-74 0 -124 56.5t-50 166.5zM1810 346 q0 -162 90.5 -254t235.5 -92q88 0 162 43t118 121t44 182q0 162 -90.5 254t-235.5 92q-90 0 -164 -43t-117 -120.5t-43 -182.5zM1962 348q0 111 51 165t121 54q74 0 124 -56t50 -165t-51 -165t-121 -56q-74 0 -124 56.5t-50 166.5z" />
<glyph unicode="&#x2039;" horiz-adv-x="444" d="M61 453l297 -283l45 115l-208 217l208 217l-45 117l-297 -285v-98z" />
<glyph unicode="&#x203a;" horiz-adv-x="446" d="M41 285l47 -115l297 283v98l-297 285l-47 -117l213 -217z" />
<glyph unicode="&#x2044;" horiz-adv-x="823" d="M20 0l156 -8l627 1454l-156 8z" />
<glyph unicode="&#x205f;" horiz-adv-x="675" />
<glyph unicode="&#x20ac;" horiz-adv-x="1224" d="M0 571h178q-6 59 -6 117q0 74 8 129h-160l-20 123h207q61 219 225 350t397 131q74 0 180.5 -21.5t166.5 -58.5l-52 -116q-82 31 -141 44t-156 13q-150 0 -268.5 -92t-175.5 -250h506l18 -123h-555q-10 -68 -10 -127q0 -68 8 -119h539l18 -125h-528q53 -154 164.5 -243.5 t267.5 -89.5q174 0 305 61l64 -123q-63 -33 -169 -56.5t-194 -23.5q-242 0 -399.5 130t-214.5 345h-183z" />
<glyph unicode="&#x20ba;" horiz-adv-x="1017" d="M0 782l23 -120l153 55v-717h139q170 0 323 87t246 240.5t93 342.5h-164q0 -137 -68.5 -260t-179 -196t-227.5 -73v633l391 137l-24 119l-367 -129v107l391 137l-24 119l-367 -129v311l-162 -21v-350l-176 -61l23 -121l153 55v-102z" />
<glyph unicode="&#x20bd;" horiz-adv-x="1150" d="M68 414h122v121h-108l-14 122h122v736h379q236 0 375 -103.5t139 -322.5q-2 -217 -151.5 -329t-382.5 -112h-197v-112h594l15 -123h-609v-291h-162v291h-108zM352 664h203q162 0 260 72.5t103 224.5q0 162 -88.5 228t-258.5 66h-219v-591z" />
<glyph unicode="&#x2113;" horiz-adv-x="749" d="M20 494l39 -132q58 33 101 70v-117q0 -164 64.5 -252t221.5 -88q127 0 207 78l-55 101q-76 -39 -135 -39q-86 0 -112.5 56t-26.5 165v225q160 147 262 308t102 296q0 125 -70.5 199t-183.5 74q-121 0 -197.5 -77t-76.5 -210v-547q-70 -61 -140 -110zM324 760v387 q0 80 30.5 115.5t77.5 37.5q43 0 68.5 -32.5t25.5 -108.5q1 -170 -202 -399z" />
<glyph unicode="&#x2122;" horiz-adv-x="1495" d="M20 1288h236v-661h129v661h242l-13 105h-594v-105zM733 627h127v483l201 -281l33 7l190 270v-479h125v766h-57l-275 -385l-291 385h-53v-766z" />
<glyph unicode="&#x2126;" horiz-adv-x="1466" d="M88 131l12 -131h424l-8 131q-113 61 -184.5 227t-71.5 338q0 170 60.5 304.5t169 209t243.5 74.5t242.5 -74.5t168 -209t60.5 -304.5q0 -172 -71.5 -337.5t-184.5 -227.5l-6 -131h424l12 131h-227q104 84 164.5 240.5t60.5 324.5q0 207 -76.5 371t-223 259t-343.5 99 q-197 -4 -343 -99t-223 -259t-77 -371q0 -168 60.5 -324.5t164.5 -240.5h-227z" />
<glyph unicode="&#x212e;" horiz-adv-x="1021" d="M68 500q0 -240 133 -383.5t387 -143.5q102 0 186 28t168 75l-51 119q-92 -45 -158.5 -65.5t-146.5 -20.5q-176 0 -261 97t-92 265h721q0 246 -103 397.5t-321 151.5q-143 0 -248.5 -66.5t-159.5 -184.5t-54 -269zM238 582q14 139 86.5 220t199.5 81q236 0 271 -301h-557z " />
<glyph unicode="&#x2202;" horiz-adv-x="1097" d="M68 500q2 152 60 269.5t169 184t258 66.5q109 0 209 -55q-76 141 -215 254.5t-361 201.5l48 115q403 -143 599.5 -409.5t196.5 -622.5q0 -154 -58.5 -273.5t-170 -188.5t-266.5 -69q-143 0 -250 66.5t-163 186.5t-56 274zM231 502q0 -174 82 -282.5t232 -108.5 q147 0 233 107.5t88 273.5q0 152 -28 274q-113 117 -285 117q-147 0 -233.5 -107.5t-88.5 -273.5z" />
<glyph unicode="&#x2206;" horiz-adv-x="1247" d="M20 0h1207v25l-535 1368h-155zM225 131l387 1049l404 -1049h-791z" />
<glyph unicode="&#x220f;" horiz-adv-x="1271" d="M190 0h154v1274h584v-1274h155v1393h-893v-1393z" />
<glyph unicode="&#x2211;" horiz-adv-x="925" d="M61 0h824l-19 129h-635l371 545v67l-369 531h594l-18 121h-746v-121l400 -565l-402 -578v-129z" />
<glyph unicode="&#x2212;" horiz-adv-x="978" d="M61 625l17 -129h840l-23 129h-834z" />
<glyph unicode="&#x2215;" horiz-adv-x="823" d="M20 0l156 -8l627 1454l-156 8z" />
<glyph unicode="&#x2219;" horiz-adv-x="485" d="M61 670q0 -74 53.5 -126t129.5 -52q75 0 127.5 52t52.5 126q0 76 -52.5 129t-127.5 53q-76 0 -129.5 -53.5t-53.5 -128.5z" />
<glyph unicode="&#x221a;" horiz-adv-x="1142" d="M20 649l340 -649l168 -8l594 1454l-151 8l-527 -1290l-262 493z" />
<glyph unicode="&#x221e;" horiz-adv-x="1673" d="M68 506q0 -121 52 -215t147 -146.5t218 -52.5q197 0 332 215q76 -102 171 -158.5t206 -56.5q121 0 215 58.5t146.5 158t52.5 219.5q0 121 -52.5 216.5t-147.5 147.5t-218 52q-201 0 -336 -213q-74 98 -169 155.5t-204 57.5q-119 0 -213 -58.5t-147 -158.5t-53 -221z M217 502q0 127 72.5 215t193.5 88q98 0 178 -56.5t130 -148.5l-21 -68q-39 -129 -108.5 -217t-176.5 -88q-121 0 -194.5 80t-73.5 195zM885 434l20 70q39 123 109.5 214t175.5 91q121 0 194.5 -81t73.5 -196q0 -127 -72.5 -215t-193.5 -88q-98 0 -177 56.5t-130 148.5z" />
<glyph unicode="&#x222b;" horiz-adv-x="686" d="M0 -334q27 -12 69 -22.5t81 -10.5q129 0 201.5 82t72.5 224v1353q0 172 135 172q25 0 88 -22l39 129q-25 12 -66.5 22.5t-82.5 10.5q-129 0 -202 -81t-73 -223v-1353q0 -170 -137 -170q-37 0 -88 18z" />
<glyph unicode="&#x2248;" horiz-adv-x="1036" d="M61 262l121 -24q2 41 42 61t77 20q94 0 219 -43q129 -47 199 -47q102 0 179 40t77 149l-123 28q-2 -43 -38 -63.5t-71 -20.5q-86 0 -208 46q-127 45 -211 45q-104 0 -183.5 -40t-79.5 -151zM61 631l121 -27q2 43 42 63.5t77 20.5q96 0 219 -45t199 -45q256 0 256 188 l-123 29q-2 -43 -38 -63.5t-71 -20.5q-86 0 -208 45q-129 43 -211 43q-104 0 -183.5 -40t-79.5 -148z" />
<glyph unicode="&#x2260;" horiz-adv-x="1028" d="M61 393l19 -125h242l-129 -288l141 -11l135 299h498l-17 125h-428l117 260h328l-17 125h-256l123 281l-141 6l-127 -287h-488l19 -125h412l-115 -260h-316z" />
<glyph unicode="&#x2264;" horiz-adv-x="684" d="M61 543l535 -326l47 125l-420 260l420 260l-47 123l-535 -328v-114zM63 123l17 -123h557l-12 123h-562z" />
<glyph unicode="&#x2265;" horiz-adv-x="686" d="M41 342l47 -125l537 326v114l-537 328l-47 -123l420 -260zM43 123l16 -123h557l-14 123h-559z" />
<glyph unicode="&#x25ca;" horiz-adv-x="1095" d="M61 592l455 -592h64l454 592v45l-454 590h-64l-455 -590v-45zM219 612l328 439l332 -439l-332 -432z" />
<glyph unicode="&#x25cc;" horiz-adv-x="1239" d="M92 526q0 -27 17.5 -42t44.5 -15t43 15.5t16 41.5q0 27 -16.5 44.5t-42.5 17.5q-27 0 -44.5 -17.5t-17.5 -44.5zM121 356q0 -27 17.5 -43t43.5 -16q27 0 43.5 16.5t16.5 42.5q0 27 -16.5 43.5t-43.5 16.5q-26 0 -43.5 -16.5t-17.5 -43.5zM121 702q0 -27 17.5 -43 t43.5 -16q27 0 43.5 16.5t16.5 42.5q0 27 -16.5 44.5t-43.5 17.5q-26 0 -43.5 -17.5t-17.5 -44.5zM217 193q0 -27 17.5 -43.5t44.5 -16.5t43 16.5t16 43.5t-16.5 43t-42.5 16q-27 0 -44.5 -16.5t-17.5 -42.5zM219 864q0 -27 17.5 -43t44.5 -16t43 16.5t16 42.5 q0 27 -16.5 44.5t-42.5 17.5q-27 0 -44.5 -17.5t-17.5 -44.5zM377 90q0 -27 16.5 -43t42.5 -16q27 0 43.5 16t16.5 43t-16.5 44.5t-43.5 17.5q-26 0 -42.5 -17.5t-16.5 -44.5zM377 969q0 -27 16.5 -43.5t42.5 -16.5q27 0 43.5 16.5t16.5 43.5t-16.5 43t-43.5 16 q-26 0 -42.5 -16.5t-16.5 -42.5zM559 59q0 -27 16.5 -43t42.5 -16q27 0 43.5 16.5t16.5 42.5q0 27 -16.5 44.5t-43.5 17.5t-43 -17.5t-16 -44.5zM559 999q0 -27 16.5 -43t42.5 -16q27 0 43.5 16.5t16.5 42.5q0 27 -16.5 44.5t-43.5 17.5t-43 -17.5t-16 -44.5zM743 90 q0 -27 16.5 -43t43.5 -16q26 0 42.5 16t16.5 43t-16.5 44.5t-42.5 17.5q-27 0 -43.5 -17.5t-16.5 -44.5zM743 969q0 -27 16.5 -43.5t43.5 -16.5q26 0 42.5 16.5t16.5 43.5t-16.5 43t-42.5 16q-27 0 -43.5 -16.5t-16.5 -42.5zM899 864q0 -27 16.5 -43t42.5 -16 q27 0 44.5 16.5t17.5 42.5q0 27 -17.5 44.5t-44.5 17.5t-43 -17.5t-16 -44.5zM901 193q0 -27 16.5 -43.5t43.5 -16.5q26 0 43.5 16.5t17.5 43.5t-17.5 43t-43.5 16q-27 0 -43.5 -16.5t-16.5 -42.5zM997 356q0 -27 16.5 -43t43.5 -16q26 0 42.5 16.5t16.5 42.5 q0 27 -16.5 43.5t-42.5 16.5q-27 0 -43.5 -16.5t-16.5 -43.5zM997 702q0 -27 16.5 -43t43.5 -16q26 0 42.5 16.5t16.5 42.5q0 27 -16.5 44.5t-42.5 17.5q-27 0 -43.5 -17.5t-16.5 -44.5zM1026 526q0 -27 16.5 -42t42.5 -15q27 0 44.5 15.5t17.5 41.5q0 27 -17.5 44.5 t-44.5 17.5t-43 -17.5t-16 -44.5z" />
<glyph unicode="&#x25fc;" horiz-adv-x="1024" d="M0 0v1024h1024v-1024h-1024z" />
<glyph unicode="&#xf6c3;" horiz-adv-x="0" d="M-264 -414l43 -78q84 41 142.5 132.5t58.5 187.5q0 57 -33 93t-80 36q-45 0 -78 -34t-33 -79q0 -41 28 -73.5t66 -34.5q-8 -84 -114 -150z" />
<glyph unicode="&#xfb01;" horiz-adv-x="1032" d="M33 977l2 -123h149v-854h162v854h236l-54 123h-182v145q0 170 139 170q20 0 47 -6t43 -14l37 131q-27 14 -67.5 24.5t-81.5 10.5q-129 0 -204 -83t-75 -222v-156h-151zM712 1300q0 -47 31 -77.5t78 -30.5q45 0 77.5 31.5t32.5 76.5t-32.5 78t-77.5 33q-47 0 -78 -31.5 t-31 -79.5zM741 0h164v993h-164v-993z" />
<glyph unicode="&#xfb02;" horiz-adv-x="1071" d="M33 977l2 -123h149v-854h162v854h236l-54 123h-182v145q0 170 139 170q20 0 47 -6t43 -14l37 131q-27 14 -67.5 24.5t-81.5 10.5q-129 0 -204 -83t-75 -222v-156h-151zM762 0h161v1446l-161 -21v-1425z" />
<glyph horiz-adv-x="329" d="M20 1833l181 -320l108 31l-110 289h-179z" />
<glyph horiz-adv-x="579" d="M20 1665q0 -41 30 -70.5t71 -29.5q43 0 71.5 29.5t28.5 70.5t-28.5 69.5t-71.5 28.5q-41 0 -71 -29.5t-30 -68.5zM360 1665q0 -41 29 -70.5t70 -29.5q43 0 71.5 29.5t28.5 70.5t-28.5 69.5t-71.5 28.5q-39 0 -69 -28.5t-30 -69.5z" />
<glyph horiz-adv-x="544" d="M20 1604h504l-16 129h-488v-129z" />
<glyph horiz-adv-x="329" d="M20 1544l109 -31l180 320h-178z" />
<glyph horiz-adv-x="641" d="M20 1534l146 -21l153 201l154 -201l148 21l-238 299h-129z" />
<glyph horiz-adv-x="641" d="M20 1812l238 -299h129l234 299l-146 21l-153 -201l-154 201z" />
<glyph horiz-adv-x="591" d="M20 1817q0 -121 70 -202t205 -83q137 2 206.5 83t69.5 202h-116q0 -64 -43 -114t-117 -50t-116 50t-42 114h-117z" />
<glyph horiz-adv-x="262" d="M20 1671q0 -45 33 -77.5t80 -32.5q45 0 77 32.5t32 77.5t-32 79t-77 34t-79 -34t-34 -79z" />
<glyph horiz-adv-x="421" d="M20 1698q0 -74 56.5 -124t136.5 -50q78 0 133 50t55 124q0 78 -55 130t-133 52q-80 0 -136.5 -52t-56.5 -130zM125 1698q0 39 25.5 63.5t62.5 24.5t61.5 -24.5t24.5 -63.5q0 -35 -25.5 -59.5t-60.5 -24.5q-37 0 -62.5 24.5t-25.5 59.5z" />
<glyph horiz-adv-x="638" d="M20 1554h113q2 39 24.5 61.5t51.5 22.5q51 0 104 -47q47 -45 121 -45q84 0 134 47t50 154h-112q-2 -39 -22.5 -60.5t-49.5 -21.5q-53 0 -100 47q-45 43 -131 43q-182 0 -183 -201z" />
<glyph horiz-adv-x="643" d="M20 1544l109 -31l180 320h-178zM334 1544l108 -31l181 320h-179z" />
<glyph horiz-adv-x="737" d="M68 934q0 104 53 191t147 138.5t213 51.5q106 0 189.5 -42t129.5 -117t46 -169q0 -96 -57.5 -181t-159.5 -185l-127 -125q-80 -78 -114 -130.5t-34 -107.5q0 -74 53.5 -121t139.5 -47q88 0 157.5 46t107.5 127t36 181h127q0 -137 -55.5 -246.5t-152.5 -172t-220 -62.5 q-154 0 -250 83t-96 212q0 82 49 155.5t160 184.5l125 125q84 80 121.5 136t37.5 134q0 84 -59.5 139.5t-153.5 55.5q-117 0 -194 -64h4q94 0 154.5 -56t60.5 -142q0 -88 -59.5 -146.5t-151.5 -58.5q-98 0 -162.5 59.5t-64.5 153.5zM199 922q0 -39 25.5 -65t64.5 -26 t65.5 26t26.5 65t-25.5 65.5t-64.5 26.5t-65.5 -25.5t-26.5 -66.5z" />
<glyph horiz-adv-x="524" d="M-764 1276q0 102 58.5 183t167 127t251.5 46q187 0 327 -76.5t217 -214t77 -311.5v-1030h-144v1030q0 139 -58 247.5t-165.5 169t-253.5 60.5q-154 0 -239.5 -63.5t-85.5 -167.5q0 -84 48 -149.5t134 -84.5l-170 -49q-76 45 -119 120t-45 163z" />
<glyph horiz-adv-x="0" d="M-334 72l144 8v-463l-144 -20v475z" />
<glyph horiz-adv-x="874" d="M-336 936v115h1172l18 -115h-387v-1237h-145v1237h-658z" />
<glyph horiz-adv-x="524" d="M-1106 1266q0 106 68.5 189t204 130t323.5 47q254 0 445.5 -76.5t295 -214t103.5 -311.5v-1030h-144v1030q0 139 -85 247.5t-243.5 169t-371.5 60.5q-219 0 -331.5 -66.5t-112.5 -174.5q0 -76 38.5 -132.5t114.5 -80.5l-92 -80q-98 39 -154.5 116.5t-58.5 176.5z" />
<glyph horiz-adv-x="964" d="M-571 936v115h1110q102 0 185 -42t129 -117t46 -167q0 -94 -46 -169t-127 -117t-181 -42t-181 42t-126 116t-45 168q0 127 81 213h-845zM332 725q0 -92 59.5 -152.5t153.5 -60.5q90 0 148.5 60.5t58.5 152.5t-58.5 151.5t-148.5 59.5q-94 0 -153.5 -59.5t-59.5 -151.5z " />
<glyph horiz-adv-x="1363" d="M-592 936v115h895q74 96 190.5 149t262.5 53q153 0 276 -68.5t193.5 -190.5t70.5 -273q0 -158 -79.5 -285t-222 -198.5t-320.5 -71.5h-119v115h119q135 0 241.5 56t167 156.5t60.5 227.5q0 117 -50.5 210t-139.5 146t-197 53q-162 0 -271 -79h54q102 0 185 -42t129 -117 t46 -167q0 -141 -97 -231.5t-249 -90.5q-100 0 -180 44.5t-125 123t-45 174.5q0 102 35 191h-830zM338 748q0 -100 60.5 -165t154.5 -65q88 0 143.5 57.5t55.5 149.5q0 94 -59.5 152.5t-160.5 58.5h-149q-45 -86 -45 -188z" />
<glyph horiz-adv-x="524" d="M-846 1276q0 102 58.5 183t166 127t250.5 46q215 0 374 -76.5t245 -214t86 -311.5v-1030h-144v1030q0 139 -67.5 247.5t-194.5 169t-299 60.5q-152 0 -238.5 -63.5t-86.5 -167.5q0 -100 69.5 -162.5t194.5 -62.5v-101q-188 0 -300 91.5t-114 234.5z" />
<glyph horiz-adv-x="964" d="M-406 936v115h945q102 0 185 -42t129 -117t46 -167q0 -94 -46 -169t-127 -117t-181 -42t-181 42t-126 116t-45 168q0 127 81 213h-680zM332 725q0 -92 59.5 -152.5t153.5 -60.5q90 0 148.5 60.5t58.5 152.5t-58.5 151.5t-148.5 59.5q-94 0 -153.5 -59.5t-59.5 -151.5z " />
<glyph horiz-adv-x="1363" d="M-401 936v115h704q74 96 190.5 149t262.5 53q153 0 276 -68.5t193.5 -190.5t70.5 -273q0 -158 -79.5 -285t-222 -198.5t-320.5 -71.5h-119v115h119q135 0 241.5 56t167 156.5t60.5 227.5q0 117 -50.5 210t-139.5 146t-197 53q-162 0 -271 -79h54q102 0 185 -42t129 -117 t46 -167q0 -141 -97 -231.5t-249 -90.5q-100 0 -180 44.5t-125 123t-45 174.5q0 102 35 191h-639zM338 748q0 -100 60.5 -165t154.5 -65q88 0 143.5 57.5t55.5 149.5q0 94 -59.5 152.5t-160.5 58.5h-149q-45 -86 -45 -188z" />
<glyph horiz-adv-x="524" d="M-993 1266q0 106 68.5 189t200.5 130t316 47q230 0 397 -76.5t256 -213t89 -312.5v-1030h-144v1030q0 139 -70.5 247.5t-204.5 169t-323 60.5q-211 0 -323.5 -66.5t-112.5 -174.5q0 -98 68.5 -156.5t195.5 -58.5v-101q-190 0 -300.5 86t-112.5 230z" />
<glyph horiz-adv-x="2174" d="M150 330q0 197 84.5 409.5t211.5 331.5l150 -20q-127 -104 -210 -311.5t-83 -413.5q0 -211 98.5 -375t290 -256t457.5 -92q242 0 414 64.5t261 186t89 287.5q0 152 -84 253.5t-250 101.5h-29v-76q0 -135 -58 -238.5t-166.5 -161t-256.5 -57.5q-119 0 -212 42t-144 116 t-51 166q0 109 64.5 188.5t182.5 112.5v463h981l17 -115h-357v-326h27q158 0 268.5 -63.5t166.5 -170t56 -235.5q0 -203 -109.5 -353t-316 -231t-493.5 -81q-311 0 -537.5 108.5t-344 302t-117.5 443.5zM815 287q0 -86 70.5 -141.5t183.5 -55.5q158 0 247 89t89 241v76h-320 q-129 0 -199.5 -56.5t-70.5 -152.5zM1055 610h28h322v326h-350v-326z" />
<glyph horiz-adv-x="1656" d="M88 287q0 109 64.5 188.5t183.5 112.5v463h979l18 -115h-356v-326h604l10 -114h-225v-496h-147v496h-242v-76q0 -135 -58.5 -238.5t-168 -161t-254.5 -57.5q-119 0 -212.5 42t-144.5 116t-51 166zM242 287q0 -86 69.5 -141.5t184.5 -55.5q158 0 246.5 89t88.5 241v76 h-319q-129 0 -199.5 -56.5t-70.5 -152.5zM481 610h27h323v326h-350v-326z" />
<glyph horiz-adv-x="2527" d="M109 485q0 168 74.5 295t225 199t369.5 72h903l17 -115h-385v-313q92 102 235 102q174 0 273.5 -131t99.5 -344q0 -242 -115 -436h385v1237h146v-1352h-611q-154 -186 -411.5 -289.5t-593.5 -103.5q-264 0 -406.5 74.5t-142.5 216.5q0 98 81 157.5t222 59.5h1153 q139 190 139 436q0 160 -56 255t-165 95q-102 0 -167.5 -75.5t-65.5 -192.5v-332h-148v936h-368q-268 0 -401.5 -121t-133.5 -330q0 -180 103 -288q-16 49 -17 94q0 94 43 169t120 116.5t171 41.5q100 0 181 -41.5t126 -116.5t45 -169q0 -92 -46 -167t-128 -118t-184 -43 q-174 0 -302 68.5t-196.5 187.5t-68.5 266zM326 -403q0 -84 107.5 -124t287.5 -40q254 0 458.5 69.5t346.5 196.5h-1051q-74 0 -111.5 -27.5t-37.5 -74.5zM471 291q0 -92 59.5 -151.5t151.5 -59.5t152.5 59.5t60.5 151.5t-60.5 151.5t-152.5 59.5t-151.5 -59.5t-59.5 -151.5 z" />
<glyph horiz-adv-x="1677" d="M150 274q0 131 36.5 286t102 292t149.5 219l146 -20q-82 -72 -145.5 -203t-99.5 -285.5t-36 -292.5q0 -197 64.5 -347t191.5 -235t305 -85q176 0 300 74.5t187.5 208.5t63.5 309q0 172 -58.5 286.5t-168.5 114.5q-102 0 -166 -73.5t-64 -190.5v-332h-143v1051h143v-424 q94 98 234 98q117 0 203 -71.5t131 -192.5t45 -266q0 -211 -84 -374t-243 -254t-380 -91q-223 0 -385 102.5t-245.5 282.5t-83.5 413z" />
<glyph horiz-adv-x="3936" d="M109 467q0 178 102 319.5t289.5 221t431.5 79.5q301 0 524 -131q186 131 436 131q225 0 402 -108q166 109 362 108q260 0 400.5 -156.5t140.5 -438.5q0 -397 -293 -678h696v1237h148v-1352h-985q-272 -190 -701.5 -291.5t-1004.5 -101.5q-453 0 -669 83t-216 224 q0 90 75 145.5t212 55.5h2236q174 131 262 303t88 377q0 225 -97 346t-292 121q-137 0 -254 -64q109 -98 168.5 -237.5t59.5 -303.5q0 -176 -90.5 -284.5t-243.5 -108.5q-156 0 -246 108.5t-90 284.5q0 156 58.5 294t162.5 239q-127 72 -289 72q-180 0 -317 -87 q121 -100 186.5 -233t65.5 -285q0 -176 -90 -284.5t-246 -108.5t-246 108.5t-90 284.5q0 150 50 280t145 230q-182 94 -418 95q-201 0 -352.5 -63.5t-234.5 -176.5t-83 -254q0 -176 107 -281q-20 47 -21 105q0 94 43 169t120 116.5t171 41.5q100 0 181 -41.5t126 -116.5 t45 -169q0 -92 -46 -167t-128 -118t-184 -43q-174 0 -302 65.5t-196.5 180.5t-68.5 258zM326 -387q0 -82 192.5 -132t538.5 -50q938 0 1456 268h-2054q-63 0 -98 -23.5t-35 -62.5zM471 291q0 -92 59.5 -151.5t151.5 -59.5t152.5 59.5t60.5 151.5t-60.5 151.5t-152.5 59.5 t-151.5 -59.5t-59.5 -151.5zM1309 356q0 -119 48 -192.5t134 -73.5q88 0 135 74t47 192q0 129 -53 240t-152 192q-78 -82 -118.5 -192.5t-40.5 -239.5zM2114 356q0 -119 48 -192.5t134 -73.5t133 74t47 192q0 140 -49 256.5t-139 198.5q-82 -82 -128 -198.5t-46 -256.5z" />
<glyph horiz-adv-x="2084" d="M88 287q0 109 64.5 188.5t183.5 112.5v463h979l18 -115h-356v-326h33q143 0 249.5 -67.5t164 -188.5t57.5 -274q0 -143 -41 -266h309v1237h147v-1352h-505q-102 -188 -306 -290.5t-483 -102.5q-250 0 -382 82t-132 215q0 94 75 152.5t210 58.5h907q47 121 47 266 q0 186 -84 301t-231 115h-35v-76q0 -135 -58.5 -238.5t-168 -161t-254.5 -57.5q-119 0 -212.5 42t-144.5 116t-51 166zM242 287q0 -86 69.5 -141.5t184.5 -55.5q158 0 246.5 89t88.5 241v76h-319q-129 0 -199.5 -56.5t-70.5 -152.5zM242 -397q0 -76 90 -122t270 -46 q225 0 379 70.5t238 193.5h-846q-63 0 -97 -26.5t-34 -69.5zM481 610h27h323v326h-350v-326z" />
<glyph horiz-adv-x="2064" d="M190 0v1051h1031l16 -115h-387v-313q96 102 237 102q180 0 276.5 -130t96.5 -345q0 -248 -69 -436h340v1237h143v-1352h-533q-100 -190 -279 -291.5t-429 -101.5q-137 0 -237.5 35.5t-153 99t-52.5 141.5q0 109 75 170.5t220 61.5h750q72 176 72 436q0 162 -54.5 256 t-169.5 94q-102 0 -167.5 -75.5t-65.5 -192.5v-332h-145v936h-371v-936h-144zM344 -418q0 -66 78 -107.5t211 -41.5q377 0 545 266h-693q-141 0 -141 -117z" />
<glyph horiz-adv-x="3131" d="M109 467q0 178 102 319.5t289.5 221t431.5 79.5q301 0 524 -131q86 63 187.5 97t207.5 34q260 0 400.5 -156.5t140.5 -438.5q0 -193 -60.5 -364t-177.5 -314h642v1237h145v-1352h-893q-205 -186 -509 -289.5t-687 -103.5q-346 0 -513 79.5t-167 217.5q0 94 73.5 152.5 t223.5 58.5h1497q135 135 205 307t70 373q0 225 -97.5 346t-292.5 121q-158 0 -282 -80q123 -100 190.5 -235.5t67.5 -289.5q0 -176 -90 -284.5t-246 -108.5t-246 108.5t-90 284.5q0 147 52.5 278.5t144.5 229.5q-180 96 -420 97q-201 0 -352.5 -63.5t-234.5 -176.5 t-83 -254q0 -176 107 -281q-20 47 -21 105q0 94 43 169t120 116.5t171 41.5q100 0 181 -41.5t126 -116.5t45 -169q0 -92 -46 -167t-128 -118t-184 -43q-174 0 -302 65.5t-196.5 180.5t-68.5 258zM326 -397q0 -78 132 -124t394 -46q303 0 551 68.5t428 197.5h-1362 q-143 0 -143 -96zM471 291q0 -92 59.5 -151.5t151.5 -59.5t152.5 59.5t60.5 151.5t-60.5 151.5t-152.5 59.5t-151.5 -59.5t-59.5 -151.5zM1309 356q0 -119 48 -192.5t134 -73.5q88 0 135 74t47 192q0 131 -54 243t-155 194q-74 -82 -114.5 -194t-40.5 -243z" />
<glyph horiz-adv-x="2293" d="M150 295q0 211 73.5 431t186.5 345l147 -20q-109 -113 -181.5 -327t-72.5 -433q0 -315 147.5 -501.5t417.5 -186.5q223 0 350.5 107.5t145.5 289.5h-580v1051l146 10v-944h436v567q0 197 97.5 300t265.5 103q141 0 244.5 -78.5t157.5 -218t54 -317.5q0 -215 -110.5 -344 t-323.5 -129h-244q-25 -240 -191.5 -382t-447.5 -142q-225 0 -387 103.5t-246.5 288.5t-84.5 427zM1511 117h240q143 0 212 96t69 260q0 219 -78 353.5t-221 134.5q-102 0 -162 -68t-60 -205v-571z" />
<glyph horiz-adv-x="2230" d="M150 340q0 195 83.5 403.5t212.5 327.5l150 -20q-127 -104 -210 -306t-83 -409q0 -213 100.5 -380t289 -260t446.5 -93q256 0 443 82t286.5 229t99.5 336q0 160 -56.5 255t-166.5 95q-100 0 -167 -75.5t-67 -192.5v-332h-143v936h-438v-936h-146v1051h1098l16 -115h-387 v-313q96 102 238 102q174 0 274.5 -132t100.5 -343q0 -225 -120 -400.5t-342 -274.5t-523 -99t-525.5 110.5t-344 306t-119.5 447.5z" />
<glyph horiz-adv-x="2211" d="M178 -408q0 106 80 164t238 58h809q141 258 141 659q0 225 -68.5 356.5t-218.5 131.5q-98 0 -166.5 -69t-68.5 -204v-688h-146v641q0 145 -59.5 232.5t-173.5 87.5q-109 0 -161 -74t-52 -223v-664h-144v664q0 205 91.5 314t265.5 109q98 0 174 -48t123 -134 q49 86 131 134t184 48q215 0 328.5 -167.5t113.5 -446.5q0 -383 -129 -659h406v1237h145v-1352h-614q-121 -188 -311.5 -290.5t-444.5 -102.5q-217 0 -345 76.5t-128 209.5zM332 -408q0 -76 84 -117.5t235 -41.5q189 0 334 68.5t246 197.5h-735q-164 0 -164 -107z" />
<glyph horiz-adv-x="2590" d="M109 489q0 170 78.5 306.5t223 214t337.5 77.5q180 0 316 -68.5t210 -194.5t74 -298v-96q0 -168 58 -253t183 -85q244 0 244 385q0 131 -43 295t-125 279l145 28q86 -141 130.5 -305t44.5 -295q0 -217 -80 -350t-240 -160q-8 -82 -37 -155h627v1237h145v-1352h-827 q-115 -184 -341 -288.5t-521 -104.5q-258 0 -403.5 74.5t-145.5 201.5q0 111 84 171.5t243 60.5h986q27 63 41 153q-154 23 -234 141.5t-80 321.5v96q0 205 -120.5 320t-333.5 115q-147 0 -257 -60.5t-169.5 -167t-59.5 -244.5q0 -182 105 -292q-16 49 -17 94q0 92 43 166.5 t119 116.5t170 42q100 0 181 -42t126 -116.5t45 -166.5t-46 -167t-128 -118t-184 -43q-174 0 -302 69.5t-196.5 189.5t-68.5 267zM315 -418q0 -70 106.5 -109.5t289.5 -39.5q243 0 421.5 68.5t276.5 197.5h-920q-174 0 -174 -117zM471 291q0 -92 59.5 -151.5t151.5 -59.5 t152.5 59.5t60.5 151.5t-60.5 151.5t-152.5 59.5t-151.5 -59.5t-59.5 -151.5z" />
<glyph horiz-adv-x="3301" d="M150 348q0 195 83.5 398.5t212.5 324.5l150 -20q-127 -104 -210 -303t-83 -404q0 -223 124 -392t356.5 -263.5t545.5 -98.5h776q285 0 495 75t324.5 222.5t114.5 362.5q0 160 -56 255t-167 95q-80 0 -139.5 -50t-81.5 -134v-416h-146v936h-512v-936h-145v467 q0 141 -66.5 254t-182.5 176.5t-259 63.5q-158 0 -273.5 -60.5t-178 -168t-62.5 -247.5q0 -180 102 -288q-16 49 -16 94q0 94 43 169t120 116.5t171 41.5q100 0 181 -41.5t126 -116.5t45 -169q0 -92 -46 -167t-128 -118t-184 -43q-174 0 -302 68.5t-197 187.5t-69 266 q0 174 82 311.5t233.5 214t352.5 76.5q158 0 291 -66.5t217 -184.5v215h1171l17 -115h-385v-301q90 90 225 90q174 0 273.5 -132t99.5 -343q0 -250 -132 -424t-377 -262t-579 -88h-776q-362 0 -628.5 107.5t-408.5 304t-142 460.5zM979 291q0 -92 59.5 -151.5t151.5 -59.5 t152.5 59.5t60.5 151.5t-60.5 151.5t-152.5 59.5t-151.5 -59.5t-59.5 -151.5z" />
<glyph horiz-adv-x="2293" d="M150 326q0 203 72.5 410.5t187.5 334.5l147 -20q-111 -115 -182.5 -318t-71.5 -411q0 -209 89 -373t258 -255t403 -91q317 0 438 135q-68 31 -96.5 91t-28.5 146v25h-582v1051l146 10v-944h436v567q0 197 97.5 300t265.5 103q141 0 244.5 -78.5t157.5 -218t54 -317.5 q0 -215 -110.5 -344t-323.5 -129h-240v-16q0 -66 34 -112t95 -46h334l17 -115h-340q-72 -109 -234 -172t-364 -63q-276 0 -481 108.5t-313.5 301t-108.5 440.5zM1511 117h240q143 0 212 96t69 260q0 219 -78 353.5t-221 134.5q-102 0 -162 -68t-60 -205v-571z" />
<glyph horiz-adv-x="2234" d="M88 287q0 109 64.5 188.5t183.5 112.5v463h979l18 -115h-356v-326h215q70 0 131 -18q100 53 229 53q106 0 189.5 -45t128.5 -124t45 -179q0 -86 -25 -180h324v-117h-524q33 66 52 148.5t19 148.5q0 102 -56 161.5t-153 59.5q-37 0 -82 -10q59 -53 93 -128t34 -161 q0 -111 -70.5 -183.5t-176.5 -72.5q-109 0 -179.5 71.5t-70.5 184.5q0 160 100 277h-24h-199v-76q0 -135 -58.5 -238.5t-168 -161t-254.5 -57.5q-119 0 -212.5 42t-144.5 116t-51 166zM242 287q0 -86 69.5 -141.5t184.5 -55.5q158 0 246.5 89t88.5 241v76h-319 q-129 0 -199.5 -56.5t-70.5 -152.5zM481 610h27h323v326h-350v-326zM1243 219q0 -57 30 -94t77 -37q45 0 74.5 37t29.5 94q0 72 -29.5 130.5t-83.5 94.5q-47 -41 -72.5 -98t-25.5 -127z" />
<glyph horiz-adv-x="2430" d="M123 -485q0 106 79 175.5t201 69.5h1080v-114h-1080q-57 0 -92 -37t-35 -94q0 -72 86.5 -110t229.5 -38h1046q182 0 322.5 50.5t218.5 148.5t78 235q0 100 -57.5 168t-153.5 68q-100 0 -163.5 -70.5t-63.5 -179.5v-178h-146v391h-968v117h278q150 0 227.5 77.5 t77.5 206.5q0 100 -54 165t-151 65q-104 0 -168.5 -71t-64.5 -179v-70h-145v625h-371v-936h-144v1051h1031l16 -115h-387v-274q47 45 109.5 69.5t134.5 24.5q160 0 254 -98.5t94 -256.5q0 -180 -129 -284h360v934h146v-985q94 98 237 98q160 0 257 -101.5t97 -261.5 q0 -174 -97 -296.5t-272 -187.5t-403 -65h-1046q-213 0 -341 69t-128 194z" />
<glyph horiz-adv-x="2527" d="M150 348q0 195 83.5 398.5t212.5 324.5l150 -20q-127 -104 -210 -303t-83 -404q0 -229 127 -396t364.5 -256t559.5 -89q276 0 482 50t318.5 147.5t112.5 236.5q0 90 -44 148.5t-114 58.5q-82 0 -135 -56.5t-53 -144.5v-43h-145v496h-242v-76q0 -135 -58.5 -238.5 t-168 -161t-254.5 -57.5q-121 0 -214.5 42t-144.5 116t-51 166q0 109 64.5 188.5t183.5 112.5v463h981l16 -115h-354v-326h604l8 -114h-225v-199q76 70 188 70q140 0 225 -93.5t85 -238.5q0 -176 -129 -302t-370 -191.5t-566 -65.5q-371 0 -642.5 106.5t-416.5 303 t-145 462.5zM799 287q0 -86 69.5 -141.5t184.5 -55.5q158 0 245.5 89t87.5 241v76h-317q-131 0 -200.5 -56.5t-69.5 -152.5zM1038 610h27h321v326h-348v-326z" />
<glyph horiz-adv-x="1802" d="M150 504q0 311 102 563t295.5 399.5t458.5 147.5q199 0 355.5 -75t244.5 -204t88 -286q0 -100 -61.5 -166t-155.5 -66q-96 0 -161 59.5t-65 149.5t61.5 147.5t157.5 57.5q39 0 66 -8q-59 123 -196.5 193.5t-333.5 70.5q-221 0 -380 -131t-241 -356.5t-82 -499.5 t70.5 -477t206 -311.5t321.5 -108.5q174 0 296 74.5t184.5 208.5t62.5 309q0 170 -58.5 285.5t-168.5 115.5q-104 0 -167 -73.5t-63 -190.5v-332h-145v1051h145v-424q88 98 232 98q119 0 203.5 -71.5t129.5 -192.5t45 -266q0 -211 -81.5 -374t-239.5 -254t-375 -91 q-231 0 -400 126t-260 358.5t-91 543.5zM1372 1024q0 -45 30 -74.5t75 -29.5t74.5 29.5t29.5 74.5q0 43 -29.5 72.5t-74.5 29.5t-75 -29.5t-30 -72.5z" />
<glyph horiz-adv-x="1892" d="M123 -485q0 106 79 175.5t201 69.5h541v-114h-541q-57 0 -92 -37t-35 -94q0 -72 86.5 -110t229.5 -38h508q281 0 449.5 113.5t168.5 320.5q0 100 -57 168t-154 68q-100 0 -163.5 -70.5t-63.5 -179.5v-178h-145v391h-945v1051l144 10v-944h801v934h145v-985q94 98 240 98 q157 0 254.5 -100.5t97.5 -262.5q0 -174 -97.5 -296.5t-272.5 -187.5t-402 -65h-508q-213 0 -341 69t-128 194z" />
<glyph horiz-adv-x="2590" d="M150 356q0 199 70.5 367t194.5 266t273 98q111 0 180.5 -66.5t69.5 -170.5q0 -100 -68.5 -166t-171.5 -66q-104 0 -170.5 65t-66.5 165v10q-76 -82 -117 -214t-41 -288q0 -223 87 -394t253 -265t395 -94q260 0 424 108.5t195 288.5h-576v1051l146 10v-944h436v567 q0 197 98.5 300t263.5 103q144 0 247.5 -78.5t157.5 -217t54 -318.5q0 -215 -110.5 -344t-323.5 -129h-248q-25 -156 -123 -274.5t-263 -184t-378 -65.5q-272 0 -472.5 110.5t-308 310t-107.5 459.5zM573 850q0 -53 35 -87t90 -34q51 0 84 34t33 87t-32.5 87t-84.5 34 q-55 0 -90 -34t-35 -87zM1808 117h242q143 0 211 95t68 261q0 219 -77 353.5t-222 134.5q-102 0 -162 -68t-60 -205v-571z" />
<glyph horiz-adv-x="2316" d="M123 -485q0 106 79 175.5t201 69.5h965v-114h-965q-57 0 -92 -37t-35 -94q0 -72 86.5 -110t229.5 -38h932q281 0 449.5 113.5t168.5 320.5q0 100 -57 168t-154 68q-100 0 -163.5 -70.5t-63.5 -179.5v-178h-145v391h-752v86q-49 -59 -115.5 -91t-146.5 -32 q-172 0 -273.5 108.5t-101.5 315.5v664l143 10v-674q0 -297 232 -297q127 0 194.5 89t67.5 237v635h145v-934h607v934h145v-985q94 98 240 98q157 0 254.5 -100.5t97.5 -262.5q0 -174 -97.5 -296.5t-272.5 -187.5t-402 -65h-932q-213 0 -341 69t-128 194z" />
<glyph horiz-adv-x="2527" d="M150 397q0 184 71.5 343t196.5 253t280 94q104 0 172 -66.5t68 -170.5q0 -100 -68.5 -166t-171.5 -66q-104 0 -170.5 65t-66.5 165v16q-76 -80 -117 -202.5t-41 -264.5q0 -238 124 -418t351.5 -278t532.5 -98q293 0 509 83t331.5 229t115.5 335q0 160 -56.5 255 t-166.5 95q-102 0 -168 -75.5t-66 -192.5v-332h-145v936h-438v-936h-146v1051h1098l19 -115h-388v-313q96 102 238 102q174 0 273.5 -132t99.5 -343q0 -223 -135.5 -399.5t-387 -275.5t-587.5 -99q-348 0 -611.5 114.5t-406.5 323.5t-143 483zM573 850q0 -53 35 -87t90 -34 q51 0 84 34t33 87t-32.5 87t-84.5 34q-55 0 -90 -34t-35 -87z" />
<glyph horiz-adv-x="3672" d="M150 315q0 223 70.5 399.5t195.5 274.5t282 98q104 0 172 -66.5t68 -170.5q0 -100 -68.5 -166t-171.5 -66q-104 0 -170.5 65t-66.5 165v10q-76 -86 -117 -225t-41 -318q0 -221 122 -384.5t349 -252t537 -88.5h1165q285 0 496 75t325.5 222.5t114.5 362.5q0 160 -57.5 255 t-167.5 95q-80 0 -139.5 -50t-81.5 -134v-416h-146v936h-512v-936h-145v467q0 141 -66.5 254t-182.5 176.5t-259 63.5q-158 0 -273.5 -60.5t-178 -168t-62.5 -247.5q0 -180 102 -288q-16 49 -16 94q0 94 43 169t119.5 116.5t171.5 41.5q100 0 181 -41.5t126 -116.5t45 -169 q0 -92 -46 -167t-128 -118t-185 -43q-174 0 -302 68.5t-196.5 187.5t-68.5 266q0 174 82 311.5t233.5 214t352.5 76.5q158 0 291 -66.5t217 -184.5v215h1171l17 -115h-385v-301q90 90 225 90q174 0 274.5 -132t100.5 -343q0 -250 -133.5 -424t-378 -262t-578.5 -88h-1165 q-354 0 -616.5 102.5t-403.5 291.5t-141 445zM573 850q0 -53 35 -87t90 -34q51 0 84 34t33 87t-32.5 87t-84.5 34q-55 0 -90 -34t-35 -87zM1350 291q0 -92 59 -151.5t152 -59.5q92 0 152.5 59.5t60.5 151.5t-60.5 151.5t-152.5 59.5q-93 0 -152 -59.5t-59 -151.5z" />
<glyph horiz-adv-x="2590" d="M150 377q0 188 73.5 352t199.5 261t275 97q111 0 180.5 -66.5t69.5 -170.5q0 -100 -68.5 -166t-170.5 -66q-104 0 -171 65t-67 165v16q-78 -84 -123 -212t-45 -275q0 -223 114.5 -399.5t322.5 -275.5t479 -99q190 0 336.5 33.5t232.5 101.5q-125 57 -125 237v25h-582 v1051l146 10v-944h436v567q0 197 98.5 300t263.5 103q143 0 247 -78.5t158 -217t54 -318.5q0 -215 -110.5 -344t-323.5 -129h-242v-16q0 -82 32 -120t97 -38h334l17 -115h-338q-94 -106 -289 -170.5t-442 -64.5q-315 0 -558 115.5t-377 320.5t-134 465zM584 850 q0 -53 34.5 -87t90.5 -34q51 0 83.5 34t32.5 87t-32.5 87t-83.5 34q-55 0 -90 -34t-35 -87zM1808 117h242q143 0 211 95t68 261q0 219 -77 353.5t-222 134.5q-102 0 -162 -68t-60 -205v-571z" />
<glyph horiz-adv-x="2537" d="M109 485q0 174 82.5 311.5t235.5 214t357 76.5q186 0 334 -72.5t230 -201.5t82 -291q0 -113 -34 -217t-93 -188h477v934h145v-985q94 98 240 98q157 0 254.5 -100.5t97.5 -262.5q0 -174 -97.5 -296.5t-272.5 -187.5t-402 -65h-1153q-213 0 -341 69t-128 194 q0 106 79 175.5t201 69.5h1186v-114h-1186q-57 0 -92 -37t-35 -94q0 -72 86.5 -110t229.5 -38h1153q281 0 449.5 113.5t168.5 320.5q0 100 -57 168t-154 68q-100 0 -163.5 -70.5t-63.5 -179.5v-178h-145v391h-650l3 117q66 80 103.5 183t37.5 222q0 127 -60.5 226.5 t-172 156t-257.5 56.5q-160 0 -278.5 -60.5t-181 -168t-62.5 -247.5q0 -180 103 -288q-16 49 -17 94q0 94 43 169t120 116.5t171 41.5q100 0 181 -41.5t126 -116.5t45 -169q0 -92 -46 -167t-128 -118t-184 -43q-174 0 -302 68.5t-196.5 187.5t-68.5 266zM471 291 q0 -92 59.5 -151.5t151.5 -59.5t152.5 59.5t60.5 151.5t-60.5 151.5t-152.5 59.5t-151.5 -59.5t-59.5 -151.5z" />
<glyph horiz-adv-x="3196" d="M88 287q0 109 64.5 188.5t183.5 112.5v463h979l18 -115h-356v-326h215q70 0 131 -18q100 53 229 53q106 0 189.5 -45t128.5 -124t45 -179t-27 -180h568v303q-61 -12 -132 -12q-121 0 -214 45t-146 124.5t-53 178.5q0 147 94 239t254 92q158 0 250 -91t92 -240v-138 q164 106 276 318h146v-936h-422v-498h-145v498h-766q33 66 52 148.5t19 148.5q0 102 -56 161.5t-153 59.5q-37 0 -82 -10q59 -53 93 -128t34 -161q0 -111 -70.5 -183.5t-176.5 -72.5q-109 0 -179.5 71.5t-70.5 184.5q0 160 100 277h-24h-199v-76q0 -135 -58.5 -238.5 t-168 -161t-254.5 -57.5q-119 0 -212.5 42t-144.5 116t-51 166zM242 287q0 -86 69.5 -141.5t184.5 -55.5q158 0 246.5 89t88.5 241v76h-319q-129 0 -199.5 -56.5t-70.5 -152.5zM481 610h27h323v326h-350v-326zM1243 219q0 -57 30 -94t77 -37q45 0 74.5 37t29.5 94 q0 72 -29.5 130.5t-83.5 94.5q-47 -41 -72.5 -98t-25.5 -127zM2064 756q0 -96 72 -158.5t188 -62.5q71 0 132 18v192q0 98 -52.5 157t-144.5 59t-143.5 -56.5t-51.5 -148.5zM2601 117h276v571q-117 -152 -276 -223v-348z" />
<glyph horiz-adv-x="1685" d="M190 0v1051l144 10v-944h452q-92 76 -143 194.5t-53 270.5q0 227 109.5 366t301.5 139q176 0 276.5 -122.5t100.5 -319.5v-528h273l14 -117h-287v-498h-145v498h-1043zM741 582q0 -133 47.5 -239.5t130 -166t185.5 -59.5h129v528q0 141 -59.5 228.5t-172.5 87.5 q-123 0 -191.5 -104.5t-68.5 -274.5z" />
<glyph horiz-adv-x="1603" d="M190 0v1051l144 10v-944h358q-61 55 -94 135t-33 176q0 125 61.5 223.5t169 154.5t244.5 56q121 0 222.5 -53t162 -141t60.5 -187q0 -100 -63.5 -165.5t-159.5 -65.5t-161 58.5t-65 146.5q0 92 62.5 151.5t158.5 59.5h9q-86 70 -226 69q-139 0 -230 -87t-91 -220 q0 -135 73.5 -223t190.5 -88h584l16 -117h-1393zM1163 457q0 -43 28 -72t71 -29q45 0 73.5 29t28.5 72t-28.5 71.5t-73.5 28.5q-43 0 -71 -28.5t-28 -71.5z" />
<glyph horiz-adv-x="3708" d="M150 348q0 195 83.5 398.5t212.5 324.5l150 -20q-127 -104 -210 -303t-83 -404q0 -223 124 -393t356.5 -264.5t545.5 -96.5h1182q285 0 495.5 75t325.5 222.5t115 362.5q0 160 -56.5 255t-166.5 95q-102 0 -168 -75.5t-66 -192.5v-332h-145v936h-475v-936h-144v635 q0 147 -67.5 236.5t-194.5 89.5q-231 0 -231 -297v-664h-981v1051l145 10v-944h690v547q0 209 101.5 316t275.5 107q160 0 262 -124v88h516q-61 57 -95 138t-34 175q0 125 61.5 223.5t169 154.5t244.5 56q121 0 222.5 -53t161 -141t59.5 -189q0 -100 -62.5 -164.5 t-158.5 -64.5t-161 58.5t-65 146.5q0 92 61.5 150t159.5 58h13q-92 72 -230 72q-141 0 -231 -87t-90 -220q0 -137 73.5 -225t190.5 -88h330l16 -115h-387v-313q96 102 238 102q174 0 273 -132t99 -343q0 -250 -132 -424t-376.5 -262t-580.5 -88h-1182q-362 0 -628.5 107.5 t-408.5 304t-142 460.5zM3211 1393q0 -43 28 -72t71 -29q45 0 73.5 29t28.5 72t-28.5 70.5t-73.5 27.5q-43 0 -71 -27.5t-28 -70.5z" />
</font>
</defs>
</svg>
