<?xml version="1.0" encoding="UTF-8" standalone="no"?>
<svg width="40px" height="40px" viewBox="0 0 40 40" version="1.1" xmlns="http://www.w3.org/2000/svg" xmlns:xlink="http://www.w3.org/1999/xlink">
    <!-- Generator: Sketch 47.1 (45422) - http://www.bohemiancoding.com/sketch -->
    <title>icon/delivery/sam copy 3</title>
    <desc>Created with Sketch.</desc>
    <defs></defs>
    <g id="Symbols" stroke="none" stroke-width="1" fill="none" fill-rule="evenodd">
        <g id="icon/delivery/sam-copy-3" fill-rule="nonzero" fill="#495057">
            <g id="placeholder-on-map-paper-in-perspective" transform="translate(0.000000, 4.000000)">
                <path d="M33.7461942,17.7292352 L39.9052156,30.3966631 C40.1556732,30.9118514 39.8924051,31.3333333 39.3201174,31.3333333 L0.679910436,31.3333333 C0.107622693,31.3333333 -0.155710714,30.9118514 0.094812232,30.3966631 L6.25389893,17.7292352 C6.35187282,17.5277536 6.61520622,17.3628514 6.83899714,17.3628514 L12.1201097,17.3628514 C12.2828549,17.3628514 12.5026589,17.4648683 12.6091948,17.5880868 C12.9674956,18.0026324 13.332463,18.4076242 13.6963847,18.8084934 C14.0420057,19.1890116 14.3894568,19.574503 14.7341628,19.9690248 L8.46677537,19.9690248 C8.2429191,19.9690248 7.97958569,20.1338615 7.88167717,20.3354086 L3.8015453,28.7272254 L36.1982864,28.7272254 L32.1184814,20.3354086 C32.0205728,20.1338615 31.7572394,19.9690248 31.5333178,19.9690248 L25.2517474,19.9690248 C25.596388,19.574503 25.9439698,19.1890116 26.2895908,18.8084934 C26.6546236,18.4064463 27.0216172,18.0022398 27.3807676,17.5875633 C27.4871729,17.464672 27.7065193,17.3628514 27.869003,17.3628514 L33.1612268,17.3628514 C33.3849523,17.3628514 33.6482204,17.5276227 33.7461942,17.7292352 Z M29.0550165,9.0723971 C29.0550165,15.9940984 23.29959,17.2922445 20.5927919,23.9440167 C20.3728572,24.4845293 19.6127916,24.4817809 19.3927915,23.9413993 C16.9510261,17.9440006 12.0308287,16.2993636 11.0894558,10.9565348 C10.1625928,5.69674589 13.7999795,0.544470598 19.1109614,0.0418463021 C24.5122701,-0.469350286 29.0550165,3.77040114 29.0550165,9.0723971 Z M24.7787407,9.0723971 C24.7787407,6.42637236 22.6363218,4.28133598 19.9933799,4.28133598 C17.350438,4.28133598 15.2080191,6.42637236 15.2080191,9.0723971 C15.2080191,11.7184873 17.350438,13.8634582 19.9933799,13.8634582 C22.6363218,13.8634582 24.7787407,11.7184873 24.7787407,9.0723971 Z" id="Shape"></path>
            </g>
        </g>
    </g>
</svg>