<?xml version="1.0" encoding="UTF-8" standalone="no"?>
<svg width="40px" height="40px" viewBox="0 0 40 40" version="1.1" xmlns="http://www.w3.org/2000/svg" xmlns:xlink="http://www.w3.org/1999/xlink">
    <!-- Generator: Sketch 47.1 (45422) - http://www.bohemiancoding.com/sketch -->
    <title>icon/delivery/kur</title>
    <desc>Created with Sketch.</desc>
    <defs></defs>
    <g id="Symbols" stroke="none" stroke-width="1" fill="none" fill-rule="evenodd">
        <g id="icon/delivery/kur" stroke="#2B8A3E" stroke-width="0.5" fill="#2B8A3E" fill-rule="nonzero">
            <g id="delivery" transform="translate(2.000000, 5.000000)">
                <path d="M35.9947969,6.72410399 C35.9931797,6.67432289 35.9770078,6.62658085 35.965125,6.57708101 C35.9532422,6.52821397 35.9460703,6.47878444 35.9251172,6.43413614 C35.92125,6.42590961 35.9221641,6.41683932 35.9179453,6.4086831 L32.8498594,0.408725285 C32.7216797,0.157499508 32.4638437,0 32.1818906,0 L15.8181328,0 C15.5361797,0 15.2783437,0.157499508 15.1501641,0.408725285 L12.0820781,6.4086831 C12.0778594,6.41683932 12.0787734,6.42590961 12.0749062,6.43413614 C12.0539531,6.47871413 12.0467812,6.52814366 12.0348984,6.57708101 C12.0230156,6.62658085 12.0069141,6.67432289 12.0052266,6.72410399 C12.004875,6.73324458 12.0000234,6.740768 12.0000234,6.75004922 L12.0000234,15.7769507 C10.6386328,15.8568958 9.44521875,16.125559 8.722125,16.3245427 C8.49628125,15.5392249 7.8553125,14.9060628 7.00558594,14.7363993 L0.8971875,13.5146531 C0.677460937,13.473661 0.448242187,13.5278718 0.274640625,13.6699026 C0.101109375,13.8127771 0,14.0251202 0,14.2499789 L0,26.2499648 C0,26.664526 0.335460937,26.9999859 0.750023437,26.9999859 L5.44921875,26.9999859 C6.37488281,26.9999859 7.16371875,26.4106284 7.5031875,25.5834044 C9.18189844,26.3837691 16.9491094,30 20.25,30 C23.1591797,30 29.1467109,27.0563764 33.1083984,25.1088668 C34.1425547,24.6005794 34.9973437,24.1801822 35.5517578,23.9369721 C35.8242187,23.8168787 36,23.5473014 36,23.2499508 L36,6.75004922 C36,6.740768 35.9951484,6.73324458 35.9947969,6.72410399 Z M7.30666406,17.0485483 L6.19115625,24.8561645 C6.139125,25.2231243 5.81983594,25.4999438 5.44921875,25.4999438 L1.49997656,25.4999438 L1.49997656,15.1647417 L6.7111875,16.2069806 C7.1015625,16.2853788 7.36305469,16.6545183 7.30666406,17.0485483 Z M31.7233828,1.50004219 L34.0240781,6.00002812 L28.3352344,6.00002812 L27.2102344,1.50004219 L31.7233828,1.50004219 Z M22.3351875,1.50004219 L25.6647656,1.50004219 L26.7894844,6.00002812 L21.2104687,6.00002812 L22.3351875,1.50004219 Z M21.0000234,7.5 L27,7.5 L27,10.5000141 L21.0000234,10.5000141 L21.0000234,7.5 L21.0000234,7.5 Z M16.2766406,1.50004219 L20.7898594,1.50004219 L19.6648594,6.00002812 L13.9759453,6.00002812 L16.2766406,1.50004219 Z M32.4462656,23.7626679 C28.84275,25.5343968 22.8105703,28.4999578 20.25,28.4999578 C17.5217344,28.4999578 10.357875,25.3058819 7.82810156,24.075417 C7.82507813,24.0739404 7.82177344,24.0744326 7.81875,24.0730263 L8.70166406,17.8927175 C9.24721875,17.7218587 10.9174219,17.249993 12.7499766,17.249993 C13.8573984,17.249993 14.7121172,17.6623745 15.7939453,18.1838104 C16.7651719,18.6525823 17.8666875,19.1835807 19.3505625,19.4852907 C22.6098281,20.1459449 23.9999766,20.8234037 23.9999766,21.7499086 C23.9999766,21.9330018 23.9442891,22.0457827 23.8014844,22.1520245 C23.326875,22.5072422 21.4642969,23.1078497 14.4630703,21.0306843 C14.0646094,20.9149503 13.6486406,21.1405824 13.5307266,21.5367921 C13.4128125,21.9337752 13.6398516,22.3512192 14.0368359,22.4691329 C17.4909375,23.4930906 20.1327891,24.0035578 22.0048594,24.0035578 C23.2258359,24.0035578 24.1193672,23.786785 24.6987422,23.3538723 C24.7487344,23.3166068 24.7853672,23.2709038 24.8307891,23.2307555 C24.8775469,23.2256227 24.9237422,23.231318 24.9705,23.216904 C26.296875,22.8090928 30.0542344,21.7499789 31.5,21.7499789 C32.7231562,21.7499789 34.0100156,22.1220715 34.3894219,22.8192881 C33.8657344,23.065381 33.2028984,23.3913488 32.4462656,23.7626679 Z M34.5000234,20.955872 C33.7251797,20.513889 32.7017109,20.250007 31.5,20.250007 C30.0359531,20.250007 26.9997187,21.0658404 25.4612109,21.5078234 C25.2571641,19.3554239 22.4993672,18.59352 19.6494609,18.014639 C18.3486797,17.750968 17.3811797,17.284446 16.4451094,16.8332521 C15.5015859,16.3776988 14.5896328,15.9598329 13.5000703,15.8163959 L13.5000703,7.5 L19.5000469,7.5 L19.5000469,11.2499648 C19.5000469,11.664526 19.8355078,11.9999859 20.2500703,11.9999859 L27.7500937,11.9999859 C28.1646562,11.9999859 28.5001172,11.664526 28.5001172,11.2499648 L28.5001172,7.5 L34.5000937,7.5 L34.5000937,20.955872 L34.5000234,20.955872 Z" id="Shape"></path>
            </g>
        </g>
    </g>
</svg>