<svg xmlns="http://www.w3.org/2000/svg" width="40.96" height="31.18" viewBox="0 0 40.96 31.18"><defs><style>.cls-1{fill:#868e96;}</style></defs><title>icon-wash</title><g id="Слой_2" data-name="Слой 2"><g id="Слой_1-2" data-name="Слой 1"><path class="cls-1" d="M32.72 16.4a.8.8 0 0 0-.8-.8h-2.14l-1.28-2.81a3.87 3.87 0 0 0-2.64-2.15 46.72 46.72 0 0 0-10.77 0 3.87 3.87 0 0 0-2.64 2.15l-1.28 2.81H9a.8.8 0 0 0 0 1.6h1.28L9.2 18.33a3 3 0 0 0-.84 2.5l.41 2.87a3.24 3.24 0 0 0 1 1.94v1.15a1.75 1.75 0 0 0 1.74 1.74h2.33a1.75 1.75 0 0 0 1.74-1.74v-.29h9.73v.29a1.75 1.75 0 0 0 1.74 1.74h2.33a1.75 1.75 0 0 0 1.74-1.74v-1.15a3.24 3.24 0 0 0 1-1.94l.41-2.87a3 3 0 0 0-.84-2.5l-1.06-1.13h1.29a.8.8 0 0 0 .8-.8zM29 24.88H12a1.65 1.65 0 0 1-1.49-.88h19.93a1.65 1.65 0 0 1-1.47.91zm-3.26-3.36l.26.84H15l.26-.84zm-12.42.84H10.2l-.12-.84h3.47zm14.37 0l-.26-.84h3.47l-.12.84zM10 19.91a1.34 1.34 0 0 1 .29-.45l1.38-1.38h17.56l1.38 1.38a1.35 1.35 0 0 1 .29.45zm3.88-6.46a2.25 2.25 0 0 1 1.53-1.25 46.15 46.15 0 0 1 10.05 0A2.25 2.25 0 0 1 27 13.45l1.38 3H12.54zM14 26.79a.14.14 0 0 1-.14.14h-2.32a.14.14 0 0 1-.14-.14v-.35a3.19 3.19 0 0 0 .58.05h2zm15.54 0a.14.14 0 0 1-.14.14h-2.32a.14.14 0 0 1-.14-.14v-.29h2a3.18 3.18 0 0 0 .58-.05zm0 0M6.83 10.62l-2.34-.8V7.48a.8.8 0 1 0-1.61 0v1.8l-1.82-.63a.8.8 0 0 0-.52 1.52l5.77 2a.8.8 0 1 0 .52-1.52zm0 0M6.83 22.88l-5.77-2a.8.8 0 0 0-.52 1.52l5.77 2a.8.8 0 1 0 .52-1.52zm0 0M6.83 25.33l-5.77-2a.8.8 0 0 0-.52 1.52l5.77 2a.8.8 0 0 0 .52-1.52zm0 0M6.83 27.79l-5.77-2a.8.8 0 1 0-.52 1.52l2.34.8v2.24a.8.8 0 1 0 1.61 0v-1.66l1.82.62a.8.8 0 1 0 .52-1.52zm0 0M6.83 13.07l-5.77-2a.8.8 0 0 0-.52 1.52l5.77 2a.79.79 0 0 0 .26 0 .8.8 0 0 0 .26-1.57zm0 0M6.83 15.52l-5.77-2a.8.8 0 0 0-.52 1.52l5.77 2a.8.8 0 1 0 .52-1.52zm0 0M6.83 18l-5.77-2a.8.8 0 0 0-.52 1.52l5.77 2A.8.8 0 1 0 6.83 18zm0 0M6.83 20.43l-5.77-2A.8.8 0 0 0 .54 20l5.77 2a.8.8 0 1 0 .52-1.52zm0 0M34.13 10.62a.8.8 0 1 0 .52 1.52l5.77-2a.8.8 0 0 0-.52-1.52l-1.82.62V7.48a.8.8 0 1 0-1.61 0v2.34zm0 0M39.9 20.91l-5.77 2a.8.8 0 1 0 .52 1.52l5.77-2a.8.8 0 0 0-.52-1.52zm0 0M39.9 23.37l-5.77 2a.8.8 0 1 0 .52 1.52l5.77-2a.8.8 0 0 0-.52-1.52zm0 0M39.9 25.82l-5.77 2a.8.8 0 1 0 .52 1.52l1.82-.62v1.69a.8.8 0 0 0 1.61 0v-2.27l2.34-.8a.8.8 0 1 0-.52-1.52zm0 0M39.9 11.11l-5.77 2a.8.8 0 1 0 .52 1.52l5.77-2a.8.8 0 0 0-.52-1.52zm0 0M39.9 13.56l-5.77 2a.8.8 0 1 0 .52 1.44l5.77-2a.8.8 0 0 0-.52-1.52zm0 0M39.9 16l-5.77 2a.8.8 0 0 0 .52 1.52l5.77-2A.8.8 0 0 0 39.9 16zm0 0M39.9 18.46l-5.77 2a.8.8 0 1 0 .52 1.54l5.77-2a.8.8 0 0 0-.52-1.52zm0 0M32.64 4.49h1.69a.8.8 0 0 0 0-1.61h-2.24l-.8-2.33a.8.8 0 1 0-1.52.52l2 5.77a.8.8 0 0 0 1.52-.52zm0 0M29.28 6.83a.8.8 0 1 0 1.52-.52l-2-5.77a.8.8 0 1 0-1.52.52zm0 0M26.83 6.83a.8.8 0 1 0 1.52-.52l-2-5.77a.8.8 0 1 0-1.52.52zm0 0M14.57 6.83a.8.8 0 1 0 1.52-.52l-2-5.77a.8.8 0 1 0-1.52.52zm0 0M12.12 6.83a.8.8 0 1 0 1.52-.52l-2-5.77a.8.8 0 1 0-1.52.52zm0 0M24.38 6.83a.8.8 0 1 0 1.52-.52l-2-5.77a.8.8 0 1 0-1.52.52zm0 0M21.93 6.83a.8.8 0 0 0 1.52-.52l-2-5.77a.8.8 0 1 0-1.45.52zm0 0M19.48 6.83A.8.8 0 1 0 21 6.31L19 .55a.8.8 0 1 0-1.52.52zm0 0M17 6.83a.8.8 0 1 0 1.52-.52l-2-5.77a.8.8 0 1 0-1.52.52zm0 0M6.63 4.49h2.24l.8 2.34a.8.8 0 1 0 1.52-.52L9.22.55a.8.8 0 1 0-1.52.52l.62 1.82H6.63a.8.8 0 1 0 0 1.61zm0 0"/></g></g></svg>