<svg xmlns="http://www.w3.org/2000/svg" width="40.96" height="20.56" viewBox="0 0 40.96 20.56"><defs><style>.cls-1{fill:#868e96;}</style></defs><title>icon-wrecker</title><g id="Слой_2" data-name="Слой 2"><path class="cls-1" d="M40.49 6.76v-.6a2.51 2.51 0 0 0-.87-1.9L35.89 1a2.52 2.52 0 0 0-1.64-.59h-8.87a2.53 2.53 0 0 0-1.52.51L20.21 3.7l-4.82.86a2.51 2.51 0 0 0-1.66 1.1l-.25.39A3 3 0 0 0 14 9.94l.34.3a2.8 2.8 0 0 0 1.86.71h.8a3.3 3.3 0 0 0 1.1 1.21h-5.67V.78a.78.78 0 0 0-.78-.78H3.24a.78.78 0 0 0-.75.57L0 9.64a.78.78 0 0 0 0 .2v6.21a.78.78 0 0 0 .78.78H3.1a3.28 3.28 0 1 0 6.49 0h13.19a3.28 3.28 0 1 0 6.49 0h1a3.28 3.28 0 1 0 6.49 0h1.32a.78.78 0 0 0 .78-.78v-3.1a.78.78 0 0 0-.78-.78H36.6A3.3 3.3 0 0 0 37.7 11h.39a3 3 0 0 0 2.34-1.15 2.57 2.57 0 0 0 .07-3.05zm-3.93-3.1H35L34.62 2a1 1 0 0 1 .26.16zm-3.13 0h-4.14L29.68 2H33zm-8.63-1.5a1 1 0 0 1 .58-.2h2.7l-.38 1.7h-4.86zm-6.64 7.28a1.72 1.72 0 1 1 1.72 1.72 1.73 1.73 0 0 1-1.72-1.72zM3.83 1.55h2.9v6.24l-4.87 1zM6.34 19a1.72 1.72 0 1 1 1.72-1.72A1.73 1.73 0 0 1 6.34 19zm0-5a3.27 3.27 0 0 0-2.59 1.27h-2.2v-2.2h1.3a.78.78 0 0 0 0-1.55h-1.3v-1.05l6.12-1.29a.78.78 0 0 0 .62-.76V1.55h2.59v13.73H8.93A3.27 3.27 0 0 0 6.34 14zM26 19a1.72 1.72 0 1 1 1.72-1.72A1.73 1.73 0 0 1 26 19zm7.46 0a1.72 1.72 0 1 1 1.72-1.72A1.73 1.73 0 0 1 33.49 19zm3.79-3.73h-1.2a3.27 3.27 0 0 0-5.18 0h-2.25a3.27 3.27 0 0 0-5.18 0h-11v-1.55h24.85zm-15.56-3.1a3.3 3.3 0 0 0 1.1-1.17h9.1A3.3 3.3 0 0 0 33 12.17zm11.38-2.73a1.72 1.72 0 1 1 1.72 1.72 1.73 1.73 0 0 1-1.72-1.72zm6.13-.58a1.41 1.41 0 0 1-1.11.54 3.28 3.28 0 0 0-6.56 0h-8.37a3.28 3.28 0 0 0-6.55 0h-.4a1.25 1.25 0 0 1-.83-.32l-.38-.3a1.46 1.46 0 0 1-.27-.32h.63a.78.78 0 1 0 0-1.55h-.63l.27-.4a1 1 0 0 1 .63-.42l4.94-.88h17.78l.25.22a1 1 0 0 1 .33.72V7a.78.78 0 0 0 .2.52 1 1 0 0 1 .06 1.3zm0 0" id="Слой_1-2" data-name="Слой 1"/></g></svg>