<svg xmlns="http://www.w3.org/2000/svg" width="38" height="30.64" viewBox="0 0 38 30.64"><defs><style>.cls-1{fill:#868e96}.cls-2{fill:none;stroke:#868e96;stroke-miterlimit:10;stroke-width:2px}</style></defs><title>icon-bag</title><g data-name="Слой 2"><g data-name="Слой 1"><path class="cls-1" d="M36 7.64v4H2v-4h34m0-2H2a2 2 0 0 0-2 2v4a2 2 0 0 0 2 2h34a2 2 0 0 0 2-2v-4a2 2 0 0 0-2-2z"></path><path class="cls-1" d="M34 13.64v15H5v-15h29m0-2H5a2 2 0 0 0-2 2v15a2 2 0 0 0 2 2h29a2 2 0 0 0 2-2v-15a2 2 0 0 0-2-2z"></path><path class="cls-2" d="M19.13 9.96L28.38.71"></path><path class="cls-1" d="M8.88 19.64a1.5 1.5 0 0 0 0-3 1.5 1.5 0 0 0 0 3zM14.88 19.64a1.5 1.5 0 0 0 0-3 1.5 1.5 0 0 0 0 3zM8.88 25.39a1.5 1.5 0 0 0 0-3 1.5 1.5 0 0 0 0 3zM14.88 25.39a1.5 1.5 0 0 0 0-3 1.5 1.5 0 0 0 0 3zM24.13 19.64a1.5 1.5 0 0 0 0-3 1.5 1.5 0 0 0 0 3zM30.13 19.64a1.5 1.5 0 0 0 0-3 1.5 1.5 0 0 0 0 3zM24.13 25.39a1.5 1.5 0 0 0 0-3 1.5 1.5 0 0 0 0 3zM30.13 25.39a1.5 1.5 0 0 0 0-3 1.5 1.5 0 0 0 0 3z"></path></g></g></svg>