<?xml version="1.0" encoding="UTF-8" standalone="no"?>
<svg width="19px" height="19px" viewBox="0 0 19 19" version="1.1" xmlns="http://www.w3.org/2000/svg" xmlns:xlink="http://www.w3.org/1999/xlink">
    <!-- Generator: Sketch 47.1 (45422) - http://www.bohemiancoding.com/sketch -->
    <title>clock</title>
    <desc>Created with Sketch.</desc>
    <defs></defs>
    <g id="Mobile" stroke="none" stroke-width="1" fill="none" fill-rule="evenodd">
        <g id="320-contact-2" transform="translate(-20.000000, -427.000000)" fill="#868E96">
            <g id="clock" transform="translate(20.000000, 427.000000)">
                <path d="M9.49981905,-0.000361904762 C14.7383905,-0.000361904762 18.999819,4.26197143 18.999819,9.4996381 C18.999819,14.7382095 14.7383905,18.9996381 9.49981905,18.9996381 C4.26215238,18.9996381 -0.000180952381,14.7382095 -0.000180952381,9.4996381 C-0.000180952381,4.26197143 4.26215238,-0.000361904762 9.49981905,-0.000361904762 Z M10.1817381,9.20667619 L10.1817381,4.0739619 C10.1817381,3.64148571 9.83159524,3.29134286 9.39911905,3.29134286 C8.96664286,3.29134286 8.61740476,3.64148571 8.61740476,4.0739619 L8.61740476,9.98929524 C8.61740476,10.4208667 8.96664286,10.7710095 9.39911905,10.7710095 L14.4513095,10.7710095 C14.8837857,10.7710095 15.2330238,10.4208667 15.2330238,9.98929524 C15.2330238,9.55681905 14.8837857,9.20667619 14.4513095,9.20667619 L10.1817381,9.20667619 Z" id="Combined-Shape"></path>
            </g>
        </g>
    </g>
</svg>