<?xml version="1.0" encoding="UTF-8" standalone="no"?>
<svg width="40px" height="40px" viewBox="0 0 40 40" version="1.1" xmlns="http://www.w3.org/2000/svg" xmlns:xlink="http://www.w3.org/1999/xlink">
    <!-- Generator: Sketch 47.1 (45422) - http://www.bohemiancoding.com/sketch -->
    <title>icon/delivery/TK Copy</title>
    <desc>Created with Sketch.</desc>
    <defs></defs>
    <g id="Symbols" stroke="none" stroke-width="1" fill="none" fill-rule="evenodd">
        <g id="icon/delivery/TK-Copy" fill-rule="nonzero" fill="#495057">
            <g id="delivery-truck" transform="translate(0.000000, 9.000000)">
                <path d="M39.8225,11.8253659 L36.0725,5.59230352 C35.8475,5.21582656 35.44,4.98644986 35,4.98644986 L27.5,4.98644986 L27.5,1.24661247 C27.5,0.558482385 26.94,0 26.25,0 L8.75,0 C8.06,0 7.5,0.558482385 7.5,1.24661247 L7.5,2.49322493 L1.25,2.49322493 C0.56,2.49322493 0,3.05170732 0,3.7398374 C0,4.42796748 0.56,4.98644986 1.25,4.98644986 L7.5,4.98644986 L7.5,7.4796748 L3.75,7.4796748 C3.06,7.4796748 2.5,8.03815718 2.5,8.72628726 C2.5,9.41441734 3.06,9.97289973 3.75,9.97289973 L7.5,9.97289973 L7.5,12.4661247 L6.25,12.4661247 C5.56,12.4661247 5,13.024607 5,13.7127371 C5,14.4008672 5.56,14.9593496 6.25,14.9593496 L7.5,14.9593496 L7.5,18.699187 C7.5,19.3873171 8.06,19.9457995 8.75,19.9457995 L10.23,19.9457995 C10.7475,21.3943631 12.1225,22.4390244 13.75,22.4390244 C15.3775,22.4390244 16.7525,21.3943631 17.27,19.9457995 L26.25,19.9457995 L30.23,19.9457995 C30.7475,21.3943631 32.1225,22.4390244 33.75,22.4390244 C35.3775,22.4390244 36.7525,21.3943631 37.27,19.9457995 L38.75,19.9457995 C39.44,19.9457995 40,19.3873171 40,18.699187 L40,12.4661247 C40,12.2392412 39.94,12.0173442 39.8225,11.8253659 Z M13.75,19.9457995 C13.0625,19.9457995 12.5,19.3873171 12.5,18.699187 C12.5,18.0110569 13.0625,17.4525745 13.75,17.4525745 C14.4375,17.4525745 15,18.0110569 15,18.699187 C15,19.3873171 14.4375,19.9457995 13.75,19.9457995 Z M25,17.4525745 L17.27,17.4525745 C16.7525,16.0040108 15.3775,14.9593496 13.75,14.9593496 C12.1225,14.9593496 10.7475,16.0040108 10.23,17.4525745 L10,17.4525745 L10,2.49322493 L25,2.49322493 L25,17.4525745 Z M33.75,19.9457995 C33.0625,19.9457995 32.5,19.3873171 32.5,18.699187 C32.5,18.0110569 33.0625,17.4525745 33.75,17.4525745 C34.4375,17.4525745 35,18.0110569 35,18.699187 C35,19.3873171 34.4375,19.9457995 33.75,19.9457995 Z M37.5,17.4525745 L37.27,17.4525745 C36.7525,16.0040108 35.3775,14.9593496 33.75,14.9593496 C32.1225,14.9593496 30.7475,16.0040108 30.23,17.4525745 L27.5,17.4525745 L27.5,7.4796748 L34.2925,7.4796748 L37.5,12.8126829 L37.5,17.4525745 Z" id="Shape"></path>
            </g>
        </g>
    </g>
</svg>