<svg width="19" height="15" viewBox="0 0 19 15" xmlns="http://www.w3.org/2000/svg"><g fill-rule="nonzero" fill="currentColor"><path d="M1.824 4.602c.24.17.964.673 2.173 1.51 1.21.838 2.135 1.483 2.778 1.936l.45.323c.23.167.42.302.573.404.152.103.336.217.552.345.215.126.418.22.61.285.19.063.367.095.53.095h.02c.163 0 .34-.032.53-.095.192-.064.395-.16.61-.286.216-.13.4-.244.552-.346.152-.102.343-.237.572-.403l.45-.322c.65-.453 2.305-1.6 4.963-3.446.516-.36.947-.796 1.293-1.305.347-.508.52-1.042.52-1.6 0-.467-.168-.866-.504-1.2C18.16.168 17.763 0 17.304 0H1.696C1.152 0 .733.184.44.55.147.92 0 1.38 0 1.93c0 .445.194.928.583 1.447.39.52.802.928 1.24 1.225z"/><path d="M17.94 5.318c-2.32 1.587-4.08 2.82-5.28 3.7-.403.3-.73.534-.98.702-.252.168-.586.34-1.003.514-.417.176-.806.263-1.166.263h-.02c-.36 0-.75-.087-1.167-.263-.417-.175-.75-.346-1.002-.514-.25-.168-.577-.402-.98-.703-.954-.707-2.71-1.94-5.27-3.7C.67 5.048.31 4.736 0 4.386V12.9c0 .47.166.875.498 1.21.332.337.732.505 1.198.505h15.608c.466 0 .865-.168 1.198-.504.332-.335.498-.74.498-1.21V4.384c-.304.343-.657.654-1.06.933z"/></g></svg>