<?xml version="1.0" encoding="UTF-8" standalone="no"?>
<svg width="94px" height="94px" viewBox="0 0 94 94" version="1.1" xmlns="http://www.w3.org/2000/svg" xmlns:xlink="http://www.w3.org/1999/xlink">
    <!-- Generator: Sketch 47.1 (45422) - http://www.bohemiancoding.com/sketch -->
    <title>icon/find</title>
    <desc>Created with Sketch.</desc>
    <defs>
        <linearGradient x1="3.061617e-15%" y1="50%" x2="100%" y2="50%" id="linearGradient-1">
            <stop stop-color="#2B8A3E" offset="0%"></stop>
            <stop stop-color="#2F9E44" offset="100%"></stop>
        </linearGradient>
        <linearGradient x1="50%" y1="0%" x2="50%" y2="100%" id="linearGradient-2">
            <stop stop-color="#56BE72" offset="0%"></stop>
            <stop stop-color="#2B8A3E" offset="100%"></stop>
        </linearGradient>
        <linearGradient x1="50%" y1="100%" x2="50%" y2="0%" id="linearGradient-3">
            <stop stop-color="#2B8A3E" offset="0%"></stop>
            <stop stop-color="#2F9E44" offset="100%"></stop>
        </linearGradient>
    </defs>
    <g id="Mobile" stroke="none" stroke-width="1" fill="none" fill-rule="evenodd">
        <g id="320/result-not-found-m" transform="translate(-113.000000, -192.000000)">
            <g id="icon/find" transform="translate(113.000000, 192.000000)">
                <g id="Group-2" stroke-width="3">
                    <path d="M67.5,67.5 L92.0051015,92.0051015" id="Line" stroke="url(#linearGradient-1)" stroke-linecap="round"></path>
                    <circle id="Oval" stroke="url(#linearGradient-2)" cx="40" cy="40" r="38.5"></circle>
                </g>
                <g id="icon-case" transform="translate(17.000000, 17.000000)" fill-rule="nonzero" fill="url(#linearGradient-3)">
                    <path d="M19.8055556,19.3625926 C16.2300232,19.3625926 13.3314815,22.2611343 13.3314815,25.8366667 C13.3314815,29.412199 16.2300232,32.3107407 19.8055556,32.3107407 C23.3810879,32.3107407 26.2796296,29.412199 26.2796296,25.8366667 C26.2796296,22.2611343 23.3810879,19.3625926 19.8055556,19.3625926 L19.8055556,19.3625926 Z M19.8055556,30.4366667 C17.2509318,30.4366667 15.18,28.3657349 15.18,25.8111111 C15.18,23.2564873 17.2509318,21.1855556 19.8055556,21.1855556 C22.3601793,21.1855556 24.4311111,23.2564873 24.4311111,25.8111111 C24.4311111,27.0378847 23.9437772,28.2144129 23.0763173,29.0818728 C22.2088573,29.9493327 21.0323292,30.4366667 19.8055556,30.4366667 Z" id="Shape"></path>
                    <path d="M19.8055556,16.4577778 C14.6304429,16.4577778 10.4351852,20.6530355 10.4351852,25.8281481 C10.4351852,31.0032608 14.6304429,35.1985185 19.8055556,35.1985185 C24.9806682,35.1985185 29.1759259,31.0032608 29.1759259,25.8281481 C29.1759259,20.6530355 24.9806682,16.4577778 19.8055556,16.4577778 Z M19.8055556,33.3585185 C15.6513515,33.3585185 12.2837037,29.9908707 12.2837037,25.8366667 C12.2837037,21.6824626 15.6513515,18.3148148 19.8055556,18.3148148 C23.9597596,18.3148148 27.3274074,21.6824626 27.3274074,25.8366667 C27.3227129,29.9889247 23.9578136,33.353824 19.8055556,33.3585185 Z" id="Shape"></path>
                    <path d="M45.0203704,10.9633333 L42.9588889,10.9633333 C42.7464839,10.2907513 42.4757005,9.63802068 42.1496296,9.01259259 L43.6062963,7.55592593 C43.7795211,7.38330154 43.8768884,7.14881195 43.8768884,6.90425926 C43.8768884,6.65970657 43.7795211,6.42521698 43.6062963,6.25259259 L39.6877778,2.33407407 C39.5151534,2.16084925 39.2806638,2.06348192 39.0361111,2.06348192 C38.7915584,2.06348192 38.5570688,2.16084925 38.3844444,2.33407407 L36.9277778,3.79074074 C36.3022033,3.46498346 35.6495005,3.19421158 34.977037,2.98148148 L34.977037,0.92 C34.977123,0.418477724 34.5755104,0.00928744233 34.0740741,0 L28.5114815,0 C28.0033795,-3.11122726e-17 27.5914815,0.41189803 27.5914815,0.92 L27.5914815,2.98148148 C26.9190327,3.19425197 26.2663334,3.46502242 25.6407407,3.79074074 L24.1840741,2.33407407 C24.0114497,2.16084925 23.7769601,2.06348192 23.5324074,2.06348192 C23.2878547,2.06348192 23.0533651,2.16084925 22.8807407,2.33407407 L19.1837037,6.02259259 L17.037037,6.02259259 C16.5557249,6.05834173 16.1838594,6.4599565 16.1851852,6.94259259 L16.1851852,9.37037037 C15.7166667,9.47259259 15.2481481,9.60037037 14.7966667,9.74518519 L13.5359259,7.66666667 C13.4145877,7.4535914 13.2132111,7.29776969 12.976502,7.23379427 C12.739793,7.16981885 12.4873389,7.20298362 12.2751852,7.32592593 L7.53888889,10.0433333 C7.32581362,10.1646715 7.16999191,10.3660482 7.10601649,10.6027572 C7.04204107,10.8394663 7.07520584,11.0919203 7.19814815,11.3040741 L8.42481481,13.4337037 C8.07271605,13.7574074 7.73481481,14.1066667 7.41111111,14.4814815 L5.28148148,13.2207407 C5.06932772,13.0977984 4.81687367,13.0646337 4.58016462,13.1286091 C4.34345557,13.1925845 4.14207894,13.3484062 4.02074074,13.5614815 L1.2862963,18.2892593 C1.151873,18.5056169 1.11223394,18.7676966 1.17666098,19.01413 C1.24108801,19.2605634 1.40392314,19.4697087 1.62703704,19.5925926 L3.74814815,20.7851852 C3.60333333,21.2451852 3.48407407,21.7051852 3.37333333,22.1737037 L0.92,22.1737037 C0.41189803,22.1737037 6.22245451e-17,22.5856017 0,23.0937037 L0,28.5625926 C1.86736536e-15,29.0706946 0.41189803,29.4825926 0.92,29.4825926 L3.40740741,29.4825926 C3.50962963,29.9511111 3.63740741,30.4196296 3.78222222,30.8711111 L1.65259259,32.0977778 C1.43951732,32.219116 1.28369562,32.4204926 1.2197202,32.6572017 C1.15574478,32.8939107 1.18890954,33.1463648 1.31185185,33.3585185 L4.0462963,38.0948148 C4.16763449,38.3078901 4.36901112,38.4637118 4.60572017,38.5276872 C4.84242922,38.5916626 5.09488328,38.5584979 5.30703704,38.4355556 L7.43666667,37.2088889 C7.76037037,37.5581481 8.10111111,37.8988889 8.45037037,38.2225926 L7.2237037,40.3522222 C6.97262042,40.7948392 7.12457974,41.3570887 7.56444444,41.612963 L12.3007407,44.3474074 C12.5128945,44.4703497 12.7653486,44.5035145 13.0020576,44.4395391 C13.2387667,44.3755636 13.4401433,44.2197419 13.5614815,44.0066667 L14.7881481,41.877037 C15.2424691,42.0190123 15.7053086,42.1439506 16.1766667,42.2518519 L16.1766667,44.7051852 C16.1711126,45.1941609 16.5490559,45.6020403 17.037037,45.6337037 L22.5059259,45.6337037 C23.0140279,45.6337037 23.4259259,45.2218057 23.4259259,44.7137037 L23.4259259,42.2603704 C23.8944444,42.1581481 24.362963,42.0303704 24.8144444,41.8855556 L26.0411111,44.0151852 C26.1624493,44.2282605 26.3638259,44.3840822 26.600535,44.4480576 C26.837244,44.512033 27.0896981,44.4788682 27.3018519,44.3559259 L32.0381481,41.6214815 C32.2512234,41.5001433 32.4070451,41.2987667 32.4710205,41.0620576 C32.534996,40.8253486 32.5018312,40.5728945 32.3788889,40.3607407 L31.1522222,38.2311111 C31.504321,37.9074074 31.8422222,37.5695062 32.1659259,37.2174074 L34.2955556,38.4440741 C34.5077093,38.5670164 34.7601634,38.6001811 34.9968724,38.5362057 C35.2335815,38.4722303 35.4349581,38.3164086 35.5562963,38.1033333 L38.3333333,33.367037 C38.5844166,32.9244201 38.4324573,32.3621706 37.9925926,32.1062963 L35.862963,30.8796296 C36.0077778,30.4196296 36.127037,29.9596296 36.2377778,29.4911111 L38.6996296,29.4911111 C39.2077316,29.4911111 39.6196296,29.0792131 39.6196296,28.5711111 L39.6196296,27.0548148 L39.6962963,26.9866667 L43.6148148,23.0681481 C43.7880396,22.8955238 43.885407,22.6610342 43.885407,22.4164815 C43.885407,22.1719288 43.7880396,21.9374392 43.6148148,21.7648148 L42.1581481,20.3081481 C42.4841403,19.6826833 42.7549208,19.0299597 42.9674074,18.3574074 L45.0288889,18.3574074 C45.2728881,18.3574074 45.5068937,18.2604791 45.6794271,18.0879456 C45.8519606,17.9154122 45.9488889,17.6814066 45.9488889,17.4374074 L45.9488889,11.9259259 C45.9488889,11.417824 45.5369909,11.0059259 45.0288889,11.0059259 L45.0203704,10.9633333 Z M37.7711111,27.6425926 L35.4711111,27.6425926 C35.020536,27.6404634 34.6347213,27.9649804 34.5596296,28.4092593 C34.4054709,29.2797986 34.1745701,30.1349866 33.8696296,30.9648148 C33.7151414,31.3867307 33.8880101,31.8585182 34.2785185,32.0807407 L36.2633333,33.2222222 L34.4574074,36.3740741 L32.4725926,35.2240741 C32.0849947,35.0029272 31.5948968,35.0887838 31.3055556,35.4285185 C30.7346333,36.1102137 30.1046582,36.7401888 29.422963,37.3111111 C29.0800557,37.5986304 28.9937687,38.0911853 29.2185185,38.4781481 L30.3685185,40.462963 L27.2592593,42.2859259 L26.1177778,40.3011111 C25.8955553,39.9106027 25.4237678,39.737734 25.0018519,39.8922222 C24.172146,40.1975473 23.3169234,40.4284574 22.4462963,40.5822222 C22.0020174,40.6573139 21.6775004,41.0431285 21.6796296,41.4937037 L21.6796296,43.7851852 L17.9996296,43.7851852 L17.9996296,41.4937037 C18.0017589,41.0431285 17.6772419,40.6573139 17.232963,40.5822222 C16.3623456,40.4284134 15.507127,40.1975044 14.6774074,39.8922222 C14.2554915,39.737734 13.783704,39.9106027 13.5614815,40.3011111 L12.42,42.2859259 L9.28518519,40.48 L10.4351852,38.4951852 C10.6628827,38.1042699 10.5725845,37.6058239 10.2222222,37.3196296 C9.53166339,36.7498598 8.8931026,36.1198512 8.31407407,35.437037 C8.02655477,35.0941298 7.53399991,35.0078428 7.14703704,35.2325926 L5.16222222,36.3740741 L3.34777778,33.2222222 L5.33259259,32.0807407 C5.72310101,31.8585182 5.89596971,31.3867307 5.74148148,30.9648148 C5.43619933,30.1350953 5.20529029,29.2798766 5.05148148,28.4092593 C4.97638981,27.9649804 4.59057515,27.6404634 4.14,27.6425926 L1.84851852,27.6425926 L1.84851852,24.0222222 L4.14,24.0222222 C4.59057515,24.0243515 4.97638981,23.6998345 5.05148148,23.2555556 C5.20524632,22.3849284 5.4361564,21.5297059 5.74148148,20.7 C5.89119513,20.2805534 5.71896593,19.8140994 5.33259259,19.5925926 L3.34777778,18.417037 L5.1537037,15.2822222 L7.13851852,16.4322222 C7.53747754,16.6523559 8.03746852,16.5472853 8.31407407,16.1851852 C8.89481468,15.5143708 9.53331419,14.8958244 10.2222222,14.3366667 C10.5651295,14.0491474 10.6514165,13.5565925 10.4266667,13.1696296 L9.27666667,11.1848148 L12.3944444,9.37037037 L13.5359259,11.3551852 C13.7581484,11.7456936 14.2299359,11.9185623 14.6518519,11.7640741 C15.4816395,11.4590058 16.3368389,11.228102 17.2074074,11.0740741 C17.6516863,10.9989824 17.9762033,10.6131677 17.9740741,10.1625926 L17.9740741,7.87111111 L21.5944444,7.87111111 L21.5944444,10.1625926 C21.5923152,10.6131677 21.9168322,10.9989824 22.3611111,11.0740741 C23.2316894,11.2280583 24.0868926,11.4589631 24.9166667,11.7640741 C25.3385826,11.9185623 25.8103701,11.7456936 26.0325926,11.3551852 L27.2592593,9.37037037 L30.3940741,11.1762963 L29.2440741,13.1611111 C29.0193243,13.548074 29.1056113,14.0406288 29.4485185,14.3281481 C30.1172082,14.8925681 30.7356975,15.5139075 31.297037,16.1851852 C31.5845563,16.5280924 32.0771112,16.6143794 32.4640741,16.3896296 L34.4488889,15.2396296 L36.2548148,18.3744444 L34.287037,19.5925926 C33.8965286,19.8148151 33.7236599,20.2866026 33.8781481,20.7085185 C34.1831312,21.5383332 34.414033,22.393525 34.5681481,23.2640741 C34.6432398,23.708353 35.0290545,24.03287 35.4796296,24.0307407 L37.7711111,24.0307407 L37.7711111,27.6425926 Z M44.1003704,16.5088889 L42.2603704,16.5088889 C41.8370175,16.5081978 41.4678438,16.7965049 41.3659259,17.2074074 C41.1210152,18.1872136 40.7335484,19.1257442 40.2159259,19.992963 C39.9978962,20.3546354 40.0540979,20.8182991 40.3522222,21.1174074 L41.647037,22.4122222 L39.6111111,24.4481481 L39.6111111,23.0937037 C39.6180137,22.8453074 39.5241413,22.6046823 39.350854,22.4265815 C39.1775667,22.2484807 38.9396033,22.1480523 38.6911111,22.1481481 L36.2377778,22.1481481 C36.1355556,21.6796296 36.0077778,21.2111111 35.862963,20.7596296 L37.9925926,19.5925926 C38.4324573,19.3367183 38.5844166,18.7744688 38.3333333,18.3318519 L35.5988889,13.5955556 C35.4775507,13.3824803 35.2761741,13.2266586 35.039465,13.1626832 C34.802756,13.0987077 34.5503019,13.1318725 34.3381481,13.2548148 L32.2,14.4814815 C31.8762963,14.1293827 31.5383951,13.7914815 31.1862963,13.4677778 L32.412963,11.3381481 C32.5359053,11.1259944 32.56907,10.8735403 32.5050946,10.6368313 C32.4411192,10.4001222 32.2852975,10.1987456 32.0722222,10.0774074 L27.3444444,7.30888889 C26.9018275,7.0578056 26.339578,7.20976492 26.0837037,7.64962963 L24.857037,9.77925926 C24.402716,9.63728395 23.9398765,9.51234568 23.4685185,9.40444444 L23.4685185,6.94259259 C23.4685185,6.43449062 23.0566205,6.02259259 22.5485185,6.02259259 L21.8074074,6.02259259 L23.5111111,4.31888889 L24.8059259,5.6137037 C25.1050342,5.91182803 25.5686979,5.96802969 25.9303704,5.75 C26.7978097,5.2328175 27.7362738,4.84537817 28.7159259,4.6 C29.1268284,4.49808216 29.4151355,4.12890838 29.4144444,3.70555556 L29.4144444,1.84851852 L33.1114815,1.84851852 L33.1114815,3.68 C33.1107904,4.10335283 33.3990975,4.4725266 33.81,4.57444444 C34.8019448,4.8192129 35.7521419,5.2096262 36.6296296,5.73296296 C36.9913021,5.95099265 37.4549658,5.89479099 37.7540741,5.59666667 L39.0403704,4.25925926 L41.6555556,6.87444444 L40.3522222,8.20333333 C40.031946,8.50889813 39.9746814,8.99922651 40.2159259,9.37037037 C40.7335484,10.2375891 41.1210152,11.1761198 41.3659259,12.1559259 C41.4678438,12.5668284 41.8370175,12.8551355 42.2603704,12.8544444 L44.0918519,12.8544444 L44.1003704,16.5088889 Z" id="Shape"></path>
                </g>
            </g>
        </g>
    </g>
</svg>