<svg xmlns="http://www.w3.org/2000/svg" width="16" height="16" viewBox="0 0 16 16"><defs><style>.cls-1-1{fill:#868e96;stroke:#868e96;stroke-miterlimit:10}</style></defs><title>icon-callback</title><g data-name="Слой 2"><g data-name="Слой 1"><path class="cls-1-1" d="M12.56 15.5a6.43 6.43 0 0 1-2.21-.5 16.59 16.59 0 0 1-5.57-3.81A16.58 16.58 0 0 1 1 5.65C.34 4 .34 2.64 1 2l.28-.29C1.81 1.14 2.45.46 3.29.5A2.46 2.46 0 0 1 5 1.61c1.71 2.13.94 2.89 0 3.77l-.16.16c-.15.15-.43.82 2.15 3.39a14.34 14.34 0 0 0 2.13 1.83c.36.23 1 .59 1.27.32l.16-.16c.88-.89 1.64-1.66 3.77 0a2.46 2.46 0 0 1 1.11 1.73 2.92 2.92 0 0 1-1.24 2.06L14 15a2 2 0 0 1-1.42.46zM3.23 1c-.6 0-1.15.57-1.63 1.08l-.28.29c-.46.46-.41 1.68.12 3.1a16 16 0 0 0 3.7 5.39 16 16 0 0 0 5.39 3.7c1.42.54 2.63.58 3.09.12l.29-.28c.52-.49 1.1-1 1.08-1.67a2 2 0 0 0-.92-1.36c-1.77-1.43-2.27-.92-3.09-.09l-.16.16c-.39.39-1 .31-1.9-.26a14.78 14.78 0 0 1-2.21-1.89C4.57 7.16 3.89 5.85 4.56 5.18L4.72 5c.84-.82 1.34-1.32-.09-3.1A2.06 2.06 0 0 0 3.27 1zm0 0M10.36 5.89a.25.25 0 0 1-.18-.43L15.07.57a.25.25 0 0 1 .36.36l-4.89 4.88a.24.24 0 0 1-.18.07zm0 0"></path><path class="cls-1-1" d="M15.25 4.74a.25.25 0 0 1-.25-.25V1h-3.49a.25.25 0 1 1 0-.5h3.73a.25.25 0 0 1 .25.25v3.74a.25.25 0 0 1-.25.25zm0 0"></path></g></g></svg>