<svg style="display: none">
    <symbol id="delivery-self" width="40" height="40" viewBox="0 0 40 40" xmlns="http://www.w3.org/2000/svg">
        <path d="M33.746 21.73l6.16 12.667c.25.515-.014.936-.586.936H.68c-.572 0-.836-.42-.585-.936l6.16-12.668c.097-.202.36-.367.584-.367h5.28c.163 0 .383.102.49.225.357.415.722.82 1.086 1.22.346.38.693.767 1.038 1.16H8.467c-.224 0-.487.166-.585.367l-4.08 8.392h32.396l-4.08-8.392c-.097-.2-.36-.366-.585-.366h-6.28c.343-.395.69-.78 1.037-1.162.365-.402.732-.806 1.09-1.22.107-.123.327-.225.49-.225h5.29c.225 0 .488.165.586.366zm-4.69-8.658c0 6.922-5.756 8.22-8.463 14.872-.22.54-.98.538-1.2-.003-2.442-5.996-7.362-7.64-8.304-12.983-.927-5.26 2.71-10.413 8.02-10.915 5.402-.51 9.945 3.728 9.945 9.03zm-4.277 0c0-2.646-2.144-4.79-4.787-4.79s-4.785 2.144-4.785 4.79 2.142 4.79 4.785 4.79c2.643 0 4.786-2.144 4.786-4.79z" fill-rule="nonzero" fill="#495057"/>
    </symbol >

    <symbol  id="delivery-courier" width="40" height="40" viewBox="0 0 40 40" xmlns="http://www.w3.org/2000/svg">
        <path d="M37.995 11.724c-.002-.05-.018-.097-.03-.147-.012-.05-.02-.098-.04-.143-.004-.008-.003-.017-.007-.025l-3.068-6c-.128-.253-.386-.41-.668-.41H17.818c-.282 0-.54.157-.668.41l-3.068 6c-.004.007-.003.016-.007.024-.02.045-.028.094-.04.143-.012.05-.028.097-.03.147 0 .01-.005.017-.005.026v9.027c-1.36.08-2.555.35-3.278.548-.226-.786-.867-1.42-1.716-1.59l-6.11-1.22c-.22-.04-.448.013-.62.155-.175.143-.276.355-.276.58v12c0 .415.335.75.75.75h4.7c.925 0 1.714-.59 2.053-1.417 1.68.8 9.446 4.417 12.747 4.417 2.91 0 8.897-2.944 12.858-4.89 1.035-.51 1.89-.93 2.444-1.173.272-.12.448-.39.448-.687v-16.5c0-.01-.005-.017-.005-.026zM9.307 22.05L8.19 29.855c-.05.367-.37.644-.74.644H3.5V20.165l5.21 1.042c.392.078.653.448.597.842zM33.723 6.5l2.3 4.5h-5.688L29.21 6.5h4.513zm-9.388 0h3.33L28.79 11h-5.58l1.125-4.5zM23 12.5h6v3h-6v-3zm-4.723-6h4.513L21.665 11h-5.69l2.302-4.5zm16.17 22.263C30.842 30.533 24.81 33.5 22.25 33.5c-2.728 0-9.892-3.194-12.422-4.425-.003 0-.006 0-.01-.002l.884-6.18c.545-.17 2.215-.643 4.048-.643 1.107 0 1.962.412 3.044.934.97.47 2.073 1 3.557 1.3 3.26.662 4.65 1.34 4.65 2.266 0 .183-.056.296-.2.402-.473.355-2.336.956-9.337-1.12-.398-.117-.814.11-.932.505-.117.397.11.814.507.932 3.454 1.023 6.096 1.534 7.968 1.534 1.22 0 2.114-.217 2.694-.65.05-.037.085-.083.13-.123.048-.004.094 0 .14-.013 1.327-.408 5.084-1.467 6.53-1.467 1.223 0 2.51.372 2.89 1.07-.524.245-1.187.57-1.944.943zm2.053-2.807c-.775-.442-1.798-.706-3-.706-1.464 0-4.5.816-6.04 1.258-.203-2.153-2.96-2.914-5.81-3.493-1.3-.264-2.27-.73-3.205-1.182-.943-.455-1.855-.873-2.945-1.017V12.5h6v3.75c0 .415.336.75.75.75h7.5c.415 0 .75-.335.75-.75V12.5h6v13.456z" stroke="#495057" stroke-width=".5" fill="#495057" fill-rule="nonzero"/>
    </symbol >

    <symbol  id="delivery-transport" xmlns="http://www.w3.org/2000/svg">
        <path d="M39.822 20.825l-3.75-6.233c-.225-.376-.632-.606-1.072-.606h-7.5v-3.74C27.5 9.56 26.94 9 26.25 9H8.75c-.69 0-1.25.558-1.25 1.247v1.246H1.25c-.69 0-1.25.56-1.25 1.247 0 .688.56 1.246 1.25 1.246H7.5v2.494H3.75c-.69 0-1.25.558-1.25 1.246s.56 1.247 1.25 1.247H7.5v2.493H6.25c-.69 0-1.25.56-1.25 1.247 0 .688.56 1.246 1.25 1.246H7.5v3.74c0 .687.56 1.246 1.25 1.246h1.48c.518 1.448 1.893 2.493 3.52 2.493s3.003-1.046 3.52-2.494h12.96c.517 1.448 1.893 2.493 3.52 2.493s3.002-1.046 3.52-2.494h1.48c.69 0 1.25-.56 1.25-1.247v-6.234c0-.227-.06-.45-.178-.64zm-26.072 8.12c-.688 0-1.25-.558-1.25-1.246 0-.69.563-1.247 1.25-1.247.688 0 1.25.558 1.25 1.246 0 .687-.563 1.246-1.25 1.246zM25 26.454h-7.73c-.517-1.45-1.893-2.494-3.52-2.494s-3.002 1.044-3.52 2.493H10v-14.96h15v14.96zm8.75 2.493c-.688 0-1.25-.56-1.25-1.247 0-.69.563-1.247 1.25-1.247.688 0 1.25.558 1.25 1.246 0 .687-.563 1.246-1.25 1.246zm3.75-2.493h-.23c-.518-1.45-1.893-2.494-3.52-2.494s-3.003 1.044-3.52 2.493H27.5V16.48h6.792l3.208 5.333v4.64z" fill-rule="nonzero" fill="#495057"/>
    </symbol >

    <symbol  id="delivery-checked" width="24" height="24" viewBox="0 0 24 24" xmlns="http://www.w3.org/2000/svg">
        <defs><linearGradient x1="50%" y1="100%" x2="50%" y2="0%" id="a"><stop stop-color="#2B8A3E" offset="0%"/><stop stop-color="#2F9E44" offset="100%"/></linearGradient></defs><g fill="none" fill-rule="evenodd"><circle fill="url(#a)" cx="12" cy="12" r="12"/><path stroke="#FFF" stroke-width="3" stroke-linecap="round" d="M6 13.094L9.764 16 18.8 8"/></g>
    </symbol >
</svg>