<?xml version="1.0" encoding="UTF-8"?><!DOCTYPE svg PUBLIC "-//W3C//DTD SVG 1.1//EN" "http://www.w3.org/Graphics/SVG/1.1/DTD/svg11.dtd"><svg xmlns="http://www.w3.org/2000/svg" xmlns:xlink="http://www.w3.org/1999/xlink"><defs><path id="generator-a" d="M23.4 0h23.4v47.6H0V0z"/><path id="settings-a" d="M48.1 0H0v48h48.1V0z"/></defs><symbol id="calendar" viewBox="0 0 23 25"><title>icon/calendar</title><path d="M6.318 7.68a1.371 1.371 0 0 1-1.364-1.39v-4.9C4.954.62 5.56 0 6.318 0c.758 0 1.365.62 1.365 1.392V6.29c0 .772-.607 1.39-1.365 1.39zm2.477-2.835h5.51v-1.7h-5.51v1.7zM16.73 7.68a1.372 1.372 0 0 1-1.364-1.39v-4.9c0-.77.607-1.39 1.364-1.39.76 0 1.366.62 1.366 1.392V6.29c0 .772-.607 1.39-1.365 1.39zM6.067 15.722c-.76 0-1.365-.62-1.365-1.392 0-.773.607-1.392 1.366-1.392.758 0 1.364.62 1.364 1.392 0 .773-.606 1.392-1.364 1.392zm0 5.567c-.76 0-1.365-.62-1.365-1.393s.607-1.392 1.366-1.392c.758 0 1.364.62 1.364 1.392 0 .773-.606 1.392-1.364 1.392zm5.46-5.568c-.76 0-1.366-.62-1.366-1.392 0-.773.606-1.392 1.365-1.392.758 0 1.364.62 1.364 1.392 0 .773-.607 1.392-1.365 1.392zm0 5.567c-.76 0-1.366-.62-1.366-1.393s.606-1.392 1.365-1.392c.758 0 1.364.62 1.364 1.392 0 .773-.607 1.392-1.365 1.392zm5.508-5.568c-.758 0-1.365-.62-1.365-1.392 0-.773.606-1.392 1.364-1.392.758 0 1.365.62 1.365 1.392 0 .773-.608 1.392-1.366 1.392zm4.398-4.743H1.668v11.236c0 .62.505 1.135 1.112 1.135h17.59c.607 0 1.112-.515 1.112-1.134V10.98h-.05zM20.32 25H2.73C1.212 25 0 23.763 0 22.216V5.927C0 4.38 1.213 3.144 2.73 3.144h1.06v1.7H2.73c-.607 0-1.113.517-1.113 1.135v3.4H21.38v-3.4c0-.62-.504-1.135-1.11-1.135h-.557v-1.7h.556c1.515 0 2.728 1.236 2.728 2.783v16.237C23.048 23.763 21.836 25 20.32 25z" fill="currentColor" fill-rule="evenodd"/></symbol><symbol id="download" viewBox="0 0 35 35"><title>icon/download</title><g stroke-width="2" stroke="currentColor" fill="none" fill-rule="currentColor"><circle cx="17.5" cy="17.5" r="16.5"/><path d="M23.107 17.07l-5.036 5.037-5.034-5.036m5.033 5.036V8.754"/><path d="M10 21.964v3h16v-3"/></g></symbol><symbol id="export-file" viewBox="0 0 424 462"><title>e</title><g fill="currentColor"><path d="M423 444.833V144.217c0-4.817-1.983-9.35-5.383-12.467L280.767 4.533C277.65 1.7 273.4 0 269.15 0H57.5c-9.35 0-17 7.65-17 17v189.833c0 9.35 7.65 17 17 17s17-7.65 17-17V34h172.833v130.333c0 9.35 7.65 17 17 17h121.833c.85 0 1.983 0 2.833-.283v246.783H74.5v-68c0-9.35-7.65-17-17-17s-17 7.65-17 17v85c0 9.35 7.65 17 17 17H406c9.35 0 17-7.65 17-17zM281.333 51.567l102.85 95.767h-102.85V51.567z"/><path d="M.833 280.5c0 9.35 7.65 17 17 17h177.083l-54.683 48.733c-7.083 6.233-7.65 17-1.417 24.083 3.4 3.683 7.933 5.667 12.75 5.667 3.967 0 7.933-1.417 11.333-4.25l88.4-78.767c3.68-3.117 5.665-7.933 5.665-12.75s-1.983-9.35-5.667-12.75L162.9 188.7c-7.083-6.233-17.85-5.667-24.083 1.417-6.233 7.083-5.667 17.85 1.417 24.083l55.533 49.3H17.833c-9.35 0-17 7.65-17 17z"/></g></symbol><symbol id="flash" viewBox="0 0 292 512"><path d="M290.268 175.6a8.53 8.53 0 0 0-7.73-4.933h-101.12L281.213 13.1A8.536 8.536 0 0 0 274.001 0H137.47a8.54 8.54 0 0 0-7.637 4.72l-128 256a8.52 8.52 0 0 0 .375 8.293 8.545 8.545 0 0 0 7.262 4.053h87.748L1.602 500.156a8.55 8.55 0 0 0 3.413 10.59 8.55 8.55 0 0 0 10.984-1.777l273.067-324.267a8.543 8.543 0 0 0 1.203-9.104z" fill="currentColor"/></symbol><symbol id="generator" viewBox="0 0 47 48"><g fill="currentColor" fill-rule="evenodd"><mask id="generator-b"><use xlink:href="#generator-a"/></mask><path d="M14.3 16.1c-.9-.1-1.5-.9-1.4-1.8l.8-7.2C7.6 10.5 3.4 17 3.4 24.5c0 11 8.9 19.8 19.8 19.8h.3c.8.1 1.4.8 1.4 1.6s-.6 1.5-1.4 1.6h-.4C10.4 47.5 0 37.1 0 24.4 0 15.7 4.8 8.1 11.9 4.2L4 3.3c-.9-.1-1.5-.9-1.4-1.8C2.7.7 3.4 0 4.2 0h.2l11.4 1.3c.4 0 .8.3 1.1.6.3.3.4.8.3 1.2L16 14.5c0 1-.8 1.7-1.7 1.6m20.4 27.3l7.9.9c.9.1 1.5.9 1.4 1.8-.1.8-.8 1.5-1.6 1.5h-.2l-11.4-1.3c-.4 0-.8-.3-1.1-.6-.3-.3-.4-.8-.3-1.2l1.3-11.4c.1-.9.9-1.5 1.8-1.4.9.1 1.5.9 1.4 1.8l-.8 7.2c6.1-3.4 10.3-9.9 10.3-17.4 0-11-8.9-19.8-19.8-19.8h-.3c-.8-.1-1.4-.8-1.4-1.6S22.5.4 23.3.3h.4c12.7 0 23.1 10.4 23.1 23.1-.1 8.5-5 16.1-12.1 20" mask="url(#generator-b)"/></g></symbol><symbol id="play" viewBox="0 0 35 35"><title>icon/play</title><g fill="none" fill-rule="evenodd"><circle fill="currentColor" cx="17.5" cy="17.5" r="17.5"/><path fill="#FFF" d="M27 17.5L14 24V11"/></g></symbol><symbol id="settings" viewBox="0 0 49 48"><title>icon/settings</title><g fill="none" fill-rule="evenodd"><mask id="settings-b" fill="#fff"><use xlink:href="#settings-a"/></mask><path d="M24.2 17.4c-3.6 0-6.6 3-6.6 6.6 0 3.7 3 6.6 6.6 6.6 3.6 0 6.6-3 6.6-6.6 0-3.6-2.9-6.6-6.6-6.6zm0 16.6c-5.4 0-9.9-4.4-9.9-9.9s4.4-9.9 9.9-9.9c5.4 0 9.9 4.4 9.9 9.9 0 5.4-4.4 9.9-9.9 9.9zm20.6-13.7h-2.1c-1.6 0-3-1-3.6-2.4-.6-1.5-.3-3.2.9-4.3l1.4-1.4-5.3-5.3-1.4 1.4c-.8.8-1.8 1.2-2.8 1.2-.5 0-1-.1-1.5-.3-1.5-.6-2.4-2-2.4-3.6V3.4h-7.5v2.2c0 1.6-1 3-2.4 3.6-.5.2-1 .3-1.5.3-1 0-2-.4-2.8-1.2l-1.4-1.4-5.3 5.3 1.4 1.4c1.1 1.1 1.5 2.8.9 4.3s-2 2.4-3.6 2.4H3.7v7.5h2.1c1.6 0 3 1 3.6 2.4.6 1.5.3 3.2-.9 4.3l-1.4 1.4 5.3 5.3 1.4-1.4c.7-.7 1.7-1.2 2.8-1.2.5 0 1 .1 1.5.3 1.5.6 2.4 2 2.4 3.6v2.1H28v-2.1c0-1.6 1-3 2.4-3.6.5-.2 1-.3 1.5-.3 1.1 0 2 .4 2.8 1.2l1.4 1.4 5.3-5.3-1.5-1.4c-1.1-1.1-1.5-2.8-.9-4.3s2-2.4 3.6-2.4h2.1v-7.5h.1zm-.1 10.8h-2c-.3 0-.5.2-.6.4-.1.3 0 .5.1.7l1.4 1.4c1.3 1.3 1.3 3.3 0 4.6l-5.3 5.3c-.6.6-1.5 1-2.3 1-.8 0-1.7-.3-2.3-1l-1.4-1.4c-.1-.1-.3-.2-.5-.2-.1 0-.2 0-.3.1-.3.1-.4.4-.4.6v2c0 1.8-1.5 3.4-3.3 3.4h-7.5c-1.8 0-3.3-1.6-3.3-3.4v-2c0-.3-.2-.5-.4-.6-.1 0-.2-.1-.3-.1-.2 0-.3.1-.5.2l-1.4 1.4c-.6.6-1.5 1-2.3 1-.8 0-1.7-.3-2.3-1l-5.3-5.3c-1.3-1.3-1.3-3.3 0-4.6l1.4-1.4c.2-.2.3-.5.1-.7-.1-.3-.4-.4-.6-.4h-2c-1.8 0-3.4-1.5-3.4-3.3v-7.5C0 18.5 1.6 17 3.4 17h2c.3 0 .5-.2.6-.4.1-.3 0-.5-.1-.7l-1.4-1.4c-1.3-1.3-1.3-3.3 0-4.6l5.3-5.3c.6-.6 1.5-1 2.3-1 .8 0 1.7.3 2.3 1L15.8 6c.1.1.3.2.5.2.1 0 .2 0 .3-.1.3-.1.4-.4.4-.6v-2C17 1.7 18.5 0 20.3 0h7.5c1.8 0 3.3 1.7 3.3 3.5v2c0 .3.2.5.4.6.1 0 .2.1.3.1.2 0 .3-.1.5-.2l1.4-1.4c.6-.6 1.5-1 2.3-1 .8 0 1.7.3 2.3 1l5.3 5.3c1.3 1.3 1.3 3.3 0 4.6l-1.4 1.4c-.2.2-.3.5-.1.7.1.3.4.4.6.4h2c1.8 0 3.4 1.5 3.4 3.3v7.5c0 1.8-1.6 3.3-3.4 3.3z" fill="currentColor" mask="url(#settings-b)"/></g></symbol><symbol id="statistic" viewBox="0 0 498 498"><title>icon/statistic copy</title><g fill="currentColor"><path d="M438.508 268.427H248.83c-10.718 0-19.43-8.7-19.43-19.425V59.324c0-5.466-2.3-10.676-6.34-14.356a19.416 19.416 0 0 0-14.875-4.988C91.445 50.695 0 148.886 0 268.427 0 395.12 102.722 497.83 229.4 497.83c119.553 0 217.734-91.436 228.452-208.174a19.43 19.43 0 0 0-4.998-14.866 19.405 19.405 0 0 0-14.346-6.363z"/><path d="M290.543.09c-.593-.058-1.2-.083-1.79-.083-4.82 0-9.484 1.8-13.104 5.078a19.454 19.454 0 0 0-6.342 14.35v189.663c0 10.725 8.71 19.426 19.423 19.426h189.664c5.476 0 10.684-2.3 14.367-6.345a19.492 19.492 0 0 0 4.998-14.883C487.664 97.542 400.294 10.157 290.543.09zm12.425 194.774V35.657c81.288 14.026 145.172 77.91 159.225 159.207H302.968z"/></g></symbol></svg>